SplineFontDB: 3.2
FontName: ComicMono-Bold-Adjusted
FullName: Comic Mono Adjusted Bold
FamilyName: Comic Mono Adjusted
Weight: Bold
Copyright: https://github.com/dtinth/comic-mono-font/blob/master/LICENSE
Version: 0.2
ItalicAngle: 0
UnderlinePosition: 0
UnderlineWidth: 0
Ascent: 1920
Descent: 128
InvalidEm: 0
sfntRevision: 0x00001999
LayerCount: 2
Layer: 0 1 "Back" 1
Layer: 1 1 "Fore" 0
XUID: [1021 324 885533704 20055]
StyleMap: 0x0020
FSType: 4
OS2Version: 3
OS2_WeightWidthSlopeOnly: 0
OS2_UseTypoMetrics: 0
CreationTime: 1532631502
ModificationTime: 1743463105
PfmFamily: 81
TTFWeight: 400
TTFWidth: 5
LineGap: 0
VLineGap: 0
Panose: 0 0 0 0 0 0 0 0 0 0
OS2TypoAscent: 1255
OS2TypoAOffset: 0
OS2TypoDescent: -125
OS2TypoDOffset: 0
OS2TypoLinegap: 200
OS2WinAscent: 1631
OS2WinAOffset: 0
OS2WinDescent: 163
OS2WinDOffset: 0
HheadAscent: 1631
HheadAOffset: 0
HheadDescent: -163
HheadDOffset: 0
OS2SubXSize: 650
OS2SubYSize: 600
OS2SubXOff: 0
OS2SubYOff: 75
OS2SupXSize: 650
OS2SupYSize: 600
OS2SupXOff: 0
OS2SupYOff: 350
OS2StrikeYSize: 0
OS2StrikeYPos: 270
OS2CapHeight: 1180
OS2XHeight: 993
OS2Vendor: 'NONE'
OS2CodePages: 00000001.00000000
OS2UnicodeRanges: 00000001.00000000.00000000.00000000
MarkAttachClasses: 1
DEI: 91125
ShortTable: maxp 16
  1
  0
  106
  131
  5
  0
  0
  2
  0
  1
  1
  0
  64
  0
  0
  0
EndShort
LangName: 1033 "" "" "" "" "" "Version 0.1.1"
GaspTable: 1 65535 2 0
Encoding: UnicodeBmp
UnicodeInterp: none
NameList: AGL For New Fonts
DisplaySize: -48
AntiAlias: 1
FitToEm: 0
WinInfo: 57 19 13
BeginPrivate: 0
EndPrivate
BeginChars: 65539 106

StartChar: .notdef
Encoding: 65536 -1 0
Width: 1116
GlyphClass: 1
Flags: W
LayerCount: 2
Fore
SplineSet
104 -548 m 1,0,-1
 104 1534 l 1,1,-1
 1013 1534 l 1,2,-1
 1013 -548 l 1,3,-1
 104 -548 l 1,0,-1
246 -406 m 1,4,-1
 871 -406 l 1,5,-1
 871 1392 l 1,6,-1
 246 1392 l 1,7,-1
 246 -406 l 1,4,-1
EndSplineSet
EndChar

StartChar: exclam
Encoding: 33 33 4
Width: 1116
GlyphClass: 2
Flags: W
LayerCount: 2
Fore
SplineSet
695 1496 m 0,0,1
 695 1495 695 1495 688.5 1157 c 128,-1,2
 682 819 682 819 682 817 c 0,3,4
 684 737 684 737 684 693 c 0,5,6
 684 646 684 646 681.5 628.5 c 128,-1,7
 679 611 679 611 679 591 c 0,8,9
 679 572 679 572 680 539 c 2,10,-1
 680 538 l 1,11,-1
 680 537 l 1,12,13
 674 487 674 487 640 457.5 c 128,-1,14
 606 428 606 428 559 428 c 0,15,16
 558 428 558 428 556.5 428 c 128,-1,17
 555 428 555 428 554 428 c 0,18,19
 509 428 509 428 478.5 457 c 128,-1,20
 448 486 448 486 448 536 c 0,21,22
 448 542 448 542 449 551 c 0,23,24
 451 581 451 581 455.5 607.5 c 128,-1,25
 460 634 460 634 462.5 663.5 c 128,-1,26
 465 693 465 693 465 751 c 0,27,28
 465 828 465 828 462 936 c 0,29,30
 458 1032 458 1032 458 1121 c 0,31,32
 458 1190 458 1190 459.5 1259 c 128,-1,33
 461 1328 461 1328 463.5 1400 c 128,-1,34
 466 1472 466 1472 466 1489 c 0,35,36
 467 1552 467 1552 501 1584.5 c 128,-1,37
 535 1617 535 1617 582 1617 c 0,38,39
 583 1617 583 1617 585.5 1617 c 128,-1,40
 588 1617 588 1617 589 1617 c 0,41,42
 636 1617 636 1617 665.5 1587 c 128,-1,43
 695 1557 695 1557 695 1496 c 0,0,1
567 -50 m 0,44,45
 558 -51 558 -51 547 -51 c 0,46,47
 472 -51 472 -51 425 2.5 c 128,-1,48
 378 56 378 56 378 125.5 c 128,-1,49
 378 195 378 195 435.5 244 c 128,-1,50
 493 293 493 293 564 297 c 0,51,52
 569 297 569 297 574 297 c 0,53,54
 649 297 649 297 696 247.5 c 128,-1,55
 743 198 743 198 743 127.5 c 128,-1,56
 743 57 743 57 695 7.5 c 128,-1,57
 647 -42 647 -42 567 -50 c 0,44,45
EndSplineSet
EndChar

StartChar: quotedbl
Encoding: 34 34 5
Width: 1116
GlyphClass: 2
Flags: W
LayerCount: 2
Fore
SplineSet
518 1496 m 0,0,1
 518 1477 518 1477 518 1435 c 0,2,3
 518 1319 518 1319 514 1168.5 c 128,-1,4
 510 1018 510 1018 502 955 c 0,5,6
 495 909 495 909 463 884.5 c 128,-1,7
 431 860 431 860 393 860 c 0,8,9
 390 860 390 860 387 860 c 0,10,11
 344 862 344 862 307.5 887.5 c 128,-1,12
 271 913 271 913 271 961 c 0,13,14
 271 967 271 967 271 972 c 0,15,16
 276 1017 276 1017 276 1143 c 0,17,18
 276 1344 276 1344 269 1506 c 0,19,20
 269 1510 269 1510 269 1513 c 0,21,22
 269 1539 269 1539 280 1557.5 c 128,-1,23
 291 1576 291 1576 310 1585.5 c 128,-1,24
 329 1595 329 1595 348.5 1599.5 c 128,-1,25
 368 1604 368 1604 389 1604 c 0,26,27
 391 1604 391 1604 394 1604 c 128,-1,28
 397 1604 397 1604 399 1604 c 0,29,30
 420 1604 420 1604 439 1598.5 c 128,-1,31
 458 1593 458 1593 476 1581.5 c 128,-1,32
 494 1570 494 1570 505.5 1548 c 128,-1,33
 517 1526 517 1526 518 1496 c 0,0,1
846 1496 m 0,34,35
 847 1477 847 1477 847 1435 c 0,36,37
 847 1319 847 1319 843 1168.5 c 128,-1,38
 839 1018 839 1018 831 955 c 0,39,40
 824 909 824 909 792 884.5 c 128,-1,41
 760 860 760 860 721 860 c 0,42,43
 719 860 719 860 716 860 c 0,44,45
 673 862 673 862 636 887.5 c 128,-1,46
 599 913 599 913 599 961 c 0,47,48
 599 967 599 967 600 972 c 0,49,50
 605 1017 605 1017 605 1143 c 0,51,52
 605 1343 605 1343 597 1506 c 0,53,54
 597 1510 597 1510 597 1513 c 0,55,56
 597 1539 597 1539 608.5 1557.5 c 128,-1,57
 620 1576 620 1576 638.5 1585.5 c 128,-1,58
 657 1595 657 1595 676.5 1599.5 c 128,-1,59
 696 1604 696 1604 717 1604 c 0,60,61
 719 1604 719 1604 722.5 1604 c 128,-1,62
 726 1604 726 1604 728 1604 c 0,63,64
 749 1604 749 1604 768 1598.5 c 128,-1,65
 787 1593 787 1593 805 1581.5 c 128,-1,66
 823 1570 823 1570 834 1548 c 128,-1,67
 845 1526 845 1526 846 1496 c 0,34,35
EndSplineSet
EndChar

StartChar: numbersign
Encoding: 35 35 6
Width: 1116
GlyphClass: 2
Flags: W
LayerCount: 2
Fore
SplineSet
346 96 m 1,0,1
 331 54 331 54 292 25 c 128,-1,2
 253 -4 253 -4 212 -4 c 0,3,4
 202 -4 202 -4 184 1 c 0,5,6
 149 9 149 9 127.5 40.5 c 128,-1,7
 106 72 106 72 106 113 c 0,8,9
 106 137 106 137 114 163 c 0,10,11
 128 209 128 209 166 372 c 1,12,-1
 125 372 l 2,13,14
 66 372 66 372 35 396 c 128,-1,15
 4 420 4 420 4 461 c 2,16,17
 4 461 4 461 4 463 c 128,-1,18
 4 465 4 465 4 466 c 0,19,20
 4 506 4 506 32.5 534 c 128,-1,21
 61 562 61 562 119 565 c 0,22,23
 135 566 135 566 165 567 c 128,-1,24
 195 568 195 568 208 569 c 1,25,-1
 272 886 l 1,26,27
 263 885 263 885 240 884.5 c 128,-1,28
 217 884 217 884 206 884 c 0,29,30
 205 884 205 884 203 884 c 128,-1,31
 201 884 201 884 200 884 c 0,32,33
 145 884 145 884 115 911 c 128,-1,34
 85 938 85 938 85 979 c 0,35,36
 85 980 85 980 85 981.5 c 128,-1,37
 85 983 85 983 85 984 c 0,38,39
 85 1024 85 1024 115.5 1053 c 128,-1,40
 146 1082 146 1082 203 1084 c 0,41,42
 261 1086 261 1086 311 1086 c 1,43,44
 365 1369 365 1369 368 1386 c 2,45,-1
 368 1387 l 1,46,-1
 368 1388 l 1,47,48
 383 1436 383 1436 414 1460 c 128,-1,49
 445 1484 445 1484 482 1484 c 0,50,51
 494 1484 494 1484 510 1481 c 0,52,53
 552 1472 552 1472 578 1444.5 c 128,-1,54
 604 1417 604 1417 604 1373 c 0,55,56
 604 1358 604 1358 601 1341 c 2,57,-1
 550 1100 l 1,58,-1
 749 1100 l 1,59,-1
 802 1374 l 1,60,61
 816 1422 816 1422 847 1445.5 c 128,-1,62
 878 1469 878 1469 915 1469 c 0,63,64
 926 1469 926 1469 946 1465 c 0,65,66
 988 1457 988 1457 1014 1430.5 c 128,-1,67
 1040 1404 1040 1404 1040 1362 c 0,68,69
 1040 1343 1040 1343 1034 1323 c 0,70,71
 1014 1246 1014 1246 987 1097 c 1,72,-1
 992 1097 l 2,73,74
 1047 1097 1047 1097 1084.5 1067 c 128,-1,75
 1122 1037 1122 1037 1125 999 c 0,76,77
 1125 957 1125 957 1096.5 927 c 128,-1,78
 1068 897 1068 897 1010 895 c 2,79,-1
 949 895 l 1,80,-1
 895 582 l 1,81,-1
 960 582 l 2,82,83
 1058 582 1058 582 1063 492 c 0,84,85
 1063 435 1063 435 1033.5 411 c 128,-1,86
 1004 387 1004 387 960 387 c 2,87,-1
 859 387 l 1,88,89
 820 170 820 170 802 88 c 1,90,-1
 802 87 l 1,91,-1
 802 86 l 1,92,93
 786 45 786 45 750 20.5 c 128,-1,94
 714 -4 714 -4 673 -4 c 0,95,96
 661 -4 661 -4 642 1 c 0,97,98
 606 9 606 9 584.5 40.5 c 128,-1,99
 563 72 563 72 563 114 c 0,100,101
 563 135 563 135 569 160 c 0,102,103
 586 226 586 226 618 392 c 1,104,105
 583 392 583 392 512.5 391 c 128,-1,106
 442 390 442 390 407 390 c 1,107,108
 364 179 364 179 346 98 c 1,109,-1
 346 97 l 1,110,-1
 346 96 l 1,0,1
713 895 m 1,111,-1
 510 895 l 1,112,-1
 447 577 l 1,113,114
 522 579 522 579 655 579 c 1,115,116
 685 731 685 731 713 895 c 1,111,-1
EndSplineSet
EndChar

StartChar: dollar
Encoding: 36 36 7
Width: 1116
GlyphClass: 2
Flags: W
LayerCount: 2
Fore
SplineSet
678 -189 m 1,0,1
 672 -238 672 -238 638.5 -267 c 128,-1,2
 605 -296 605 -296 559 -296 c 0,3,4
 558 -296 558 -296 556.5 -296 c 128,-1,5
 555 -296 555 -296 554 -296 c 0,6,7
 517 -296 517 -296 491 -272.5 c 128,-1,8
 465 -249 465 -249 465 -195 c 0,9,10
 465 -186 465 -186 466 -175 c 0,11,12
 470 -129 470 -129 470 -47 c 1,13,-1
 486 -63 l 1,14,-1
 478 -63 l 2,15,16
 403 -63 403 -63 336.5 -44.5 c 128,-1,17
 270 -26 270 -26 221 5 c 128,-1,18
 172 36 172 36 137 72.5 c 128,-1,19
 102 109 102 109 80 150 c 0,20,21
 59 191 59 191 59 226 c 0,22,23
 59 285 59 285 114 312 c 0,24,25
 156 331 156 331 180 331 c 0,26,27
 230 331 230 331 274 266 c 0,28,29
 314 207 314 207 363 173 c 128,-1,30
 412 139 412 139 486 139 c 2,31,-1
 491 139 l 1,32,-1
 475 123 l 1,33,34
 479 450 479 450 479 711 c 1,35,36
 474 711 474 711 452.5 713.5 c 128,-1,37
 431 716 431 716 419 718 c 0,38,39
 344 726 344 726 281 757.5 c 128,-1,40
 218 789 218 789 178.5 833.5 c 128,-1,41
 139 878 139 878 117.5 929.5 c 128,-1,42
 96 981 96 981 96 1031 c 0,43,44
 96 1105 96 1105 119 1173 c 128,-1,45
 142 1241 142 1241 188 1299.5 c 128,-1,46
 234 1358 234 1358 309.5 1401.5 c 128,-1,47
 385 1445 385 1445 482 1464 c 1,48,49
 483 1489 483 1489 483 1526.5 c 128,-1,50
 483 1564 483 1564 484 1568 c 0,51,52
 485 1631 485 1631 511 1662 c 128,-1,53
 537 1693 537 1693 582 1693 c 0,54,55
 583 1693 583 1693 585.5 1693.5 c 128,-1,56
 588 1694 588 1694 588 1694 c 1,57,58
 635 1694 635 1694 663 1665 c 128,-1,59
 691 1636 691 1636 691 1574 c 2,60,-1
 691 1481 l 1,61,62
 741 1476 741 1476 815 1458.5 c 128,-1,63
 889 1441 889 1441 928 1427 c 256,64,65
 967 1413 967 1413 987 1383.5 c 128,-1,66
 1007 1354 1007 1354 1007 1319 c 0,67,68
 1007 1311 1007 1311 1006 1300 c 0,69,70
 997 1232 997 1232 919 1232 c 0,71,72
 896 1232 896 1232 864 1240 c 0,73,74
 845 1244 845 1244 819 1256 c 128,-1,75
 793 1268 793 1268 762 1277.5 c 128,-1,76
 731 1287 731 1287 688 1290 c 1,77,78
 686 1165 686 1165 682 894 c 1,79,80
 775 880 775 880 847.5 848 c 128,-1,81
 920 816 920 816 965.5 774 c 128,-1,82
 1011 732 1011 732 1040.5 679 c 128,-1,83
 1070 626 1070 626 1082 573.5 c 128,-1,84
 1094 521 1094 521 1094 464 c 0,85,86
 1094 369 1094 369 1061.5 286 c 128,-1,87
 1029 203 1029 203 972 140 c 128,-1,88
 915 77 915 77 839.5 32 c 128,-1,89
 764 -13 764 -13 675 -38 c 1,90,91
 675 -147 675 -147 678 -186 c 2,92,-1
 678 -188 l 1,93,-1
 678 -189 l 1,0,1
318 1087 m 0,94,95
 318 1032 318 1032 360 988.5 c 128,-1,96
 402 945 402 945 479 923 c 1,97,98
 481 1059 481 1059 481 1275 c 1,99,100
 406 1249 406 1249 362 1200 c 128,-1,101
 318 1151 318 1151 318 1087 c 0,94,95
871 425 m 0,102,103
 871 461 871 461 863.5 491 c 128,-1,104
 856 521 856 521 836.5 553 c 128,-1,105
 817 585 817 585 777.5 613 c 128,-1,106
 738 641 738 641 680 663 c 1,107,108
 679 580 679 580 678 416 c 128,-1,109
 677 252 677 252 676 176 c 1,110,111
 763 217 763 217 817 282 c 128,-1,112
 871 347 871 347 871 425 c 0,102,103
EndSplineSet
EndChar

StartChar: percent
Encoding: 37 37 8
Width: 1116
GlyphClass: 2
Flags: W
LayerCount: 2
Fore
SplineSet
274 869 m 0,0,1
 198 870 198 870 139.5 909 c 128,-1,2
 81 948 81 948 51 1009.5 c 128,-1,3
 21 1071 21 1071 21 1142 c 0,4,5
 21 1143 21 1143 21 1144.5 c 128,-1,6
 21 1146 21 1146 21 1147 c 0,7,8
 21 1277 21 1277 96.5 1360.5 c 128,-1,9
 172 1444 172 1444 307 1444 c 0,10,11
 358 1444 358 1444 402.5 1428.5 c 128,-1,12
 447 1413 447 1413 484.5 1381 c 128,-1,13
 522 1349 522 1349 543.5 1294 c 128,-1,14
 565 1239 565 1239 565 1167 c 0,15,16
 565 1154 565 1154 564 1131 c 0,17,18
 549 869 549 869 280 869 c 0,19,20
 276 869 276 869 274 869 c 0,0,1
73 59 m 0,21,22
 116 145 116 145 277 420.5 c 128,-1,23
 438 696 438 696 599.5 977.5 c 128,-1,24
 761 1259 761 1259 816 1379 c 1,25,-1
 816 1380 l 1,26,-1
 817 1381 l 1,27,28
 854 1436 854 1436 916 1436 c 0,29,30
 947 1436 947 1436 976 1420 c 0,31,32
 1026 1397 1026 1397 1026 1347 c 0,33,34
 1026 1315 1026 1315 1002 1276 c 0,35,36
 928 1158 928 1158 642 656 c 128,-1,37
 356 154 356 154 262 -26 c 0,38,39
 220 -106 220 -106 160 -106 c 0,40,41
 138 -106 138 -106 116 -95 c 0,42,43
 54 -66 54 -66 54 -9 c 0,44,45
 54 21 54 21 73 59 c 0,21,22
297 1054 m 0,46,47
 298 1054 298 1054 300 1054 c 0,48,49
 379 1054 379 1054 389 1152 c 0,50,51
 389 1153 389 1153 389 1158 c 0,52,53
 389 1263 389 1263 291 1263 c 0,54,55
 210 1263 210 1263 200 1153 c 0,56,57
 200 1151 200 1151 200 1144 c 0,58,59
 200 1102 200 1102 219.5 1080 c 128,-1,60
 239 1058 239 1058 297 1054 c 0,46,47
821 -73 m 0,61,62
 746 -72 746 -72 687.5 -31.5 c 128,-1,63
 629 9 629 9 599 72 c 128,-1,64
 569 135 569 135 569 208 c 2,65,66
 569 208 569 208 569 210 c 128,-1,67
 569 212 569 212 569 213 c 0,68,69
 569 346 569 346 644 432 c 128,-1,70
 719 518 719 518 854 518 c 0,71,72
 905 518 905 518 950 502 c 128,-1,73
 995 486 995 486 1032 453 c 128,-1,74
 1069 420 1069 420 1091 363.5 c 128,-1,75
 1113 307 1113 307 1113 233 c 0,76,77
 1113 220 1113 220 1111 196 c 0,78,79
 1096 -73 1096 -73 828 -73 c 0,80,81
 824 -73 824 -73 821 -73 c 0,61,62
844 115 m 0,82,83
 846 115 846 115 847 115 c 0,84,85
 888 115 888 115 910 143 c 128,-1,86
 932 171 932 171 935 218 c 0,87,88
 935 219 935 219 935 224 c 0,89,90
 935 282 935 282 911 308.5 c 128,-1,91
 887 335 887 335 839 335 c 0,92,93
 799 335 799 335 776 304 c 128,-1,94
 753 273 753 273 750 218 c 0,95,96
 750 216 750 216 750 210 c 0,97,98
 750 164 750 164 769.5 140.5 c 128,-1,99
 789 117 789 117 844 115 c 0,82,83
EndSplineSet
EndChar

StartChar: ampersand
Encoding: 38 38 9
Width: 1116
GlyphClass: 2
Flags: W
LayerCount: 2
Fore
SplineSet
1033.5 -70 m 128,-1,1
 1011 -83 1011 -83 987 -83 c 0,2,3
 948 -83 948 -83 910.5 -55 c 128,-1,4
 873 -27 873 -27 847 19 c 0,5,6
 841 31 841 31 825 72.5 c 128,-1,7
 809 114 809 114 802 130 c 1,8,9
 780 101 780 101 771.5 89.5 c 128,-1,10
 763 78 763 78 737.5 49.5 c 128,-1,11
 712 21 712 21 695 7.5 c 128,-1,12
 678 -6 678 -6 648 -27.5 c 128,-1,13
 618 -49 618 -49 590 -59 c 128,-1,14
 562 -69 562 -69 524 -77 c 128,-1,15
 486 -85 486 -85 445 -85 c 0,16,17
 355 -85 355 -85 275 -50 c 128,-1,18
 195 -15 195 -15 139 43.5 c 128,-1,19
 83 102 83 102 50 181 c 128,-1,20
 17 260 17 260 17 345 c 0,21,22
 17 532 17 532 96 664.5 c 128,-1,23
 175 797 175 797 330 869 c 1,24,25
 314 893 314 893 286.5 935.5 c 128,-1,26
 259 978 259 978 250.5 992.5 c 128,-1,27
 242 1007 242 1007 226.5 1036 c 128,-1,28
 211 1065 211 1065 207 1084.5 c 128,-1,29
 203 1104 203 1104 198.5 1133 c 128,-1,30
 194 1162 194 1162 194 1197 c 0,31,32
 194 1234 194 1234 204.5 1271.5 c 128,-1,33
 215 1309 215 1309 240.5 1347.5 c 128,-1,34
 266 1386 266 1386 303.5 1416 c 128,-1,35
 341 1446 341 1446 401.5 1464.5 c 128,-1,36
 462 1483 462 1483 537 1483 c 0,37,38
 600 1483 600 1483 659.5 1464 c 128,-1,39
 719 1445 719 1445 768.5 1408.5 c 128,-1,40
 818 1372 818 1372 847.5 1313 c 128,-1,41
 877 1254 877 1254 877 1182 c 0,42,43
 877 1118 877 1118 860 1063.5 c 128,-1,44
 843 1009 843 1009 818 971 c 128,-1,45
 793 933 793 933 755.5 899.5 c 128,-1,46
 718 866 718 866 685.5 846 c 128,-1,47
 653 826 653 826 612 805 c 1,48,49
 646 749 646 749 725.5 638.5 c 128,-1,50
 805 528 805 528 826 496 c 1,51,52
 836 517 836 517 851 551 c 128,-1,53
 866 585 866 585 875 604 c 128,-1,54
 884 623 884 623 891 634 c 0,55,56
 943 712 943 712 999 712 c 0,57,58
 1026 712 1026 712 1054 699 c 0,59,60
 1079 687 1079 687 1093.5 660.5 c 128,-1,61
 1108 634 1108 634 1108 601 c 0,62,63
 1108 559 1108 559 1086 517 c 0,64,65
 1075 496 1075 496 1025 434.5 c 128,-1,66
 975 373 975 373 944 325 c 1,67,68
 966 288 966 288 1004.5 219.5 c 128,-1,69
 1043 151 1043 151 1052 136 c 0,70,71
 1079 92 1079 92 1079 38 c 0,72,73
 1079 3 1079 3 1067.5 -27 c 128,-1,0
 1056 -57 1056 -57 1033.5 -70 c 128,-1,1
421 1156 m 0,74,75
 421 1111 421 1111 445.5 1054.5 c 128,-1,76
 470 998 470 998 505 953 c 1,77,78
 594 982 594 982 634 1024.5 c 128,-1,79
 674 1067 674 1067 674 1150 c 0,80,81
 674 1219 674 1219 632 1254 c 128,-1,82
 590 1289 590 1289 532 1289 c 0,83,84
 478 1289 478 1289 449.5 1258 c 128,-1,85
 421 1227 421 1227 421 1156 c 0,74,75
253 373 m 0,86,87
 253 272 253 272 308 205.5 c 128,-1,88
 363 139 363 139 447 139 c 0,89,90
 487 139 487 139 521.5 149 c 128,-1,91
 556 159 556 159 578.5 171.5 c 128,-1,92
 601 184 601 184 625 207.5 c 128,-1,93
 649 231 649 231 660 245.5 c 128,-1,94
 671 260 671 260 689 286 c 0,95,96
 695 294 695 294 698 298 c 1,97,98
 671 358 671 358 641 414 c 0,99,100
 617 459 617 459 545 562 c 128,-1,101
 473 665 473 665 443 712 c 1,102,103
 388 685 388 685 349.5 647.5 c 128,-1,104
 311 610 311 610 290.5 565 c 128,-1,105
 270 520 270 520 261.5 474 c 128,-1,106
 253 428 253 428 253 373 c 0,86,87
EndSplineSet
EndChar

StartChar: quotesingle
Encoding: 39 39 10
Width: 1116
GlyphClass: 2
Flags: W
LayerCount: 2
Fore
SplineSet
693 1474 m 0,0,1
 694 1455 694 1455 694 1416 c 0,2,3
 694 1107 694 1107 677 976 c 0,4,5
 671 931 671 931 638.5 906 c 128,-1,6
 606 881 606 881 568 881 c 0,7,8
 566 881 566 881 562 882 c 0,9,10
 519 884 519 884 482.5 909.5 c 128,-1,11
 446 935 446 935 446 983 c 0,12,13
 446 988 446 988 446 994 c 0,14,15
 452 1039 452 1039 452 1152 c 0,16,17
 452 1322 452 1322 444 1484 c 0,18,19
 444 1488 444 1488 444 1491 c 0,20,21
 444 1517 444 1517 455 1535.5 c 128,-1,22
 466 1554 466 1554 485 1564 c 128,-1,23
 504 1574 504 1574 523.5 1578 c 128,-1,24
 543 1582 543 1582 564 1582 c 0,25,26
 566 1582 566 1582 569.5 1582 c 128,-1,27
 573 1582 573 1582 574 1582 c 0,28,29
 595 1582 595 1582 614 1576.5 c 128,-1,30
 633 1571 633 1571 651.5 1560 c 128,-1,31
 670 1549 670 1549 681 1526.5 c 128,-1,32
 692 1504 692 1504 693 1474 c 0,0,1
EndSplineSet
EndChar

StartChar: parenleft
Encoding: 40 40 11
Width: 1116
GlyphClass: 2
Flags: W
LayerCount: 2
Fore
SplineSet
901 -175 m 0,0,1
 901 -215 901 -215 869.5 -242 c 128,-1,2
 838 -269 838 -269 802 -269 c 0,3,4
 659 -269 659 -269 543.5 -168 c 128,-1,5
 428 -67 428 -67 357.5 107 c 128,-1,6
 287 281 287 281 265 505 c 0,7,8
 258 568 258 568 258 649 c 0,9,10
 258 810 258 810 281 986.5 c 128,-1,11
 304 1163 304 1163 351 1284 c 0,12,13
 377 1351 377 1351 422 1417 c 128,-1,14
 467 1483 467 1483 525.5 1540 c 128,-1,15
 584 1597 584 1597 657.5 1632 c 128,-1,16
 731 1667 731 1667 804 1667 c 0,17,18
 845 1667 845 1667 874 1644.5 c 128,-1,19
 903 1622 903 1622 903 1568 c 0,20,21
 903 1517 903 1517 873.5 1493 c 128,-1,22
 844 1469 844 1469 800 1469 c 0,23,24
 738 1469 738 1469 683.5 1420 c 128,-1,25
 629 1371 629 1371 592.5 1294.5 c 128,-1,26
 556 1218 556 1218 533 1120 c 0,27,28
 514 1043 514 1043 502.5 914 c 128,-1,29
 491 785 491 785 491 667 c 0,30,31
 491 595 491 595 496 541 c 0,32,33
 506 416 506 416 540.5 300 c 128,-1,34
 575 184 575 184 619.5 106 c 128,-1,35
 664 28 664 28 712.5 -18 c 128,-1,36
 761 -64 761 -64 802 -64 c 0,37,38
 850 -64 850 -64 875.5 -89.5 c 128,-1,39
 901 -115 901 -115 901 -175 c 0,0,1
EndSplineSet
EndChar

StartChar: parenright
Encoding: 41 41 12
Width: 1116
GlyphClass: 2
Flags: W
LayerCount: 2
Fore
SplineSet
864 505 m 0,0,1
 842 281 842 281 771 107 c 128,-1,2
 700 -67 700 -67 584.5 -168 c 128,-1,3
 469 -269 469 -269 326 -269 c 0,4,5
 290 -269 290 -269 258.5 -242 c 128,-1,6
 227 -215 227 -215 227 -175 c 0,7,8
 227 -115 227 -115 253 -89.5 c 128,-1,9
 279 -64 279 -64 326 -64 c 0,10,11
 367 -64 367 -64 415.5 -18 c 128,-1,12
 464 28 464 28 508.5 106 c 128,-1,13
 553 184 553 184 587.5 300 c 128,-1,14
 622 416 622 416 633 541 c 0,15,16
 637 595 637 595 637 667 c 0,17,18
 637 785 637 785 625.5 914 c 128,-1,19
 614 1043 614 1043 596 1120 c 0,20,21
 572 1218 572 1218 535.5 1294.5 c 128,-1,22
 499 1371 499 1371 445 1420 c 128,-1,23
 391 1469 391 1469 329 1469 c 0,24,25
 284 1469 284 1469 254.5 1493 c 128,-1,26
 225 1517 225 1517 225 1568 c 0,27,28
 225 1622 225 1622 254.5 1644.5 c 128,-1,29
 284 1667 284 1667 324 1667 c 0,30,31
 398 1667 398 1667 471.5 1632 c 128,-1,32
 545 1597 545 1597 603 1540 c 128,-1,33
 661 1483 661 1483 706 1417 c 128,-1,34
 751 1351 751 1351 777 1284 c 0,35,36
 824 1163 824 1163 847 986.5 c 128,-1,37
 870 810 870 810 870 649 c 0,38,39
 870 568 870 568 864 505 c 0,0,1
EndSplineSet
EndChar

StartChar: asterisk
Encoding: 42 42 13
Width: 1116
GlyphClass: 2
Flags: W
LayerCount: 2
Fore
SplineSet
469 295 m 1,0,1
 459 253 459 253 433.5 227 c 128,-1,2
 408 201 408 201 369 201 c 0,3,4
 324 201 324 201 292 221 c 0,5,6
 266 237 266 237 251 265.5 c 128,-1,7
 236 294 236 294 236 326 c 0,8,9
 236 357 236 357 251 387 c 2,10,-1
 371 593 l 1,11,12
 226 584 226 584 153 584 c 0,13,14
 98 584 98 584 65 619.5 c 128,-1,15
 32 655 32 655 32 700 c 0,16,17
 32 701 32 701 32 703 c 128,-1,18
 32 705 32 705 32 705 c 2,19,20
 32 731 32 731 41 756.5 c 128,-1,21
 50 782 50 782 75.5 802.5 c 128,-1,22
 101 823 101 823 137 823 c 0,23,24
 142 823 142 823 148 822 c 0,25,26
 235 816 235 816 396 805 c 1,27,28
 322 924 322 924 267 1000 c 0,29,30
 240 1039 240 1039 240 1085 c 0,31,32
 240 1114 240 1114 252 1137.5 c 128,-1,33
 264 1161 264 1161 286 1172 c 0,34,35
 309 1187 309 1187 341 1187 c 0,36,37
 376 1187 376 1187 408 1168.5 c 128,-1,38
 440 1150 440 1150 457 1112 c 0,39,40
 483 1057 483 1057 564 904 c 1,41,42
 630 1021 630 1021 671 1110 c 0,43,44
 688 1147 688 1147 717 1165 c 128,-1,45
 746 1183 746 1183 779 1183 c 0,46,47
 810 1183 810 1183 834 1168 c 0,48,49
 859 1156 859 1156 874 1130 c 128,-1,50
 889 1104 889 1104 889 1074 c 0,51,52
 889 1036 889 1036 865 1003 c 0,53,54
 807 919 807 919 735 795 c 1,55,56
 891 797 891 797 957 816 c 0,57,58
 973 820 973 820 988 820 c 0,59,60
 1031 820 1031 820 1060.5 788.5 c 128,-1,61
 1090 757 1090 757 1092 723 c 0,62,63
 1092 704 1092 704 1087.5 685 c 128,-1,64
 1083 666 1083 666 1073.5 646 c 128,-1,65
 1064 626 1064 626 1044.5 613 c 128,-1,66
 1025 600 1025 600 1000 600 c 0,67,68
 990 600 990 600 981 602 c 0,69,70
 929 612 929 612 811 612 c 0,71,72
 779 612 779 612 737 611 c 1,73,-1
 862 407 l 2,74,75
 883 369 883 369 883 333 c 0,76,77
 883 279 883 279 843 256 c 0,78,79
 816 240 816 240 775 240 c 0,80,81
 738 240 738 240 706.5 256.5 c 128,-1,82
 675 273 675 273 664 309 c 0,83,84
 640 383 640 383 572 516 c 1,85,86
 489 352 489 352 469 295 c 1,0,1
EndSplineSet
EndChar

StartChar: plus
Encoding: 43 43 14
Width: 1116
GlyphClass: 2
Flags: W
LayerCount: 2
Fore
SplineSet
649 523 m 0,0,1
 649 430 649 430 557 425 c 0,2,3
 499 425 499 425 475 453.5 c 128,-1,4
 451 482 451 482 451 523 c 2,5,-1
 451 716 l 1,6,7
 415 716 415 716 351 715 c 128,-1,8
 287 714 287 714 261 714 c 0,9,10
 203 714 203 714 173.5 743 c 128,-1,11
 144 772 144 772 144 814 c 2,12,13
 144 814 144 814 144 816 c 128,-1,14
 144 818 144 818 144 819 c 0,15,16
 144 858 144 858 171 887.5 c 128,-1,17
 198 917 198 917 254 917 c 0,18,19
 256 917 256 917 259 916 c 0,20,21
 392 913 392 913 451 912 c 1,22,23
 450 1010 450 1010 446 1110 c 0,24,25
 446 1118 446 1118 446 1120 c 0,26,27
 446 1158 446 1158 469.5 1184.5 c 128,-1,28
 493 1211 493 1211 549 1212 c 0,29,30
 551 1212 551 1212 554 1212 c 128,-1,31
 557 1212 557 1212 559 1212 c 0,32,33
 600 1212 600 1212 628 1191.5 c 128,-1,34
 656 1171 656 1171 656 1124 c 0,35,36
 656 1119 656 1119 656 1114 c 0,37,38
 650 1011 650 1011 649 916 c 1,39,-1
 859 916 l 2,40,41
 957 916 957 916 962 824 c 0,42,43
 962 767 962 767 935.5 742 c 128,-1,44
 909 717 909 717 871 717 c 0,45,46
 863 717 863 717 857 718 c 0,47,48
 824 722 824 722 747 722 c 0,49,50
 730 722 730 722 695 720.5 c 128,-1,51
 660 719 660 719 647 719 c 1,52,53
 647 672 647 672 648 606 c 128,-1,54
 649 540 649 540 649 523 c 0,0,1
EndSplineSet
EndChar

StartChar: comma
Encoding: 44 44 15
Width: 1116
GlyphClass: 2
Flags: W
LayerCount: 2
Fore
SplineSet
736 178 m 0,0,1
 716 76 716 76 647.5 -134.5 c 128,-1,2
 579 -345 579 -345 541 -396 c 0,3,4
 513 -433 513 -433 471 -454 c 128,-1,5
 429 -475 429 -475 391 -475 c 0,6,7
 372 -475 372 -475 357 -437 c 1,8,9
 329 -430 329 -430 307.5 -405.5 c 128,-1,10
 286 -381 286 -381 286 -349 c 0,11,12
 286 -321 286 -321 304 -294 c 0,13,14
 345 -238 345 -238 420 -40 c 128,-1,15
 495 158 495 158 512 238 c 0,16,17
 520 275 520 275 549.5 292.5 c 128,-1,18
 579 310 579 310 616 310 c 0,19,20
 637 310 637 310 657 304 c 0,21,22
 690 294 690 294 714.5 267 c 128,-1,23
 739 240 739 240 739 200 c 0,24,25
 739 188 739 188 736 178 c 0,0,1
EndSplineSet
EndChar

StartChar: hyphen
Encoding: 45 45 16
Width: 1116
GlyphClass: 2
Flags: W
LayerCount: 2
Fore
SplineSet
326 675 m 0,0,1
 441 675 441 675 602.5 678 c 128,-1,2
 764 681 764 681 787 681 c 0,3,4
 885 681 885 681 890 589 c 0,5,6
 890 531 890 531 860 507 c 128,-1,7
 830 483 830 483 787 483 c 0,8,9
 761 483 761 483 581.5 474 c 128,-1,10
 402 465 402 465 329 465 c 0,11,12
 225 465 225 465 225 569 c 0,13,14
 225 571 225 571 225 573.5 c 128,-1,15
 225 576 225 576 225 578 c 0,16,17
 225 631 225 631 254 653 c 128,-1,18
 283 675 283 675 326 675 c 0,0,1
EndSplineSet
EndChar

StartChar: period
Encoding: 46 46 17
Width: 1116
GlyphClass: 2
Flags: W
LayerCount: 2
Fore
SplineSet
567 -60 m 0,0,1
 558 -61 558 -61 547 -61 c 0,2,3
 472 -61 472 -61 425 -7.5 c 128,-1,4
 378 46 378 46 378 115.5 c 128,-1,5
 378 185 378 185 435.5 234 c 128,-1,6
 493 283 493 283 564 287 c 0,7,8
 569 287 569 287 574 287 c 0,9,10
 649 287 649 287 696 237.5 c 128,-1,11
 743 188 743 188 743 117.5 c 128,-1,12
 743 47 743 47 695 -2 c 128,-1,13
 647 -51 647 -51 567 -60 c 0,0,1
EndSplineSet
EndChar

StartChar: slash
Encoding: 47 47 18
Width: 1116
GlyphClass: 2
Flags: W
LayerCount: 2
Fore
SplineSet
1061 1361 m 0,0,1
 1008 1256 1008 1256 762 848.5 c 128,-1,2
 516 441 516 441 463 340 c 0,3,4
 430 277 430 277 356.5 126 c 128,-1,5
 283 -25 283 -25 264 -59 c 0,6,7
 238 -104 238 -104 199 -130.5 c 128,-1,8
 160 -157 160 -157 121 -157 c 0,9,10
 95 -157 95 -157 71 -112 c 1,11,12
 48 -99 48 -99 36.5 -69.5 c 128,-1,13
 25 -40 25 -40 25 -6 c 0,14,15
 25 47 25 47 52 91 c 0,16,17
 331 537 331 537 564 948 c 0,18,19
 682 1150 682 1150 847 1469 c 0,20,21
 862 1499 862 1499 885.5 1516.5 c 128,-1,22
 909 1534 909 1534 927.5 1538.5 c 128,-1,23
 946 1543 946 1543 964 1543 c 0,24,25
 995 1543 995 1543 1022 1530 c 0,26,27
 1043 1519 1043 1519 1062 1495 c 128,-1,28
 1081 1471 1081 1471 1081 1433 c 0,29,30
 1081 1399 1081 1399 1061 1361 c 0,0,1
EndSplineSet
EndChar

StartChar: zero
Encoding: 48 48 19
Width: 1116
GlyphClass: 2
Flags: W
LayerCount: 2
Fore
SplineSet
528 -50 m 0,0,1
 430 -49 430 -49 347 -15 c 128,-1,2
 264 19 264 19 204 80.5 c 128,-1,3
 144 142 144 142 110 232.5 c 128,-1,4
 76 323 76 323 76 433 c 0,5,6
 76 435 76 435 76 438.5 c 128,-1,7
 76 442 76 442 76 444 c 0,8,9
 76 467 76 467 75.5 531 c 128,-1,10
 75 595 75 595 75 634 c 0,11,12
 75 1018 75 1018 145 1200 c 0,13,14
 197 1333 197 1333 319 1401.5 c 128,-1,15
 441 1470 441 1470 613 1470 c 0,16,17
 699 1470 699 1470 774.5 1441 c 128,-1,18
 850 1412 850 1412 911 1356.5 c 128,-1,19
 972 1301 972 1301 1011.5 1211.5 c 128,-1,20
 1051 1122 1051 1122 1061 1007 c 0,21,22
 1071 895 1071 895 1071 738 c 0,23,24
 1071 443 1071 443 1036 320 c 0,25,26
 1017 250 1017 250 993.5 196 c 128,-1,27
 970 142 970 142 943.5 103 c 128,-1,28
 917 64 917 64 882.5 36.5 c 128,-1,29
 848 9 848 9 812.5 -8 c 128,-1,30
 777 -25 777 -25 729.5 -34.5 c 128,-1,31
 682 -44 682 -44 636 -47 c 128,-1,32
 590 -50 590 -50 528 -50 c 0,0,1
307 455 m 1,33,34
 307 455 307 455 307 454 c 128,-1,35
 307 453 307 453 307 453 c 1,36,37
 562 806 562 806 770 1177 c 1,38,39
 735 1223 735 1223 686 1247.5 c 128,-1,40
 637 1272 637 1272 581 1272 c 0,41,42
 472 1272 472 1272 413 1212 c 128,-1,43
 354 1152 354 1152 322 1017 c 0,44,45
 299 920 299 920 299 733 c 0,46,47
 299 648 299 648 307 455 c 1,33,34
813 365 m 0,48,49
 821 392 821 392 832.5 535 c 128,-1,50
 844 678 844 678 844 828 c 0,51,52
 844 900 844 900 840 962 c 1,53,54
 631 550 631 550 352 263 c 1,55,56
 405 155 405 155 528 155 c 0,57,58
 581 155 581 155 621 163 c 128,-1,59
 661 171 661 171 699 193 c 128,-1,60
 737 215 737 215 765 257.5 c 128,-1,61
 793 300 793 300 813 365 c 0,48,49
EndSplineSet
EndChar

StartChar: one
Encoding: 49 49 20
Width: 1116
GlyphClass: 2
Flags: W
LayerCount: 2
Fore
SplineSet
1085 91 m 0,0,1
 1085 88 1085 88 1085 84 c 0,2,3
 1085 41 1085 41 1057 11.5 c 128,-1,4
 1029 -18 1029 -18 962 -18 c 0,5,6
 936 -18 936 -18 598.5 -14.5 c 128,-1,7
 261 -11 261 -11 160 -11 c 0,8,9
 108 -11 108 -11 82 18.5 c 128,-1,10
 56 48 56 48 56 92 c 0,11,12
 56 93 56 93 56 95.5 c 128,-1,13
 56 98 56 98 56 99 c 0,14,15
 56 145 56 145 82.5 175 c 128,-1,16
 109 205 109 205 162 205 c 0,17,18
 254 205 254 205 462 201 c 1,19,20
 462 262 462 262 459 315 c 0,21,22
 458 351 458 351 458 409 c 0,23,24
 458 554 458 554 482 1162 c 1,25,26
 352 1058 352 1058 284 1032 c 0,27,28
 271 1027 271 1027 256 1027 c 0,29,30
 213 1027 213 1027 176 1063 c 128,-1,31
 139 1099 139 1099 139 1137 c 1,32,33
 139 1137 139 1137 139.5 1138 c 128,-1,34
 140 1139 140 1139 140 1139 c 1,35,36
 140 1174 140 1174 157 1202.5 c 128,-1,37
 174 1231 174 1231 214 1260 c 0,38,39
 275 1306 275 1306 341 1360 c 128,-1,40
 407 1414 407 1414 436 1438 c 128,-1,41
 465 1462 465 1462 497 1479 c 128,-1,42
 529 1496 529 1496 556 1496 c 0,43,44
 609 1494 609 1494 655 1457.5 c 128,-1,45
 701 1421 701 1421 707 1390 c 0,46,47
 708 1386 708 1386 708 1382 c 0,48,49
 707 1334 707 1334 695.5 1053.5 c 128,-1,50
 684 773 684 773 684 725 c 0,51,52
 684 526 684 526 686 391 c 0,53,54
 686 309 686 309 690 189 c 1,55,56
 746 189 746 189 809.5 187 c 128,-1,57
 873 185 873 185 912.5 184 c 128,-1,58
 952 183 952 183 966 183 c 0,59,60
 1080 183 1080 183 1085 91 c 0,0,1
EndSplineSet
EndChar

StartChar: two
Encoding: 50 50 21
Width: 1116
GlyphClass: 2
Flags: W
LayerCount: 2
Fore
SplineSet
973 -24 m 0,0,1
 872 -24 872 -24 649.5 -32 c 128,-1,2
 427 -40 427 -40 335 -40 c 0,3,4
 231 -40 231 -40 167 -33 c 0,5,6
 139 -30 139 -30 119.5 -13 c 128,-1,7
 100 4 100 4 89 34 c 128,-1,8
 78 64 78 64 73.5 99.5 c 128,-1,9
 69 135 69 135 69 182 c 0,10,11
 69 272 69 272 108 368.5 c 128,-1,12
 147 465 147 465 223.5 554 c 128,-1,13
 300 643 300 643 400 698 c 0,14,15
 621 819 621 819 682 866 c 0,16,17
 762 926 762 926 782 996 c 0,18,19
 792 1035 792 1035 792 1093 c 0,20,21
 792 1180 792 1180 741 1227 c 128,-1,22
 690 1274 690 1274 570 1274 c 0,23,24
 495 1274 495 1274 426 1228 c 128,-1,25
 357 1182 357 1182 318 1123 c 0,26,27
 274 1057 274 1057 224 1057 c 0,28,29
 200 1057 200 1057 158 1076 c 0,30,31
 102 1103 102 1103 102 1163 c 0,32,33
 102 1199 102 1199 124 1240 c 0,34,35
 145 1281 145 1281 186.5 1322 c 128,-1,36
 228 1363 228 1363 284 1398.5 c 128,-1,37
 340 1434 340 1434 413 1456.5 c 128,-1,38
 486 1479 486 1479 561 1479 c 0,39,40
 789 1479 789 1479 908.5 1374 c 128,-1,41
 1028 1269 1028 1269 1028 1063 c 0,42,43
 1028 890 1028 890 934 784 c 0,44,45
 867 708 867 708 700 617 c 0,46,47
 662 596 662 596 564 545 c 0,48,49
 330 422 330 422 308 173 c 1,50,51
 419 167 419 167 520 167 c 0,52,53
 602 167 602 167 676.5 171 c 128,-1,54
 751 175 751 175 820.5 180.5 c 128,-1,55
 890 186 890 186 917 188 c 0,56,57
 921 188 921 188 930 188.5 c 128,-1,58
 939 189 939 189 947.5 189.5 c 128,-1,59
 956 190 956 190 963 190 c 0,60,61
 1047 190 1047 190 1056 121 c 0,62,63
 1058 110 1058 110 1058 100 c 0,64,65
 1058 73 1058 73 1050.5 46.5 c 128,-1,66
 1043 20 1043 20 1023 -2 c 128,-1,67
 1003 -24 1003 -24 973 -24 c 0,0,1
EndSplineSet
EndChar

StartChar: three
Encoding: 51 51 22
Width: 1116
GlyphClass: 2
Flags: W
LayerCount: 2
Fore
SplineSet
1070 414 m 0,0,1
 1070 202 1070 202 935.5 76 c 128,-1,2
 801 -50 801 -50 561 -50 c 0,3,4
 486 -50 486 -50 413 -28 c 128,-1,5
 340 -6 340 -6 284 29.5 c 128,-1,6
 228 65 228 65 186.5 106.5 c 128,-1,7
 145 148 145 148 124 188 c 0,8,9
 104 226 104 226 104 262 c 128,-1,10
 104 298 104 298 120.5 320 c 128,-1,11
 137 342 137 342 158 353 c 0,12,13
 191 367 191 367 218 367 c 0,14,15
 273 367 273 367 317.5 305.5 c 128,-1,16
 362 244 362 244 429 199.5 c 128,-1,17
 496 155 496 155 570 155 c 0,18,19
 685 155 685 155 759.5 218 c 128,-1,20
 834 281 834 281 834 381 c 0,21,22
 834 441 834 441 815.5 485.5 c 128,-1,23
 797 530 797 530 755 564.5 c 128,-1,24
 713 599 713 599 638 617 c 128,-1,25
 563 635 563 635 456 635 c 0,26,27
 406 635 406 635 371.5 673.5 c 128,-1,28
 337 712 337 712 337 760 c 0,29,30
 337 809 337 809 363.5 841 c 128,-1,31
 390 873 390 873 440 873 c 0,32,33
 603 873 603 873 695.5 933 c 128,-1,34
 788 993 788 993 788 1107 c 0,35,36
 788 1108 788 1108 788 1110.5 c 128,-1,37
 788 1113 788 1113 788 1114 c 256,38,39
 788 1115 788 1115 788 1117.5 c 128,-1,40
 788 1120 788 1120 788 1122 c 0,41,42
 788 1274 788 1274 548 1274 c 0,43,44
 517 1274 517 1274 491.5 1266.5 c 128,-1,45
 466 1259 466 1259 449 1250 c 128,-1,46
 432 1241 432 1241 413.5 1222.5 c 128,-1,47
 395 1204 395 1204 385.5 1191.5 c 128,-1,48
 376 1179 376 1179 358 1154 c 0,49,50
 354 1149 354 1149 353 1147 c 0,51,52
 308 1084 308 1084 255 1084 c 0,53,54
 228 1084 228 1084 193 1100 c 0,55,56
 172 1110 172 1110 155.5 1132 c 128,-1,57
 139 1154 139 1154 139 1189.5 c 128,-1,58
 139 1225 139 1225 159 1264 c 0,59,60
 180 1306 180 1306 212 1342.5 c 128,-1,61
 244 1379 244 1379 290 1410.5 c 128,-1,62
 336 1442 336 1442 400 1460.5 c 128,-1,63
 464 1479 464 1479 539 1479 c 0,64,65
 627 1479 627 1479 699 1465.5 c 128,-1,66
 771 1452 771 1452 820.5 1429.5 c 128,-1,67
 870 1407 870 1407 907.5 1375 c 128,-1,68
 945 1343 945 1343 966.5 1309.5 c 128,-1,69
 988 1276 988 1276 1001.5 1236 c 128,-1,70
 1015 1196 1015 1196 1019.5 1162 c 128,-1,71
 1024 1128 1024 1128 1024 1091 c 0,72,73
 1024 1090 1024 1090 1024 1086.5 c 128,-1,74
 1024 1083 1024 1083 1024 1081 c 0,75,76
 1024 1080 1024 1080 1024 1077.5 c 128,-1,77
 1024 1075 1024 1075 1024 1073 c 0,78,79
 1024 1011 1024 1011 1005 960 c 128,-1,80
 986 909 986 909 951.5 874 c 128,-1,81
 917 839 917 839 876.5 815.5 c 128,-1,82
 836 792 836 792 786 777 c 1,83,84
 931 737 931 737 1000.5 653 c 128,-1,85
 1070 569 1070 569 1070 414 c 0,0,1
EndSplineSet
EndChar

StartChar: four
Encoding: 52 52 23
Width: 1116
GlyphClass: 2
Flags: W
LayerCount: 2
Fore
SplineSet
934 125 m 0,0,1
 938 104 938 104 938 81 c 0,2,3
 938 25 938 25 910 -11.5 c 128,-1,4
 882 -48 882 -48 837 -48 c 256,5,6
 792 -48 792 -48 750.5 -14 c 128,-1,7
 709 20 709 20 707 56 c 0,8,9
 707 73 707 73 707 108 c 128,-1,10
 707 143 707 143 707 160 c 2,11,-1
 707 442 l 1,12,13
 665 443 665 443 626 443 c 0,14,15
 333 443 333 443 209 416 c 0,16,17
 194 413 194 413 179 413 c 0,18,19
 121 413 121 413 89 457 c 128,-1,20
 57 501 57 501 57 560 c 0,21,22
 57 593 57 593 68 623 c 0,23,24
 89 681 89 681 179 809.5 c 128,-1,25
 269 938 269 938 412.5 1128.5 c 128,-1,26
 556 1319 556 1319 613 1401 c 0,27,28
 639 1437 639 1437 675.5 1461 c 128,-1,29
 712 1485 712 1485 751 1485 c 0,30,31
 753 1485 753 1485 757.5 1485.5 c 128,-1,32
 762 1486 762 1486 765 1486 c 0,33,34
 808 1486 808 1486 841.5 1464 c 128,-1,35
 875 1442 875 1442 883 1395 c 0,36,37
 895 1326 895 1326 903 1185 c 128,-1,38
 911 1044 911 1044 913 937.5 c 128,-1,39
 915 831 915 831 918 635 c 1,40,41
 947 634 947 634 981 634 c 0,42,43
 1080 634 1080 634 1085 542 c 0,44,45
 1085 484 1085 484 1055 459.5 c 128,-1,46
 1025 435 1025 435 981 435 c 0,47,48
 947 435 947 435 921 437 c 1,49,50
 925 165 925 165 934 125 c 0,0,1
707 640 m 1,51,52
 707 978 707 978 694 1190 c 1,53,54
 429 841 429 841 323 633 c 1,55,56
 430 639 430 639 581 639 c 0,57,58
 596 639 596 639 640 639.5 c 128,-1,59
 684 640 684 640 707 640 c 1,51,52
EndSplineSet
EndChar

StartChar: five
Encoding: 53 53 24
Width: 1116
GlyphClass: 2
Flags: W
LayerCount: 2
Fore
SplineSet
1079 613 m 0,0,1
 1079 461 1079 461 1039.5 337.5 c 128,-1,2
 1000 214 1000 214 929.5 132 c 128,-1,3
 859 50 859 50 760.5 6.5 c 128,-1,4
 662 -37 662 -37 543 -37 c 0,5,6
 451 -37 451 -37 373 -17.5 c 128,-1,7
 295 2 295 2 241.5 35.5 c 128,-1,8
 188 69 188 69 151.5 106 c 128,-1,9
 115 143 115 143 93 186 c 0,10,11
 72 227 72 227 72 263 c 0,12,13
 72 323 72 323 127 350 c 0,14,15
 169 369 169 369 194 369 c 0,16,17
 243 369 243 369 287 303 c 0,18,19
 377 168 377 168 523.5 168 c 128,-1,20
 670 168 670 168 756.5 281.5 c 128,-1,21
 843 395 843 395 843 589 c 0,22,23
 843 628 843 628 837.5 662.5 c 128,-1,24
 832 697 832 697 817 731.5 c 128,-1,25
 802 766 802 766 778.5 790.5 c 128,-1,26
 755 815 755 815 716.5 830 c 128,-1,27
 678 845 678 845 629 845 c 0,28,29
 599 845 599 845 571.5 841.5 c 128,-1,30
 544 838 544 838 523.5 833 c 128,-1,31
 503 828 503 828 481.5 818 c 128,-1,32
 460 808 460 808 447.5 801 c 128,-1,33
 435 794 435 794 417 779.5 c 128,-1,34
 399 765 399 765 391 758 c 128,-1,35
 383 751 383 751 365.5 734 c 128,-1,36
 348 717 348 717 342 711 c 0,37,38
 296 669 296 669 232 669 c 0,39,40
 203 669 203 669 176 680 c 0,41,42
 174 685 174 685 170.5 685.5 c 128,-1,43
 167 686 167 686 166 693 c 0,44,45
 165 702 165 702 139 956 c 128,-1,46
 113 1210 113 1210 109 1250 c 1,47,48
 86 1287 86 1287 86 1334 c 0,49,50
 86 1387 86 1387 114 1423 c 128,-1,51
 142 1459 142 1459 186 1459 c 0,52,53
 262 1459 262 1459 544 1454.5 c 128,-1,54
 826 1450 826 1450 973 1450 c 0,55,56
 1003 1450 1003 1450 1023 1428 c 128,-1,57
 1043 1406 1043 1406 1050.5 1379.5 c 128,-1,58
 1058 1353 1058 1353 1058 1326 c 0,59,60
 1058 1316 1058 1316 1056 1305 c 0,61,62
 1047 1236 1047 1236 963 1236 c 0,63,64
 956 1236 956 1236 947.5 1236.5 c 128,-1,65
 939 1237 939 1237 930 1237.5 c 128,-1,66
 921 1238 921 1238 917 1239 c 0,67,68
 888 1240 888 1240 821.5 1245.5 c 128,-1,69
 755 1251 755 1251 683.5 1255 c 128,-1,70
 612 1259 612 1259 532 1259 c 0,71,72
 433 1259 433 1259 325 1253 c 1,73,74
 324 1232 324 1232 321.5 1175.5 c 128,-1,75
 319 1119 319 1119 317.5 1069 c 128,-1,76
 316 1019 316 1019 316 979 c 0,77,78
 316 955 316 955 317 935 c 1,79,80
 379 991 379 991 472 1025 c 128,-1,81
 565 1059 565 1059 681 1059 c 0,82,83
 775 1059 775 1059 851.5 1024 c 128,-1,84
 928 989 928 989 977 928.5 c 128,-1,85
 1026 868 1026 868 1052.5 787.5 c 128,-1,86
 1079 707 1079 707 1079 613 c 0,0,1
EndSplineSet
EndChar

StartChar: six
Encoding: 54 54 25
Width: 1116
GlyphClass: 2
Flags: W
LayerCount: 2
Fore
SplineSet
1079 511 m 0,0,1
 1079 396 1079 396 1040 293 c 128,-1,2
 1001 190 1001 190 933.5 115.5 c 128,-1,3
 866 41 866 41 772 -2.5 c 128,-1,4
 678 -46 678 -46 572 -46 c 0,5,6
 444 -46 444 -46 346.5 2 c 128,-1,7
 249 50 249 50 187 139.5 c 128,-1,8
 125 229 125 229 94 352.5 c 128,-1,9
 63 476 63 476 63 631 c 0,10,11
 63 640 63 640 63 648 c 0,12,13
 65 825 65 825 99.5 965 c 128,-1,14
 134 1105 134 1105 194 1201.5 c 128,-1,15
 254 1298 254 1298 341.5 1364 c 128,-1,16
 429 1430 429 1430 530 1464.5 c 128,-1,17
 631 1499 631 1499 755 1509 c 0,18,19
 762 1510 762 1510 771 1510 c 0,20,21
 818 1510 818 1510 853.5 1490 c 128,-1,22
 889 1470 889 1470 894 1428 c 0,23,24
 895 1425 895 1425 895 1421 c 0,25,26
 895 1392 895 1392 865.5 1361.5 c 128,-1,27
 836 1331 836 1331 800 1320 c 0,28,29
 777 1313 777 1313 731 1304 c 128,-1,30
 685 1295 685 1295 652.5 1286 c 128,-1,31
 620 1277 620 1277 577 1259.5 c 128,-1,32
 534 1242 534 1242 491 1209 c 128,-1,33
 448 1176 448 1176 406 1129 c 0,34,35
 370 1088 370 1088 338 1019.5 c 128,-1,36
 306 951 306 951 289 884 c 1,37,38
 423 1002 423 1002 655 1002 c 0,39,40
 753 1002 753 1002 829 974.5 c 128,-1,41
 905 947 905 947 961.5 889.5 c 128,-1,42
 1018 832 1018 832 1048.5 736.5 c 128,-1,43
 1079 641 1079 641 1079 511 c 0,0,1
283 480 m 0,44,45
 287 438 287 438 300.5 394 c 128,-1,46
 314 350 314 350 338 307.5 c 128,-1,47
 362 265 362 265 394 232.5 c 128,-1,48
 426 200 426 200 471.5 179.5 c 128,-1,49
 517 159 517 159 568 159 c 0,50,51
 569 159 569 159 571 159 c 128,-1,52
 573 159 573 159 574 159 c 0,53,54
 644 159 644 159 708 208 c 128,-1,55
 772 257 772 257 809.5 333 c 128,-1,56
 847 409 847 409 847 487 c 0,57,58
 847 577 847 577 831.5 636.5 c 128,-1,59
 816 696 816 696 783 729 c 128,-1,60
 750 762 750 762 707.5 775 c 128,-1,61
 665 788 665 788 602 788 c 0,62,63
 505 788 505 788 419 739.5 c 128,-1,64
 333 691 333 691 279 615 c 1,65,66
 279 525 279 525 283 480 c 0,44,45
EndSplineSet
EndChar

StartChar: seven
Encoding: 55 55 26
Width: 1116
GlyphClass: 2
Flags: W
LayerCount: 2
Fore
SplineSet
387 60 m 0,0,1
 364 11 364 11 326.5 -18.5 c 128,-1,2
 289 -48 289 -48 248 -48 c 0,3,4
 236 -48 236 -48 227 -46 c 0,5,6
 190 -38 190 -38 167.5 -10 c 128,-1,7
 145 18 145 18 145 54 c 0,8,9
 145 82 145 82 159 109 c 0,10,11
 261 311 261 311 376.5 509.5 c 128,-1,12
 492 708 492 708 569.5 828 c 128,-1,13
 647 948 647 948 714 1062.5 c 128,-1,14
 781 1177 781 1177 808 1246 c 1,15,16
 714 1248 714 1248 618 1248 c 0,17,18
 278 1248 278 1248 192 1226 c 0,19,20
 180 1223 180 1223 168 1223 c 0,21,22
 137 1223 137 1223 114 1244 c 128,-1,23
 91 1265 91 1265 82 1289.5 c 128,-1,24
 73 1314 73 1314 72 1338 c 0,25,26
 72 1378 72 1378 93.5 1404.5 c 128,-1,27
 115 1431 115 1431 172 1441 c 0,28,29
 175 1442 175 1442 565 1445 c 128,-1,30
 955 1448 955 1448 968 1448 c 0,31,32
 1009 1448 1009 1448 1046.5 1419 c 128,-1,33
 1084 1390 1084 1390 1084 1337 c 0,34,35
 1084 1302 1084 1302 1064 1261 c 0,36,37
 1034 1199 1034 1199 959 1078 c 128,-1,38
 884 957 884 957 803 829.5 c 128,-1,39
 722 702 722 702 606 491.5 c 128,-1,40
 490 281 490 281 387 60 c 0,0,1
EndSplineSet
EndChar

StartChar: eight
Encoding: 56 56 27
Width: 1116
GlyphClass: 2
Flags: W
LayerCount: 2
Fore
SplineSet
1081 424 m 0,0,1
 1081 357 1081 357 1063 291.5 c 128,-1,2
 1045 226 1045 226 1003 162.5 c 128,-1,3
 961 99 961 99 899.5 50.5 c 128,-1,4
 838 2 838 2 743 -27.5 c 128,-1,5
 648 -57 648 -57 532 -57 c 0,6,7
 426 -57 426 -57 340.5 -29 c 128,-1,8
 255 -1 255 -1 200 45 c 128,-1,9
 145 91 145 91 108.5 152.5 c 128,-1,10
 72 214 72 214 56.5 277 c 128,-1,11
 41 340 41 340 41 407 c 0,12,13
 41 475 41 475 73.5 550.5 c 128,-1,14
 106 626 106 626 167 692.5 c 128,-1,15
 228 759 228 759 303 793 c 1,16,17
 205 846 205 846 150.5 925 c 128,-1,18
 96 1004 96 1004 96 1087 c 0,19,20
 96 1113 96 1113 100 1142 c 128,-1,21
 104 1171 104 1171 117 1209.5 c 128,-1,22
 130 1248 130 1248 150 1283 c 128,-1,23
 170 1318 170 1318 205 1353 c 128,-1,24
 240 1388 240 1388 284.5 1413 c 128,-1,25
 329 1438 329 1438 395.5 1454 c 128,-1,26
 462 1470 462 1470 541 1470 c 0,27,28
 622 1470 622 1470 689 1454.5 c 128,-1,29
 756 1439 756 1439 801.5 1414 c 128,-1,30
 847 1389 847 1389 882 1354 c 128,-1,31
 917 1319 917 1319 937 1283.5 c 128,-1,32
 957 1248 957 1248 969.5 1208.5 c 128,-1,33
 982 1169 982 1169 986.5 1138.5 c 128,-1,34
 991 1108 991 1108 991 1079 c 0,35,36
 991 1052 991 1052 983 1026 c 128,-1,37
 975 1000 975 1000 966 980.5 c 128,-1,38
 957 961 957 961 936.5 938 c 128,-1,39
 916 915 916 915 903 902.5 c 128,-1,40
 890 890 890 890 862 869 c 128,-1,41
 834 848 834 848 823.5 840.5 c 128,-1,42
 813 833 813 833 784 814 c 1,43,44
 855 781 855 781 909.5 740 c 128,-1,45
 964 699 964 699 995.5 660 c 128,-1,46
 1027 621 1027 621 1047 576.5 c 128,-1,47
 1067 532 1067 532 1074 496.5 c 128,-1,48
 1081 461 1081 461 1081 424 c 0,0,1
321 1086 m 0,49,50
 321 1026 321 1026 378.5 977 c 128,-1,51
 436 928 436 928 574 877 c 1,52,53
 657 911 657 911 716 967.5 c 128,-1,54
 775 1024 775 1024 775 1066 c 0,55,56
 775 1117 775 1117 745 1169 c 128,-1,57
 715 1221 715 1221 661 1256 c 128,-1,58
 607 1291 607 1291 545 1291 c 2,59,-1
 543 1291 l 1,60,-1
 541 1291 l 2,61,62
 451 1291 451 1291 386 1226.5 c 128,-1,63
 321 1162 321 1162 321 1086 c 0,49,50
541 150 m 0,64,65
 550 150 550 150 551 150 c 0,66,67
 627 150 627 150 696.5 180 c 128,-1,68
 766 210 766 210 812 269 c 128,-1,69
 858 328 858 328 858 402 c 0,70,71
 858 433 858 433 853 461 c 128,-1,72
 848 489 848 489 829.5 525.5 c 128,-1,73
 811 562 811 562 780.5 593.5 c 128,-1,74
 750 625 750 625 694.5 659 c 128,-1,75
 639 693 639 693 564 720 c 1,76,77
 422 682 422 682 336 590.5 c 128,-1,78
 250 499 250 499 250 397 c 0,79,80
 250 326 250 326 293.5 268.5 c 128,-1,81
 337 211 337 211 403 181 c 128,-1,82
 469 151 469 151 541 150 c 0,64,65
EndSplineSet
EndChar

StartChar: nine
Encoding: 57 57 28
Width: 1116
GlyphClass: 2
Flags: W
LayerCount: 2
Fore
SplineSet
334 -46 m 0,0,1
 327 -47 327 -47 318 -47 c 0,2,3
 271 -47 271 -47 235.5 -26.5 c 128,-1,4
 200 -6 200 -6 194 36 c 0,5,6
 194 39 194 39 194 42 c 0,7,8
 194 72 194 72 223.5 102.5 c 128,-1,9
 253 133 253 133 289 144 c 0,10,11
 313 150 313 150 363 160 c 128,-1,12
 413 170 413 170 452.5 180 c 128,-1,13
 492 190 492 190 541 208 c 128,-1,14
 590 226 590 226 635.5 256.5 c 128,-1,15
 681 287 681 287 720 330 c 0,16,17
 801 422 801 422 845 545 c 1,18,19
 786 500 786 500 704.5 483 c 128,-1,20
 623 466 623 466 510 466 c 0,21,22
 416 466 416 466 331 509 c 128,-1,23
 246 552 246 552 187 622 c 128,-1,24
 128 692 128 692 93 784.5 c 128,-1,25
 58 877 58 877 58 974 c 0,26,27
 58 1089 58 1089 97 1189.5 c 128,-1,28
 136 1290 136 1290 203.5 1361 c 128,-1,29
 271 1432 271 1432 365 1473 c 128,-1,30
 459 1514 459 1514 565 1514 c 0,31,32
 736 1514 736 1514 850.5 1427.5 c 128,-1,33
 965 1341 965 1341 1019.5 1181.5 c 128,-1,34
 1074 1022 1074 1022 1074 793 c 0,35,36
 1074 782 1074 782 1074 775 c 0,37,38
 1072 613 1072 613 1033 481 c 128,-1,39
 994 349 994 349 927 257 c 128,-1,40
 860 165 860 165 766 99.5 c 128,-1,41
 672 34 672 34 565 -0.5 c 128,-1,42
 458 -35 458 -35 334 -46 c 0,0,1
290 998 m 0,43,44
 290 946 290 946 297 902.5 c 128,-1,45
 304 859 304 859 323 816.5 c 128,-1,46
 342 774 342 774 372 745 c 128,-1,47
 402 716 402 716 451 698 c 128,-1,48
 500 680 500 680 563 680 c 0,49,50
 649 680 649 680 730 717.5 c 128,-1,51
 811 755 811 755 860 819 c 1,52,53
 861 830 861 830 861 841 c 0,54,55
 861 910 861 910 854 988 c 0,56,57
 850 1030 850 1030 837 1074 c 128,-1,58
 824 1118 824 1118 799.5 1160 c 128,-1,59
 775 1202 775 1202 743 1235 c 128,-1,60
 711 1268 711 1268 665.5 1288.5 c 128,-1,61
 620 1309 620 1309 569 1309 c 0,62,63
 568 1309 568 1309 566 1309 c 128,-1,64
 564 1309 564 1309 563 1309 c 0,65,66
 492 1309 492 1309 428 1263.5 c 128,-1,67
 364 1218 364 1218 327 1146 c 128,-1,68
 290 1074 290 1074 290 998 c 0,43,44
EndSplineSet
EndChar

StartChar: colon
Encoding: 58 58 29
Width: 1116
GlyphClass: 2
Flags: W
LayerCount: 2
Fore
SplineSet
713 840 m 0,0,1
 714 824 714 824 714 807 c 0,2,3
 714 755 714 755 697 690 c 0,4,5
 685 644 685 644 649 620.5 c 128,-1,6
 613 597 613 597 575 597 c 0,7,8
 571 597 571 597 569 597 c 0,9,10
 433 605 433 605 422 705 c 0,11,12
 418 749 418 749 418 782 c 0,13,14
 418 783 418 783 420 850 c 0,15,16
 421 879 421 879 436.5 899.5 c 128,-1,17
 452 920 452 920 475.5 929.5 c 128,-1,18
 499 939 499 939 520 943 c 128,-1,19
 541 947 541 947 561 947 c 0,20,21
 564 947 564 947 567.5 946.5 c 128,-1,22
 571 946 571 946 572 946 c 0,23,24
 593 946 593 946 613.5 941.5 c 128,-1,25
 634 937 634 937 656.5 926 c 128,-1,26
 679 915 679 915 694.5 893 c 128,-1,27
 710 871 710 871 713 840 c 0,0,1
715 325 m 0,28,29
 719 299 719 299 719 269 c 0,30,31
 719 224 719 224 706 172 c 0,32,33
 697 140 697 140 671 118.5 c 128,-1,34
 645 97 645 97 618.5 89 c 128,-1,35
 592 81 592 81 569 81 c 0,36,37
 566 81 566 81 562 81 c 0,38,39
 515 83 515 83 472.5 111.5 c 128,-1,40
 430 140 430 140 424 190 c 0,41,42
 422 218 422 218 422 243 c 0,43,44
 422 261 422 261 424 289.5 c 128,-1,45
 426 318 426 318 427 334 c 0,46,47
 428 363 428 363 442 383 c 128,-1,48
 456 403 456 403 478.5 413 c 128,-1,49
 501 423 501 423 521.5 427 c 128,-1,50
 542 431 542 431 564 431 c 0,51,52
 566 431 566 431 569.5 431 c 128,-1,53
 573 431 573 431 574 431 c 0,54,55
 624 431 624 431 664.5 404.5 c 128,-1,56
 705 378 705 378 715 325 c 0,28,29
EndSplineSet
EndChar

StartChar: semicolon
Encoding: 59 59 30
Width: 1116
GlyphClass: 2
Flags: W
LayerCount: 2
Fore
SplineSet
737 754 m 0,0,1
 738 738 738 738 738 721 c 0,2,3
 738 669 738 669 721 604 c 0,4,5
 709 559 709 559 673 535 c 128,-1,6
 637 511 637 511 599 511 c 0,7,8
 596 511 596 511 593 511 c 0,9,10
 563 513 563 513 532.5 524 c 128,-1,11
 502 535 502 535 476 560.5 c 128,-1,12
 450 586 450 586 446 620 c 0,13,14
 442 664 442 664 442 697 c 2,15,16
 442 697 442 697 444 764 c 0,17,18
 445 794 445 794 460.5 814.5 c 128,-1,19
 476 835 476 835 499.5 844.5 c 128,-1,20
 523 854 523 854 544 857.5 c 128,-1,21
 565 861 565 861 586 861 c 0,22,23
 588 861 588 861 591.5 861 c 128,-1,24
 595 861 595 861 596 861 c 0,25,26
 617 861 617 861 637.5 856.5 c 128,-1,27
 658 852 658 852 680.5 841 c 128,-1,28
 703 830 703 830 718.5 807.5 c 128,-1,29
 734 785 734 785 737 754 c 0,0,1
697 166 m 0,30,31
 696 146 696 146 685.5 98.5 c 128,-1,32
 675 51 675 51 661 -4.5 c 128,-1,33
 647 -60 647 -60 630 -125 c 128,-1,34
 613 -190 613 -190 599.5 -240 c 128,-1,35
 586 -290 586 -290 575 -330 c 128,-1,36
 564 -370 564 -370 563 -372 c 0,37,38
 551 -416 551 -416 518.5 -439 c 128,-1,39
 486 -462 486 -462 448 -462 c 0,40,41
 445 -462 445 -462 442 -462 c 0,42,43
 399 -460 399 -460 362 -434.5 c 128,-1,44
 325 -409 325 -409 325 -361 c 0,45,46
 325 -357 325 -357 326 -351 c 0,47,48
 331 -300 331 -300 369 -111.5 c 128,-1,49
 407 77 407 77 431 182 c 0,50,51
 444 234 444 234 469.5 255 c 128,-1,52
 495 276 495 276 536 276 c 0,53,54
 540 276 540 276 547 275.5 c 128,-1,55
 554 275 554 275 557 275 c 0,56,57
 577 275 577 275 598.5 270.5 c 128,-1,58
 620 266 620 266 643.5 255.5 c 128,-1,59
 667 245 667 245 682.5 224 c 128,-1,60
 698 203 698 203 698 175 c 0,61,62
 698 171 698 171 697 166 c 0,30,31
EndSplineSet
EndChar

StartChar: less
Encoding: 60 60 31
Width: 1116
GlyphClass: 2
Flags: W
LayerCount: 2
Fore
SplineSet
1099 6 m 0,0,1
 1086 -22 1086 -22 1057 -39.5 c 128,-1,2
 1028 -57 1028 -57 986 -57 c 0,3,4
 951 -57 951 -57 911 -12 c 1,5,6
 859 4 859 4 781.5 58.5 c 128,-1,7
 704 113 704 113 617.5 189 c 128,-1,8
 531 265 531 265 444.5 343.5 c 128,-1,9
 358 422 358 422 263 504 c 128,-1,10
 168 586 168 586 100 635 c 0,11,12
 56 667 56 667 56 733 c 0,13,14
 56 764 56 764 68 790.5 c 128,-1,15
 80 817 80 817 103 830 c 0,16,17
 218 913 218 913 375 1041 c 128,-1,18
 532 1169 532 1169 663.5 1272 c 128,-1,19
 795 1375 795 1375 896 1435 c 0,20,21
 936 1459 936 1459 973 1459 c 0,22,23
 996 1459 996 1459 1017 1450 c 128,-1,24
 1038 1441 1038 1441 1051.5 1426 c 128,-1,25
 1065 1411 1065 1411 1072.5 1400 c 128,-1,26
 1080 1389 1080 1389 1086 1378 c 0,27,28
 1096 1357 1096 1357 1096 1339 c 0,29,30
 1096 1306 1096 1306 1067.5 1273.5 c 128,-1,31
 1039 1241 1039 1241 984 1202 c 0,32,33
 872 1124 872 1124 640 943 c 128,-1,34
 408 762 408 762 355 722 c 1,35,36
 433 661 433 661 529 574.5 c 128,-1,37
 625 488 625 488 697 420 c 128,-1,38
 769 352 769 352 852 280.5 c 128,-1,39
 935 209 935 209 999 168 c 0,40,41
 1053 133 1053 133 1080 103 c 128,-1,42
 1107 73 1107 73 1107 40 c 0,43,44
 1107 22 1107 22 1099 6 c 0,0,1
EndSplineSet
EndChar

StartChar: equal
Encoding: 61 61 32
Width: 1116
GlyphClass: 2
Flags: W
LayerCount: 2
Fore
SplineSet
259 1082 m 0,0,1
 377 1078 377 1078 510 1078 c 0,2,3
 599 1078 599 1078 718 1080 c 128,-1,4
 837 1082 837 1082 859 1082 c 0,5,6
 957 1082 957 1082 962 990 c 0,7,8
 962 933 962 933 935.5 908 c 128,-1,9
 909 883 909 883 871 883 c 0,10,11
 864 883 864 883 857 884 c 0,12,13
 832 886 832 886 779 886 c 0,14,15
 712 886 712 886 526 880.5 c 128,-1,16
 340 875 340 875 269 875 c 0,17,18
 211 875 211 875 177.5 904.5 c 128,-1,19
 144 934 144 934 144 976 c 0,20,21
 144 977 144 977 144 979 c 128,-1,22
 144 981 144 981 144 981 c 2,23,24
 144 1022 144 1022 171 1052 c 128,-1,25
 198 1082 198 1082 254 1082 c 0,26,27
 257 1082 257 1082 259 1082 c 0,0,1
265 707 m 2,28,-1
 859 713 l 2,29,30
 957 713 957 713 962 621 c 0,31,32
 962 564 962 564 935.5 539 c 128,-1,33
 909 514 909 514 871 514 c 0,34,35
 865 514 865 514 858 515 c 2,36,-1
 261 506 l 2,37,38
 203 506 203 506 173.5 536.5 c 128,-1,39
 144 567 144 567 144 609 c 0,40,41
 144 610 144 610 144 611.5 c 128,-1,42
 144 613 144 613 144 614 c 0,43,44
 144 654 144 654 174 680.5 c 128,-1,45
 204 707 204 707 259 707 c 0,46,47
 262 707 262 707 265 707 c 2,28,-1
EndSplineSet
EndChar

StartChar: greater
Encoding: 62 62 33
Width: 1116
GlyphClass: 2
Flags: W
LayerCount: 2
Fore
SplineSet
265 -19 m 0,0,1
 225 -43 225 -43 188 -43 c 0,2,3
 165 -43 165 -43 144.5 -33.5 c 128,-1,4
 124 -24 124 -24 110 -9.5 c 128,-1,5
 96 5 96 5 88.5 16 c 128,-1,6
 81 27 81 27 75 38 c 0,7,8
 65 59 65 59 65 77 c 0,9,10
 65 110 65 110 93.5 142.5 c 128,-1,11
 122 175 122 175 177 214 c 0,12,13
 289 292 289 292 521 473 c 128,-1,14
 753 654 753 654 806 694 c 1,15,16
 728 755 728 755 632 841.5 c 128,-1,17
 536 928 536 928 464 996 c 128,-1,18
 392 1064 392 1064 309 1135.5 c 128,-1,19
 226 1207 226 1207 162 1248 c 0,20,21
 108 1283 108 1283 81 1313 c 128,-1,22
 54 1343 54 1343 54 1376 c 0,23,24
 54 1394 54 1394 62 1410 c 0,25,26
 75 1438 75 1438 104 1455.5 c 128,-1,27
 133 1473 133 1473 175 1473 c 0,28,29
 210 1473 210 1473 250 1461 c 0,30,31
 302 1444 302 1444 379.5 1388.5 c 128,-1,32
 457 1333 457 1333 544 1255.5 c 128,-1,33
 631 1178 631 1178 717 1097.5 c 128,-1,34
 803 1017 803 1017 898 933 c 128,-1,35
 993 849 993 849 1061 799 c 0,36,37
 1105 766 1105 766 1105 699 c 0,38,39
 1105 668 1105 668 1093 640.5 c 128,-1,40
 1081 613 1081 613 1058 599 c 0,41,42
 943 515 943 515 786 384.5 c 128,-1,43
 629 254 629 254 498 148.5 c 128,-1,44
 367 43 367 43 265 -19 c 0,0,1
EndSplineSet
EndChar

StartChar: question
Encoding: 63 63 34
Width: 1116
GlyphClass: 2
Flags: W
LayerCount: 2
Fore
SplineSet
667 518 m 0,0,1
 659 468 659 468 633 436 c 128,-1,2
 607 404 607 404 560 404 c 0,3,4
 542 404 542 404 524 409 c 0,5,6
 427 434 427 434 427 525 c 0,7,8
 427 552 427 552 436 586 c 0,9,10
 450 643 450 643 477.5 692.5 c 128,-1,11
 505 742 505 742 537.5 777.5 c 128,-1,12
 570 813 570 813 606 845 c 128,-1,13
 642 877 642 877 674.5 904.5 c 128,-1,14
 707 932 707 932 734 959 c 128,-1,15
 761 986 761 986 776.5 1019 c 128,-1,16
 792 1052 792 1052 792 1088 c 0,17,18
 792 1178 792 1178 741 1226 c 128,-1,19
 690 1274 690 1274 570 1274 c 0,20,21
 538 1274 538 1274 508 1259 c 128,-1,22
 478 1244 478 1244 451 1215.5 c 128,-1,23
 424 1187 424 1187 405 1162.5 c 128,-1,24
 386 1138 386 1138 362 1101 c 0,25,26
 318 1035 318 1035 268 1035 c 0,27,28
 244 1035 244 1035 201 1054 c 0,29,30
 146 1082 146 1082 146 1141 c 0,31,32
 146 1177 146 1177 168 1218 c 0,33,34
 185 1252 185 1252 209 1285 c 128,-1,35
 233 1318 233 1318 270 1354 c 128,-1,36
 307 1390 307 1390 348.5 1417 c 128,-1,37
 390 1444 390 1444 446 1461.5 c 128,-1,38
 502 1479 502 1479 561 1479 c 0,39,40
 789 1479 789 1479 908.5 1371.5 c 128,-1,41
 1028 1264 1028 1264 1028 1053 c 0,42,43
 1028 995 1028 995 1010 948 c 128,-1,44
 992 901 992 901 963 868 c 128,-1,45
 934 835 934 835 898.5 806 c 128,-1,46
 863 777 863 777 825.5 748.5 c 128,-1,47
 788 720 788 720 755.5 689.5 c 128,-1,48
 723 659 723 659 698.5 615 c 128,-1,49
 674 571 674 571 667 518 c 0,0,1
547 -28 m 0,50,51
 538 -29 538 -29 527 -29 c 0,52,53
 452 -29 452 -29 405.5 24.5 c 128,-1,54
 359 78 359 78 359 147.5 c 128,-1,55
 359 217 359 217 416 266 c 128,-1,56
 473 315 473 315 545 319 c 0,57,58
 549 319 549 319 554 319 c 0,59,60
 629 319 629 319 676.5 269.5 c 128,-1,61
 724 220 724 220 724 149.5 c 128,-1,62
 724 79 724 79 675.5 29.5 c 128,-1,63
 627 -20 627 -20 547 -28 c 0,50,51
EndSplineSet
EndChar

StartChar: at
Encoding: 64 64 35
Width: 1116
GlyphClass: 2
Flags: W
LayerCount: 2
Fore
SplineSet
1001 21 m 0,0,1
 984 -22 984 -22 966.5 -54.5 c 128,-1,2
 949 -87 949 -87 913.5 -129 c 128,-1,3
 878 -171 878 -171 833.5 -198.5 c 128,-1,4
 789 -226 789 -226 717.5 -245.5 c 128,-1,5
 646 -265 646 -265 557 -265 c 0,6,7
 555 -265 555 -265 551 -265 c 128,-1,8
 547 -265 547 -265 545 -265 c 0,9,10
 434 -265 434 -265 336 -210.5 c 128,-1,11
 238 -156 238 -156 168 -60.5 c 128,-1,12
 98 35 98 35 57.5 172 c 128,-1,13
 17 309 17 309 17 469 c 0,14,15
 17 647 17 647 45.5 801.5 c 128,-1,16
 74 956 74 956 125.5 1072 c 128,-1,17
 177 1188 177 1188 248 1271 c 128,-1,18
 319 1354 319 1354 406 1396.5 c 128,-1,19
 493 1439 493 1439 589 1439 c 0,20,21
 660 1439 660 1439 717.5 1428.5 c 128,-1,22
 775 1418 775 1418 829 1391.5 c 128,-1,23
 883 1365 883 1365 924.5 1322.5 c 128,-1,24
 966 1280 966 1280 1001 1214.5 c 128,-1,25
 1036 1149 1036 1149 1058 1061.5 c 128,-1,26
 1080 974 1080 974 1092.5 857 c 128,-1,27
 1105 740 1105 740 1105 595 c 0,28,29
 1105 537 1105 537 1099 483.5 c 128,-1,30
 1093 430 1093 430 1077.5 376 c 128,-1,31
 1062 322 1062 322 1038 282 c 128,-1,32
 1014 242 1014 242 974.5 217 c 128,-1,33
 935 192 935 192 885 192 c 0,34,35
 748 192 748 192 712 326 c 1,36,37
 657 225 657 225 541 225 c 0,38,39
 414 225 414 225 341.5 305.5 c 128,-1,40
 269 386 269 386 269 548 c 0,41,42
 269 645 269 645 294.5 723.5 c 128,-1,43
 320 802 320 802 364.5 851.5 c 128,-1,44
 409 901 409 901 466 927.5 c 128,-1,45
 523 954 523 954 587 954 c 0,46,47
 648 954 648 954 707 931 c 0,48,49
 751 914 751 914 781 885 c 128,-1,50
 811 856 811 856 811 827 c 0,51,52
 811 814 811 814 805 803 c 0,53,54
 777 747 777 747 712 747 c 0,55,56
 684 747 684 747 627 762 c 0,57,58
 612 766 612 766 597 766 c 0,59,60
 542 766 542 766 500.5 717.5 c 128,-1,61
 459 669 459 669 459 574 c 0,62,63
 459 549 459 549 462 526 c 128,-1,64
 465 503 465 503 472 477.5 c 128,-1,65
 479 452 479 452 495.5 436.5 c 128,-1,66
 512 421 512 421 535 421 c 0,67,68
 569 421 569 421 590 435.5 c 128,-1,69
 611 450 611 450 625 495 c 128,-1,70
 639 540 639 540 641 623 c 0,71,72
 642 656 642 656 684 680 c 128,-1,73
 726 704 726 704 773 704 c 0,74,75
 804 704 804 704 825.5 690 c 128,-1,76
 847 676 847 676 847 647 c 0,77,78
 847 644 847 644 846 640 c 0,79,80
 839 566 839 566 839 513 c 0,81,82
 839 461 839 461 846 431 c 128,-1,83
 853 401 853 401 862.5 392.5 c 128,-1,84
 872 384 872 384 885 384 c 0,85,86
 888 384 888 384 891 389 c 0,87,88
 908 408 908 408 916 471 c 128,-1,89
 924 534 924 534 924 601 c 0,90,91
 924 701 924 701 915.5 785 c 128,-1,92
 907 869 907 869 893.5 929 c 128,-1,93
 880 989 880 989 859 1037 c 128,-1,94
 838 1085 838 1085 818 1115.5 c 128,-1,95
 798 1146 798 1146 771 1167.5 c 128,-1,96
 744 1189 744 1189 724 1199.5 c 128,-1,97
 704 1210 704 1210 677.5 1216 c 128,-1,98
 651 1222 651 1222 637.5 1222.5 c 128,-1,99
 624 1223 624 1223 605 1223 c 0,100,101
 544 1223 544 1223 488 1193.5 c 128,-1,102
 432 1164 432 1164 384.5 1105 c 128,-1,103
 337 1046 337 1046 301.5 965 c 128,-1,104
 266 884 266 884 246 775 c 128,-1,105
 226 666 226 666 226 542 c 0,106,107
 226 408 226 408 246.5 301.5 c 128,-1,108
 267 195 267 195 300 129 c 128,-1,109
 333 63 333 63 377.5 19.5 c 128,-1,110
 422 -24 422 -24 466 -41 c 128,-1,111
 510 -58 510 -58 556 -58 c 0,112,113
 609 -58 609 -58 651.5 -48.5 c 128,-1,114
 694 -39 694 -39 722 -25 c 128,-1,115
 750 -11 750 -11 774.5 13 c 128,-1,116
 799 37 799 37 813 56 c 128,-1,117
 827 75 827 75 845 105 c 0,118,119
 846 107 846 107 848 111 c 0,120,121
 858 127 858 127 864.5 136.5 c 128,-1,122
 871 146 871 146 882 159 c 128,-1,123
 893 172 893 172 906 178.5 c 128,-1,124
 919 185 919 185 934 185 c 0,125,126
 947 185 947 185 961 180 c 0,127,128
 1019 157 1019 157 1019 99 c 0,129,130
 1019 68 1019 68 1001 21 c 0,0,1
EndSplineSet
EndChar

StartChar: A
Encoding: 65 65 36
Width: 1116
GlyphClass: 2
Flags: W
LayerCount: 2
Fore
SplineSet
228 94 m 2,0,1
 217 58 217 58 200 34.5 c 128,-1,2
 183 11 183 11 164.5 2 c 128,-1,3
 146 -7 146 -7 135.5 -9.5 c 128,-1,4
 125 -12 125 -12 114 -12 c 0,5,6
 92 -12 92 -12 72 -3 c 0,7,8
 11 24 11 24 11 105 c 0,9,10
 11 130 11 130 19 167 c 0,11,12
 34 235 34 235 134 471 c 1,13,14
 100 498 100 498 100 534 c 0,15,16
 100 535 100 535 100 536 c 128,-1,17
 100 537 100 537 100 537 c 2,18,19
 100 567 100 567 128.5 595.5 c 128,-1,20
 157 624 157 624 203 640 c 1,21,22
 453 1211 453 1211 589 1401 c 0,23,24
 620 1444 620 1444 646.5 1464.5 c 128,-1,25
 673 1485 673 1485 707 1485 c 0,26,27
 709 1485 709 1485 713.5 1485.5 c 128,-1,28
 718 1486 718 1486 721 1486 c 0,29,30
 762 1486 762 1486 793.5 1463.5 c 128,-1,31
 825 1441 825 1441 833 1395 c 0,32,33
 875 1149 875 1149 976.5 693.5 c 128,-1,34
 1078 238 1078 238 1116 171 c 0,35,36
 1135 137 1135 137 1135 103 c 0,37,38
 1135 66 1135 66 1114.5 38 c 128,-1,39
 1094 10 1094 10 1065 -3 c 0,40,41
 1045 -12 1045 -12 1022 -12 c 0,42,43
 986 -12 986 -12 954.5 14 c 128,-1,44
 923 40 923 40 903 93 c 0,45,46
 878 156 878 156 803 514 c 1,47,48
 554 503 554 503 358 473 c 1,49,-1
 228 94 l 2,0,1
763 695 m 1,50,-1
 661 1190 l 1,51,52
 576 1042 576 1042 436 670 c 1,53,54
 617 690 617 690 763 695 c 1,50,-1
EndSplineSet
EndChar

StartChar: B
Encoding: 66 66 37
Width: 1116
GlyphClass: 2
Flags: W
LayerCount: 2
Fore
SplineSet
437 -28 m 0,0,1
 399 -31 399 -31 345 -36.5 c 128,-1,2
 291 -42 291 -42 256.5 -45 c 128,-1,3
 222 -48 222 -48 196 -48 c 0,4,5
 167 -48 167 -48 145 -44 c 1,6,-1
 140 -44 l 2,7,8
 96 -44 96 -44 65 -15.5 c 128,-1,9
 34 13 34 13 34 62 c 0,10,11
 34 68 34 68 34 76 c 0,12,13
 39 130 39 130 39 274 c 0,14,15
 39 546 39 546 26 883 c 0,16,17
 22 968 22 968 22 1040 c 0,18,19
 22 1106 22 1106 26 1192.5 c 128,-1,20
 30 1279 30 1279 30 1296 c 0,21,22
 31 1357 31 1357 65 1388.5 c 128,-1,23
 99 1420 99 1420 147 1420 c 2,24,-1
 153 1420 l 1,25,26
 265 1453 265 1453 417 1453 c 0,27,28
 433 1453 433 1453 451.5 1453 c 128,-1,29
 470 1453 470 1453 471 1453 c 0,30,31
 614 1453 614 1453 726.5 1400.5 c 128,-1,32
 839 1348 839 1348 904 1249.5 c 128,-1,33
 969 1151 969 1151 971 1021 c 0,34,35
 971 1019 971 1019 971 1015 c 0,36,37
 971 906 971 906 922.5 825.5 c 128,-1,38
 874 745 874 745 790 701 c 1,39,40
 855 674 855 674 914.5 633 c 128,-1,41
 974 592 974 592 1015.5 539 c 128,-1,42
 1057 486 1057 486 1057 438 c 0,43,44
 1057 437 1057 437 1057 435 c 128,-1,45
 1057 433 1057 433 1057 432 c 0,46,47
 1057 352 1057 352 1014 275 c 128,-1,48
 971 198 971 198 893 135 c 128,-1,49
 815 72 815 72 696.5 28 c 128,-1,50
 578 -16 578 -16 437 -28 c 0,0,1
467 1258 m 0,51,52
 365 1258 365 1258 268 1236 c 1,53,54
 268 1236 268 1236 262.5 1082 c 128,-1,55
 257 928 257 928 257 819 c 0,56,57
 257 803 257 803 257 775 c 1,58,59
 342 772 342 772 423 772 c 0,60,61
 505 772 505 772 566.5 789.5 c 128,-1,62
 628 807 628 807 662 832.5 c 128,-1,63
 696 858 696 858 717 895 c 128,-1,64
 738 932 738 932 744.5 963 c 128,-1,65
 751 994 751 994 751 1030 c 0,66,67
 751 1079 751 1079 731.5 1119 c 128,-1,68
 712 1159 712 1159 682 1184 c 128,-1,69
 652 1209 652 1209 613 1226.5 c 128,-1,70
 574 1244 574 1244 537.5 1251 c 128,-1,71
 501 1258 501 1258 467 1258 c 0,51,52
821 414 m 0,72,73
 821 429 821 429 810 446 c 128,-1,74
 799 463 799 463 771 484 c 128,-1,75
 743 505 743 505 701.5 524.5 c 128,-1,76
 660 544 660 544 592 562.5 c 128,-1,77
 524 581 524 581 439 593 c 1,78,79
 303 593 303 593 262 592 c 1,80,81
 269 302 269 302 274 171 c 1,82,83
 294 172 294 172 340 173 c 128,-1,84
 386 174 386 174 411 174 c 0,85,86
 502 177 502 177 582 203 c 128,-1,87
 662 229 662 229 712.5 265.5 c 128,-1,88
 763 302 763 302 792 341.5 c 128,-1,89
 821 381 821 381 821 414 c 0,72,73
EndSplineSet
EndChar

StartChar: C
Encoding: 67 67 38
Width: 1116
GlyphClass: 2
Flags: W
LayerCount: 2
Fore
SplineSet
1050 137 m 0,0,1
 875 -64 875 -64 515 -64 c 0,2,3
 512 -64 512 -64 506 -64 c 128,-1,4
 500 -64 500 -64 497 -64 c 0,5,6
 410 -64 410 -64 333 -35 c 128,-1,7
 256 -6 256 -6 200.5 42.5 c 128,-1,8
 145 91 145 91 104.5 154.5 c 128,-1,9
 64 218 64 218 43.5 288.5 c 128,-1,10
 23 359 23 359 23 431 c 0,11,12
 23 577 23 577 54 716 c 128,-1,13
 85 855 85 855 138 966.5 c 128,-1,14
 191 1078 191 1078 262 1172 c 128,-1,15
 333 1266 333 1266 412.5 1329 c 128,-1,16
 492 1392 492 1392 577 1426.5 c 128,-1,17
 662 1461 662 1461 743 1461 c 0,18,19
 811 1461 811 1461 870 1447 c 1,20,21
 883 1476 883 1476 908 1494 c 128,-1,22
 933 1512 933 1512 962 1516 c 0,23,24
 971 1517 971 1517 976 1517 c 0,25,26
 1014 1517 1014 1517 1048 1492.5 c 128,-1,27
 1082 1468 1082 1468 1091 1425 c 0,28,29
 1092 1423 1092 1423 1100.5 1304.5 c 128,-1,30
 1109 1186 1109 1186 1109 1182 c 0,31,32
 1109 1131 1109 1131 1073.5 1083 c 128,-1,33
 1038 1035 1038 1035 999 1031 c 0,34,35
 990 1030 990 1030 985 1030 c 0,36,37
 941 1030 941 1030 904 1059.5 c 128,-1,38
 867 1089 867 1089 867 1134 c 0,39,40
 867 1152 867 1152 871 1212 c 1,41,42
 869 1212 869 1212 861 1218 c 128,-1,43
 853 1224 853 1224 850 1226 c 128,-1,44
 847 1228 847 1228 839 1233.5 c 128,-1,45
 831 1239 831 1239 826.5 1241.5 c 128,-1,46
 822 1244 822 1244 814 1248 c 128,-1,47
 806 1252 806 1252 800 1254 c 128,-1,48
 794 1256 794 1256 786.5 1258.5 c 128,-1,49
 779 1261 779 1261 772 1262 c 128,-1,50
 765 1263 765 1263 758 1263 c 0,51,52
 696 1263 696 1263 626 1223 c 128,-1,53
 556 1183 556 1183 491.5 1110 c 128,-1,54
 427 1037 427 1037 374.5 944 c 128,-1,55
 322 851 322 851 290.5 733 c 128,-1,56
 259 615 259 615 259 497 c 0,57,58
 259 411 259 411 294 331.5 c 128,-1,59
 329 252 329 252 390 202 c 128,-1,60
 451 152 451 152 521 152 c 0,61,62
 606 152 606 152 686.5 176 c 128,-1,63
 767 200 767 200 815.5 227 c 128,-1,64
 864 254 864 254 906 287 c 0,65,66
 965 329 965 329 1004 329 c 0,67,68
 1033 329 1033 329 1057 311 c 0,69,70
 1098 281 1098 281 1098 236 c 256,71,72
 1098 191 1098 191 1050 137 c 0,0,1
EndSplineSet
EndChar

StartChar: D
Encoding: 68 68 39
Width: 1116
GlyphClass: 2
Flags: W
LayerCount: 2
Fore
SplineSet
646 -64 m 0,0,1
 642 -64 642 -64 633 -64 c 128,-1,2
 624 -64 624 -64 619 -64 c 0,3,4
 521 -63 521 -63 429.5 -53.5 c 128,-1,5
 338 -44 338 -44 285 -32.5 c 128,-1,6
 232 -21 232 -21 190 -11 c 128,-1,7
 148 -1 148 -1 141 0 c 2,8,-1
 140 0 l 2,9,10
 96 0 96 0 65 28.5 c 128,-1,11
 34 57 34 57 34 106 c 0,12,13
 34 111 34 111 34 120 c 0,14,15
 39 181 39 181 39 332 c 0,16,17
 39 616 39 616 26 991 c 0,18,19
 23 1058 23 1058 23 1111 c 0,20,21
 23 1171 23 1171 26.5 1254.5 c 128,-1,22
 30 1338 30 1338 30 1339 c 0,23,24
 32 1400 32 1400 66 1431.5 c 128,-1,25
 100 1463 100 1463 147 1463 c 0,26,27
 175 1463 175 1463 216 1459 c 128,-1,28
 257 1455 257 1455 324 1441.5 c 128,-1,29
 391 1428 391 1428 460 1407 c 128,-1,30
 529 1386 529 1386 608.5 1347 c 128,-1,31
 688 1308 688 1308 759.5 1257.5 c 128,-1,32
 831 1207 831 1207 898 1131 c 128,-1,33
 965 1055 965 1055 1013.5 963.5 c 128,-1,34
 1062 872 1062 872 1091 747 c 128,-1,35
 1120 622 1120 622 1120 478 c 0,36,37
 1120 407 1120 407 1100 332 c 128,-1,38
 1080 257 1080 257 1039.5 186 c 128,-1,39
 999 115 999 115 944 59.5 c 128,-1,40
 889 4 889 4 811.5 -29.5 c 128,-1,41
 734 -63 734 -63 646 -64 c 0,0,1
259 729 m 0,42,43
 262 645 262 645 266.5 471 c 128,-1,44
 271 297 271 297 274 206 c 1,45,46
 424 144 424 144 644 144 c 0,47,48
 697 144 697 144 744.5 181.5 c 128,-1,49
 792 219 792 219 823.5 277.5 c 128,-1,50
 855 336 855 336 873 405.5 c 128,-1,51
 891 475 891 475 891 540 c 0,52,53
 891 914 891 914 587 1112 c 0,54,55
 476 1184 476 1184 267 1260 c 1,56,-1
 266 1261 l 1,57,-1
 265 1261 l 1,58,-1
 264 1261 l 1,59,-1
 263 1262 l 1,60,-1
 262 1262 l 1,61,-1
 261 1263 l 1,62,-1
 260 1263 l 1,63,-1
 259 1263 l 1,64,-1
 258 1264 l 1,65,-1
 256 1264 l 1,66,67
 254 1155 254 1155 254 1050 c 0,68,69
 254 888 254 888 259 729 c 0,42,43
EndSplineSet
EndChar

StartChar: E
Encoding: 69 69 40
Width: 1116
GlyphClass: 2
Flags: W
LayerCount: 2
Fore
SplineSet
952 -13 m 0,0,1
 940 -12 940 -12 923 -12 c 0,2,3
 879 -12 879 -12 649.5 -26 c 128,-1,4
 420 -40 420 -40 302 -40 c 0,5,6
 240 -40 240 -40 198 -37 c 0,7,8
 144 -33 144 -33 93.5 14 c 128,-1,9
 43 61 43 61 35 126 c 0,10,11
 27 182 27 182 27 304 c 0,12,13
 27 351 27 351 28.5 476.5 c 128,-1,14
 30 602 30 602 30 678 c 0,15,16
 30 824 30 824 26 947 c 0,17,18
 23 1014 23 1014 23 1079 c 0,19,20
 23 1142 23 1142 26.5 1228 c 128,-1,21
 30 1314 30 1314 30 1317 c 0,22,23
 32 1378 32 1378 65.5 1409.5 c 128,-1,24
 99 1441 99 1441 146 1442 c 0,25,26
 147 1442 147 1442 150 1442 c 128,-1,27
 153 1442 153 1442 155 1442 c 0,28,29
 206 1442 206 1442 237 1408 c 1,30,31
 402 1430 402 1430 638 1430 c 0,32,33
 855 1430 855 1430 975 1416 c 0,34,35
 1031 1409 1031 1409 1052.5 1386 c 128,-1,36
 1074 1363 1074 1363 1076 1326 c 0,37,38
 1076 1271 1076 1271 1049.5 1246.5 c 128,-1,39
 1023 1222 1023 1222 985 1222 c 0,40,41
 979 1222 979 1222 971 1223 c 0,42,43
 845 1233 845 1233 695 1233 c 0,44,45
 450 1233 450 1233 265 1210 c 1,46,47
 257 1001 257 1001 256 831 c 1,48,49
 404 833 404 833 655.5 847.5 c 128,-1,50
 907 862 907 862 940 862 c 0,51,52
 1038 862 1038 862 1043 769 c 0,53,54
 1043 712 1043 712 1013.5 687.5 c 128,-1,55
 984 663 984 663 940 663 c 0,56,57
 901 663 901 663 633 644.5 c 128,-1,58
 365 626 365 626 259 624 c 1,59,60
 260 581 260 581 261 495 c 128,-1,61
 262 409 262 409 263 357 c 128,-1,62
 264 305 264 305 267 251 c 128,-1,63
 270 197 270 197 276 176 c 1,64,65
 305 170 305 170 393 170 c 0,66,67
 520 170 520 170 696.5 180.5 c 128,-1,68
 873 191 873 191 922 200 c 0,69,70
 945 205 945 205 966 205 c 0,71,72
 997 205 997 205 1019.5 195 c 128,-1,73
 1042 185 1042 185 1053.5 168 c 128,-1,74
 1065 151 1065 151 1070 134.5 c 128,-1,75
 1075 118 1075 118 1076 100 c 0,76,77
 1076 56 1076 56 1048 21 c 128,-1,78
 1020 -14 1020 -14 965 -14 c 0,79,80
 958 -14 958 -14 952 -13 c 0,0,1
EndSplineSet
EndChar

StartChar: F
Encoding: 70 70 41
Width: 1116
GlyphClass: 2
Flags: W
LayerCount: 2
Fore
SplineSet
277 62 m 1,0,1
 271 14 271 14 232 -15 c 128,-1,2
 193 -44 193 -44 145 -44 c 0,3,4
 144 -44 144 -44 142.5 -44 c 128,-1,5
 141 -44 141 -44 140 -44 c 0,6,7
 95 -44 95 -44 64.5 -15.5 c 128,-1,8
 34 13 34 13 34 62 c 0,9,10
 34 67 34 67 34 76 c 0,11,12
 39 133 39 133 39 285 c 0,13,14
 39 575 39 575 26 926 c 0,15,16
 22 1014 22 1014 22 1083 c 0,17,18
 22 1149 22 1149 26 1235.5 c 128,-1,19
 30 1322 30 1322 30 1339 c 0,20,21
 31 1400 31 1400 65 1431.5 c 128,-1,22
 99 1463 99 1463 146 1463 c 0,23,24
 147 1463 147 1463 150 1463.5 c 128,-1,25
 153 1464 153 1464 155 1464 c 0,26,27
 208 1464 208 1464 239 1429 c 1,28,29
 478 1446 478 1446 709 1446 c 0,30,31
 873 1446 873 1446 974 1437 c 0,32,33
 1030 1432 1030 1432 1052 1408.5 c 128,-1,34
 1074 1385 1074 1385 1076 1347 c 0,35,36
 1076 1304 1076 1304 1049.5 1273 c 128,-1,37
 1023 1242 1023 1242 968 1242 c 0,38,39
 965 1242 965 1242 963 1242 c 0,40,41
 858 1247 858 1247 744 1247 c 0,42,43
 512 1247 512 1247 265 1228 c 1,44,45
 265 1198 265 1198 262.5 1134.5 c 128,-1,46
 260 1071 260 1071 258.5 1008.5 c 128,-1,47
 257 946 257 946 257 882 c 0,48,49
 257 865 257 865 257 842 c 1,50,51
 340 850 340 850 449 850 c 0,52,53
 575 850 575 850 702.5 840 c 128,-1,54
 830 830 830 830 901 818 c 0,55,56
 957 807 957 807 978.5 785 c 128,-1,57
 1000 763 1000 763 1002 726 c 0,58,59
 1002 669 1002 669 975 644 c 128,-1,60
 948 619 948 619 910 619 c 0,61,62
 901 619 901 619 896 619 c 0,63,64
 834 629 834 629 713 637 c 128,-1,65
 592 645 592 645 475 645 c 0,66,67
 347 645 347 645 260 635 c 1,68,69
 275 124 275 124 277 64 c 2,70,-1
 277 63 l 1,71,-1
 277 62 l 1,0,1
EndSplineSet
EndChar

StartChar: G
Encoding: 71 71 42
Width: 1116
GlyphClass: 2
Flags: W
LayerCount: 2
Fore
SplineSet
1057 503 m 2,0,1
 1052 460 1052 460 1031 403 c 128,-1,2
 1010 346 1010 346 976 282 c 128,-1,3
 942 218 942 218 892.5 157 c 128,-1,4
 843 96 843 96 785 46.5 c 128,-1,5
 727 -3 727 -3 653 -33.5 c 128,-1,6
 579 -64 579 -64 502 -64 c 2,7,8
 502 -64 502 -64 500 -64 c 128,-1,9
 498 -64 498 -64 497 -64 c 0,10,11
 410 -64 410 -64 333 -35 c 128,-1,12
 256 -6 256 -6 200.5 42.5 c 128,-1,13
 145 91 145 91 104.5 154.5 c 128,-1,14
 64 218 64 218 43.5 288.5 c 128,-1,15
 23 359 23 359 23 431 c 0,16,17
 23 580 23 580 54 722 c 128,-1,18
 85 864 85 864 138 978 c 128,-1,19
 191 1092 191 1092 262 1188 c 128,-1,20
 333 1284 333 1284 412.5 1348 c 128,-1,21
 492 1412 492 1412 577 1447.5 c 128,-1,22
 662 1483 662 1483 743 1483 c 0,23,24
 829 1483 829 1483 939 1442.5 c 128,-1,25
 1049 1402 1049 1402 1083 1369 c 0,26,27
 1117 1335 1117 1335 1117 1286 c 0,28,29
 1117 1261 1117 1261 1108.5 1236.5 c 128,-1,30
 1100 1212 1100 1212 1075 1196.5 c 128,-1,31
 1050 1181 1050 1181 1022 1181 c 0,32,33
 1003 1181 1003 1181 987 1187 c 0,34,35
 973 1192 973 1192 929 1218.5 c 128,-1,36
 885 1245 885 1245 839 1265 c 128,-1,37
 793 1285 793 1285 758 1285 c 0,38,39
 696 1285 696 1285 626 1244 c 128,-1,40
 556 1203 556 1203 491.5 1128 c 128,-1,41
 427 1053 427 1053 374.5 957 c 128,-1,42
 322 861 322 861 290.5 740 c 128,-1,43
 259 619 259 619 259 497 c 0,44,45
 259 411 259 411 294 331.5 c 128,-1,46
 329 252 329 252 390 202 c 128,-1,47
 451 152 451 152 521 152 c 0,48,49
 575 152 575 152 632 192.5 c 128,-1,50
 689 233 689 233 734.5 296 c 128,-1,51
 780 359 780 359 815 427 c 128,-1,52
 850 495 850 495 870 558 c 1,53,54
 742 551 742 551 630.5 535 c 128,-1,55
 519 519 519 519 476 497 c 0,56,57
 457 487 457 487 437 487 c 0,58,59
 404 487 404 487 379.5 510 c 128,-1,60
 355 533 355 533 350 564 c 0,61,62
 348 574 348 574 348 583 c 0,63,64
 348 656 348 656 438 697 c 0,65,66
 493 724 493 724 652.5 738.5 c 128,-1,67
 812 753 812 753 939 753 c 0,68,69
 976 753 976 753 998 752 c 0,70,71
 1050 749 1050 749 1076 732 c 128,-1,72
 1102 715 1102 715 1109 674 c 0,73,74
 1111 665 1111 665 1111 651 c 0,75,76
 1111 590 1111 590 1064 569 c 1,77,-1
 1057 503 l 2,0,1
EndSplineSet
EndChar

StartChar: H
Encoding: 72 72 43
Width: 1116
GlyphClass: 2
Flags: W
LayerCount: 2
Fore
SplineSet
1043 62 m 1,0,1
 1038 14 1038 14 999 -15 c 128,-1,2
 960 -44 960 -44 912 -44 c 0,3,4
 911 -44 911 -44 909 -44 c 128,-1,5
 907 -44 907 -44 907 -44 c 2,6,7
 862 -44 862 -44 831.5 -15 c 128,-1,8
 801 14 801 14 801 64 c 0,9,10
 801 69 801 69 801 79 c 0,11,12
 819 322 819 322 819 653 c 0,13,14
 819 680 819 680 819 700 c 1,15,16
 793 698 793 698 587.5 669 c 128,-1,17
 382 640 382 640 291 638 c 1,18,19
 291 629 291 629 290 611 c 0,20,21
 283 485 283 485 283 365 c 0,22,23
 283 265 283 265 290 67 c 1,24,-1
 290 66 l 1,25,-1
 290 65 l 1,26,27
 284 15 284 15 245 -14.5 c 128,-1,28
 206 -44 206 -44 158 -44 c 0,29,30
 157 -44 157 -44 155.5 -44 c 128,-1,31
 154 -44 154 -44 153 -44 c 0,32,33
 108 -44 108 -44 77.5 -15.5 c 128,-1,34
 47 13 47 13 47 62 c 0,35,36
 47 69 47 69 48 76 c 0,37,38
 50 103 50 103 51 165 c 128,-1,39
 52 227 52 227 52 332 c 128,-1,40
 52 437 52 437 54 521 c 0,41,42
 55 586 55 586 59 736 c 128,-1,43
 63 886 63 886 63 964 c 0,44,45
 63 1024 63 1024 61 1087 c 0,46,47
 59 1132 59 1132 59 1177 c 0,48,49
 59 1221 59 1221 62 1271.5 c 128,-1,50
 65 1322 65 1322 65 1339 c 0,51,52
 67 1400 67 1400 100.5 1431.5 c 128,-1,53
 134 1463 134 1463 182 1463 c 1,54,55
 182 1463 182 1463 184.5 1463.5 c 128,-1,56
 187 1464 187 1464 188 1464 c 0,57,58
 239 1464 239 1464 271 1432.5 c 128,-1,59
 303 1401 303 1401 303 1342 c 0,60,61
 303 1320 303 1320 297.5 1252.5 c 128,-1,62
 292 1185 292 1185 292 1128 c 0,63,64
 292 1076 292 1076 294.5 972 c 128,-1,65
 297 868 297 868 297 815 c 1,66,67
 395 817 395 817 498.5 827.5 c 128,-1,68
 602 838 602 838 693 851 c 128,-1,69
 784 864 784 864 816 866 c 1,70,71
 816 878 816 878 815.5 901.5 c 128,-1,72
 815 925 815 925 814 937 c 0,73,74
 812 1041 812 1041 812 1074 c 0,75,76
 812 1125 812 1125 813 1172 c 128,-1,77
 814 1219 814 1219 816 1266 c 128,-1,78
 818 1313 818 1313 819 1336 c 0,79,80
 820 1399 820 1399 854 1431 c 128,-1,81
 888 1463 888 1463 935 1463 c 0,82,83
 936 1463 936 1463 938 1463.5 c 128,-1,84
 940 1464 940 1464 941 1464 c 0,85,86
 992 1464 992 1464 1024.5 1433.5 c 128,-1,87
 1057 1403 1057 1403 1057 1345 c 2,88,89
 1057 1345 1057 1345 1056.5 1282.5 c 128,-1,90
 1056 1220 1056 1220 1056 1130.5 c 128,-1,91
 1056 1041 1056 1041 1055.5 951 c 128,-1,92
 1055 861 1055 861 1054.5 795 c 128,-1,93
 1054 729 1054 729 1054 723 c 0,94,95
 1056 675 1056 675 1056 622 c 0,96,97
 1056 515 1056 515 1049.5 339 c 128,-1,98
 1043 163 1043 163 1043 108 c 0,99,100
 1043 84 1043 84 1043 65 c 1,101,-1
 1044 63 l 1,102,-1
 1043 62 l 1,0,1
EndSplineSet
EndChar

StartChar: I
Encoding: 73 73 44
Width: 1116
GlyphClass: 2
Flags: W
LayerCount: 2
Fore
SplineSet
979 -22 m 1,0,-1
 981 -22 l 1,1,2
 972 -22 972 -22 763.5 -23.5 c 128,-1,3
 555 -25 555 -25 351 -26.5 c 128,-1,4
 147 -28 147 -28 147 -28 c 2,5,6
 88 -28 88 -28 57 -4.5 c 128,-1,7
 26 19 26 19 26 59 c 0,8,9
 26 60 26 60 26 62 c 128,-1,10
 26 64 26 64 26 65 c 0,11,12
 26 104 26 104 54.5 132 c 128,-1,13
 83 160 83 160 142 163 c 0,14,15
 222 167 222 167 430 171 c 1,16,17
 443 388 443 388 443 653 c 0,18,19
 443 790 443 790 440 880 c 0,20,21
 436 985 436 985 436 1038 c 0,22,23
 436 1099 436 1099 443 1248 c 1,24,25
 364 1249 364 1249 293 1249 c 0,26,27
 215 1249 215 1249 163 1247 c 0,28,29
 160 1247 160 1247 156 1247 c 0,30,31
 101 1247 101 1247 71 1275 c 128,-1,32
 41 1303 41 1303 41 1344 c 0,33,34
 41 1345 41 1345 41 1346.5 c 128,-1,35
 41 1348 41 1348 41 1349 c 0,36,37
 41 1390 41 1390 71.5 1419.5 c 128,-1,38
 102 1449 102 1449 159 1450 c 0,39,40
 342 1456 342 1456 487 1456 c 0,41,42
 762 1456 762 1456 972 1435 c 0,43,44
 1005 1432 1005 1432 1028 1421 c 128,-1,45
 1051 1410 1051 1410 1061.5 1394 c 128,-1,46
 1072 1378 1072 1378 1076 1365 c 128,-1,47
 1080 1352 1080 1352 1081 1339 c 0,48,49
 1081 1314 1081 1314 1072 1289.5 c 128,-1,50
 1063 1265 1063 1265 1040 1245 c 128,-1,51
 1017 1225 1017 1225 984 1225 c 0,52,53
 975 1225 975 1225 963 1227 c 0,54,55
 906 1236 906 1236 682 1247 c 1,56,57
 677 1029 677 1029 677 965 c 0,58,59
 677 869 677 869 680 768 c 0,60,61
 680 765 680 765 669 179 c 1,62,63
 753 179 753 179 861.5 178 c 128,-1,64
 970 177 970 177 981 177 c 0,65,66
 1080 177 1080 177 1085 84 c 0,67,68
 1085 65 1085 65 1081 47.5 c 128,-1,69
 1077 30 1077 30 1068 13.5 c 128,-1,70
 1059 -3 1059 -3 1041 -13 c 128,-1,71
 1023 -23 1023 -23 999 -23 c 0,72,73
 990 -23 990 -23 979 -22 c 1,0,-1
EndSplineSet
EndChar

StartChar: J
Encoding: 74 74 45
Width: 1116
GlyphClass: 2
Flags: W
LayerCount: 2
Fore
SplineSet
791 444 m 0,0,1
 770 181 770 181 709 54.5 c 128,-1,2
 648 -72 648 -72 535 -72 c 0,3,4
 463 -72 463 -72 395 -46.5 c 128,-1,5
 327 -21 327 -21 275 20 c 128,-1,6
 223 61 223 61 178.5 110.5 c 128,-1,7
 134 160 134 160 104.5 209.5 c 128,-1,8
 75 259 75 259 57.5 299 c 128,-1,9
 40 339 40 339 37 364 c 0,10,11
 34 383 34 383 34 401 c 0,12,13
 34 423 34 423 38.5 443 c 128,-1,14
 43 463 43 463 53 483.5 c 128,-1,15
 63 504 63 504 83 517.5 c 128,-1,16
 103 531 103 531 131 536 c 0,17,18
 143 538 143 538 153 538 c 0,19,20
 198 538 198 538 224 508.5 c 128,-1,21
 250 479 250 479 250 437 c 0,22,23
 250 416 250 416 256.5 386.5 c 128,-1,24
 263 357 263 357 281.5 317.5 c 128,-1,25
 300 278 300 278 327.5 245.5 c 128,-1,26
 355 213 355 213 403 190.5 c 128,-1,27
 451 168 451 168 510 168 c 0,28,29
 514 168 514 168 518 170 c 0,30,31
 540 185 540 185 556.5 264.5 c 128,-1,32
 573 344 573 344 578 499 c 0,33,34
 579 525 579 525 579 551 c 0,35,36
 579 584 579 584 575.5 746.5 c 128,-1,37
 572 909 572 909 572 1051 c 0,38,39
 572 1161 572 1161 573 1251 c 1,40,41
 451 1254 451 1254 326 1254 c 0,42,43
 243 1254 243 1254 184 1252 c 0,44,45
 181 1252 181 1252 178 1252 c 0,46,47
 123 1252 123 1252 93 1279.5 c 128,-1,48
 63 1307 63 1307 63 1347 c 2,49,50
 63 1347 63 1347 63 1349 c 128,-1,51
 63 1351 63 1351 63 1351 c 2,52,53
 63 1391 63 1391 93.5 1420 c 128,-1,54
 124 1449 124 1449 181 1450 c 0,55,56
 364 1456 364 1456 509 1456 c 0,57,58
 784 1456 784 1456 994 1435 c 0,59,60
 1027 1432 1027 1432 1050 1420.5 c 128,-1,61
 1073 1409 1073 1409 1083.5 1393.5 c 128,-1,62
 1094 1378 1094 1378 1098 1365 c 128,-1,63
 1102 1352 1102 1352 1103 1338 c 0,64,65
 1103 1314 1103 1314 1094 1289 c 128,-1,66
 1085 1264 1085 1264 1062 1244 c 128,-1,67
 1039 1224 1039 1224 1006 1224 c 0,68,69
 998 1224 998 1224 985 1226 c 0,70,71
 923 1235 923 1235 783 1242 c 1,72,73
 784 1195 784 1195 791.5 989.5 c 128,-1,74
 799 784 799 784 799 667 c 0,75,76
 799 533 799 533 791 444 c 0,0,1
EndSplineSet
EndChar

StartChar: K
Encoding: 75 75 46
Width: 1116
GlyphClass: 2
Flags: W
LayerCount: 2
Fore
SplineSet
277 65 m 1,0,1
 271 0 271 0 232 -38 c 128,-1,2
 193 -76 193 -76 145 -76 c 0,3,4
 144 -76 144 -76 142.5 -76 c 128,-1,5
 141 -76 141 -76 140 -76 c 0,6,7
 95 -76 95 -76 64.5 -47 c 128,-1,8
 34 -18 34 -18 34 32 c 0,9,10
 34 38 34 38 34 47 c 0,11,12
 39 105 39 105 39 260 c 0,13,14
 39 564 39 564 26 914 c 0,15,16
 22 1003 22 1003 22 1067 c 0,17,18
 22 1136 22 1136 26 1233 c 128,-1,19
 30 1330 30 1330 30 1336 c 0,20,21
 32 1399 32 1399 65.5 1431 c 128,-1,22
 99 1463 99 1463 146 1463 c 0,23,24
 147 1463 147 1463 149.5 1463.5 c 128,-1,25
 152 1464 152 1464 153 1464 c 0,26,27
 203 1464 203 1464 235.5 1432.5 c 128,-1,28
 268 1401 268 1401 268 1342 c 0,29,30
 268 1292 268 1292 263.5 1138.5 c 128,-1,31
 259 985 259 985 257 890 c 1,32,33
 323 953 323 953 470.5 1097.5 c 128,-1,34
 618 1242 618 1242 698 1319 c 128,-1,35
 778 1396 778 1396 802 1418 c 0,36,37
 850 1464 850 1464 896 1464 c 0,38,39
 934 1464 934 1464 962 1434 c 0,40,41
 989 1407 989 1407 989 1371 c 0,42,43
 989 1325 989 1325 946 1274 c 0,44,45
 915 1239 915 1239 735.5 1061.5 c 128,-1,46
 556 884 556 884 408 744 c 1,47,48
 481 670 481 670 647.5 518 c 128,-1,49
 814 366 814 366 931 254 c 128,-1,50
 1048 142 1048 142 1062 109 c 0,51,52
 1070 90 1070 90 1070 69 c 0,53,54
 1070 42 1070 42 1055.5 16.5 c 128,-1,55
 1041 -9 1041 -9 1019 -24 c 1,56,57
 990 -75 990 -75 961 -75 c 0,58,59
 908 -75 908 -75 862 15 c 1,60,61
 841 40 841 40 716 154.5 c 128,-1,62
 591 269 591 269 445 407.5 c 128,-1,63
 299 546 299 546 231 628 c 1,64,-1
 259 638 l 1,65,-1
 259 597 l 2,66,67
 260 565 260 565 277 67 c 1,68,-1
 277 66 l 1,69,-1
 277 65 l 1,0,1
EndSplineSet
EndChar

StartChar: L
Encoding: 76 76 47
Width: 1116
GlyphClass: 2
Flags: W
LayerCount: 2
Fore
SplineSet
980 20 m 0,0,1
 838 -7 838 -7 552.5 -19 c 128,-1,2
 267 -31 267 -31 140 -31 c 0,3,4
 96 -31 96 -31 65 -2.5 c 128,-1,5
 34 26 34 26 34 75 c 0,6,7
 34 80 34 80 34 89 c 0,8,9
 35 103 35 103 58 317 c 128,-1,10
 81 531 81 531 91 730 c 0,11,12
 94 788 94 788 94 890 c 2,13,-1
 89 1321 l 2,14,15
 91 1382 91 1382 124.5 1414 c 128,-1,16
 158 1446 158 1446 206 1446 c 0,17,18
 207 1446 207 1446 209 1446 c 128,-1,19
 211 1446 211 1446 212 1446 c 0,20,21
 263 1446 263 1446 295 1415.5 c 128,-1,22
 327 1385 327 1385 327 1328 c 0,23,24
 327 1270 327 1270 324 1171.5 c 128,-1,25
 321 1073 321 1073 315 917 c 128,-1,26
 309 761 309 761 305 654 c 0,27,28
 302 567 302 567 289.5 414 c 128,-1,29
 277 261 277 261 277 179 c 1,30,31
 279 179 279 179 280 179 c 0,32,33
 454 179 454 179 671 200.5 c 128,-1,34
 888 222 888 222 960 240 c 0,35,36
 973 243 973 243 984 243 c 0,37,38
 1015 243 1015 243 1038 221.5 c 128,-1,39
 1061 200 1061 200 1070.5 175 c 128,-1,40
 1080 150 1080 150 1081 126 c 0,41,42
 1081 85 1081 85 1059 58 c 128,-1,43
 1037 31 1037 31 980 20 c 0,0,1
EndSplineSet
EndChar

StartChar: M
Encoding: 77 77 48
Width: 1116
GlyphClass: 2
Flags: W
LayerCount: 2
Fore
SplineSet
207 137 m 0,0,1
 207 131 207 131 207 125 c 0,2,3
 207 46 207 46 175 -3 c 128,-1,4
 143 -52 143 -52 97 -52 c 0,5,6
 96 -52 96 -52 94 -52 c 0,7,8
 4 -48 4 -48 4 115 c 0,9,10
 4 141 4 141 9.5 201.5 c 128,-1,11
 15 262 15 262 25 357 c 128,-1,12
 35 452 35 452 41 524 c 0,13,14
 43 544 43 544 49.5 629.5 c 128,-1,15
 56 715 56 715 60.5 767.5 c 128,-1,16
 65 820 65 820 73 909 c 128,-1,17
 81 998 81 998 88.5 1058.5 c 128,-1,18
 96 1119 96 1119 104.5 1185 c 128,-1,19
 113 1251 113 1251 122.5 1293 c 128,-1,20
 132 1335 132 1335 141 1354 c 0,21,22
 164 1398 164 1398 206.5 1420 c 128,-1,23
 249 1442 249 1442 291 1442 c 0,24,25
 293 1442 293 1442 297 1442 c 128,-1,26
 301 1442 301 1442 303 1442 c 0,27,28
 406 1441 406 1441 430 1355 c 0,29,30
 443 1306 443 1306 457.5 1223.5 c 128,-1,31
 472 1141 472 1141 487.5 1023.5 c 128,-1,32
 503 906 503 906 514 816.5 c 128,-1,33
 525 727 525 727 542 581.5 c 128,-1,34
 559 436 559 436 566 381 c 1,35,36
 584 603 584 603 600 748 c 0,37,38
 618 920 618 920 650 1090 c 128,-1,39
 682 1260 682 1260 705 1355 c 0,40,41
 714 1388 714 1388 740 1408.5 c 128,-1,42
 766 1429 766 1429 792.5 1435.5 c 128,-1,43
 819 1442 819 1442 847 1442 c 0,44,45
 856 1442 856 1442 864 1442 c 0,46,47
 865 1441 865 1441 883 1431.5 c 128,-1,48
 901 1422 901 1422 936.5 1400.5 c 128,-1,49
 972 1379 972 1379 1006 1356 c 0,50,51
 1012 1351 1012 1351 1013 1344 c 0,52,53
 1022 1282 1022 1282 1061 756.5 c 128,-1,54
 1100 231 1100 231 1115 163 c 0,55,56
 1123 128 1123 128 1123 100 c 0,57,58
 1123 19 1123 19 1062 -7 c 0,59,60
 1042 -16 1042 -16 1020 -16 c 0,61,62
 1010 -16 1010 -16 999.5 -13.5 c 128,-1,63
 989 -11 989 -11 970.5 -2 c 128,-1,64
 952 7 952 7 935 30.5 c 128,-1,65
 918 54 918 54 907 90 c 0,66,67
 867 219 867 219 835 1144 c 1,68,69
 798 931 798 931 785 751 c 0,70,71
 767 521 767 521 735.5 307 c 128,-1,72
 704 93 704 93 683 45 c 0,73,74
 657 -15 657 -15 555 -15 c 0,75,76
 554 -15 554 -15 551.5 -15 c 128,-1,77
 549 -15 549 -15 547 -15 c 0,78,79
 504 -15 504 -15 475 2.5 c 128,-1,80
 446 20 446 20 438 52 c 0,81,82
 392 237 392 237 273 1049 c 1,83,84
 264 948 264 948 237 534 c 0,85,86
 232 452 232 452 224 363.5 c 128,-1,87
 216 275 216 275 211 222.5 c 128,-1,88
 206 170 206 170 206 146 c 0,89,90
 206 141 206 141 207 137 c 0,0,1
EndSplineSet
EndChar

StartChar: N
Encoding: 78 78 49
Width: 1116
GlyphClass: 2
Flags: W
LayerCount: 2
Fore
SplineSet
912 -60 m 0,0,1
 911 -60 911 -60 909 -60.5 c 128,-1,2
 907 -61 907 -61 905 -61 c 0,3,4
 864 -61 864 -61 836.5 -34 c 128,-1,5
 809 -7 809 -7 796 36 c 1,6,7
 778 75 778 75 708.5 198.5 c 128,-1,8
 639 322 639 322 562 456.5 c 128,-1,9
 485 591 485 591 395.5 764.5 c 128,-1,10
 306 938 306 938 251 1069 c 1,11,12
 256 965 256 965 256 837 c 0,13,14
 256 678 256 678 248.5 438 c 128,-1,15
 241 198 241 198 241 156 c 0,16,17
 241 133 241 133 242 118 c 0,18,19
 242 112 242 112 242 106 c 0,20,21
 242 41 242 41 210.5 8.5 c 128,-1,22
 179 -24 179 -24 134 -24 c 0,23,24
 132 -24 132 -24 129 -24 c 0,25,26
 101 -23 101 -23 82.5 -11 c 128,-1,27
 64 1 64 1 55 23.5 c 128,-1,28
 46 46 46 46 42.5 69.5 c 128,-1,29
 39 93 39 93 39 124 c 0,30,31
 39 154 39 154 47 507.5 c 128,-1,32
 55 861 55 861 55 1056 c 0,33,34
 55 1215 55 1215 50 1296 c 0,35,36
 49 1303 49 1303 49 1309 c 0,37,38
 49 1378 49 1378 88.5 1410.5 c 128,-1,39
 128 1443 128 1443 186 1443 c 0,40,41
 191 1443 191 1443 199.5 1442.5 c 128,-1,42
 208 1442 208 1442 211 1442 c 0,43,44
 311 1440 311 1440 337 1356 c 0,45,46
 377 1231 377 1231 552.5 899.5 c 128,-1,47
 728 568 728 568 875 322 c 1,48,49
 878 460 878 460 878 641 c 0,50,51
 878 1156 878 1156 858 1310 c 0,52,53
 857 1320 857 1320 857 1329 c 0,54,55
 857 1379 857 1379 886.5 1411.5 c 128,-1,56
 916 1444 916 1444 960 1444 c 0,57,58
 987 1444 987 1444 1005.5 1438 c 128,-1,59
 1024 1432 1024 1432 1035 1423.5 c 128,-1,60
 1046 1415 1046 1415 1053.5 1396 c 128,-1,61
 1061 1377 1061 1377 1064.5 1362 c 128,-1,62
 1068 1347 1068 1347 1072 1318 c 0,63,64
 1078 1274 1078 1274 1078 905 c 0,65,66
 1078 92 1078 92 1040 0 c 0,67,68
 1013 -60 1013 -60 912 -60 c 0,0,1
EndSplineSet
EndChar

StartChar: O
Encoding: 79 79 50
Width: 1116
GlyphClass: 2
Flags: W
LayerCount: 2
Fore
SplineSet
493 -50 m 0,0,1
 364 -48 364 -48 260.5 26.5 c 128,-1,2
 157 101 157 101 101 225.5 c 128,-1,3
 45 350 45 350 45 498 c 0,4,5
 45 507 45 507 45 508 c 0,6,7
 46 519 46 519 84 831.5 c 128,-1,8
 122 1144 122 1144 124 1158 c 0,9,10
 125 1160 125 1160 125 1162 c 0,11,12
 179 1298 179 1298 312.5 1384 c 128,-1,13
 446 1470 446 1470 613 1470 c 0,14,15
 699 1470 699 1470 776.5 1437.5 c 128,-1,16
 854 1405 854 1405 916 1345.5 c 128,-1,17
 978 1286 978 1286 1019 1193 c 128,-1,18
 1060 1100 1060 1100 1070 986 c 0,19,20
 1079 874 1079 874 1079 733 c 0,21,22
 1079 471 1079 471 1045 347 c 0,23,24
 1019 252 1019 252 979 182 c 128,-1,25
 939 112 939 112 891 67.5 c 128,-1,26
 843 23 843 23 779 -3.5 c 128,-1,27
 715 -30 715 -30 647 -40 c 128,-1,28
 579 -50 579 -50 493 -50 c 0,0,1
493 155 m 0,29,30
 545 155 545 155 593.5 167.5 c 128,-1,31
 642 180 642 180 687 206.5 c 128,-1,32
 732 233 732 233 767.5 279 c 128,-1,33
 803 325 803 325 822 386 c 0,34,35
 830 414 830 414 841 537 c 128,-1,36
 852 660 852 660 852 796 c 0,37,38
 852 897 852 897 845 979 c 0,39,40
 834 1106 834 1106 762 1189 c 128,-1,41
 690 1272 690 1272 589 1272 c 0,42,43
 541 1272 541 1272 499.5 1255 c 128,-1,44
 458 1238 458 1238 429 1211 c 128,-1,45
 400 1184 400 1184 376 1146 c 128,-1,46
 352 1108 352 1108 337 1069 c 128,-1,47
 322 1030 322 1030 311 985 c 0,48,49
 274 834 274 834 274 643 c 0,50,51
 274 593 274 593 277 542 c 0,52,53
 280 462 280 462 292.5 396.5 c 128,-1,54
 305 331 305 331 329 274.5 c 128,-1,55
 353 218 353 218 395 186.5 c 128,-1,56
 437 155 437 155 493 155 c 0,29,30
EndSplineSet
EndChar

StartChar: P
Encoding: 80 80 51
Width: 1116
GlyphClass: 2
Flags: W
LayerCount: 2
Fore
SplineSet
316 64 m 0,0,1
 316 62 316 62 316 60 c 0,2,3
 316 13 316 13 277 -13.5 c 128,-1,4
 238 -40 238 -40 190 -40 c 0,5,6
 186 -40 186 -40 183 -39 c 0,7,8
 138 -37 138 -37 105.5 -11.5 c 128,-1,9
 73 14 73 14 73 63 c 0,10,11
 73 68 73 68 74 76 c 0,12,13
 77 112 77 112 77 198 c 0,14,15
 77 275 77 275 74.5 390 c 128,-1,16
 72 505 72 505 68.5 674 c 128,-1,17
 65 843 65 843 63 930 c 0,18,19
 61 1027 61 1027 61 1075 c 0,20,21
 61 1119 61 1119 65 1269 c 1,22,-1
 64 1270 l 2,23,24
 63 1271 63 1271 62 1272 c 0,25,26
 60 1274 60 1274 59 1275 c 256,27,28
 58 1276 58 1276 56 1279 c 0,29,30
 41 1301 41 1301 41 1325 c 0,31,32
 41 1357 41 1357 63.5 1385.5 c 128,-1,33
 86 1414 86 1414 115 1420 c 0,34,35
 191 1437 191 1437 333.5 1447 c 128,-1,36
 476 1457 476 1457 535 1457 c 0,37,38
 679 1457 679 1457 791.5 1406.5 c 128,-1,39
 904 1356 904 1356 970.5 1254 c 128,-1,40
 1037 1152 1037 1152 1039 1012 c 0,41,42
 1039 897 1039 897 1001 794.5 c 128,-1,43
 963 692 963 692 896 617 c 128,-1,44
 829 542 829 542 731.5 498.5 c 128,-1,45
 634 455 634 455 521 455 c 0,46,47
 376 455 376 455 286 473 c 1,48,49
 290 394 290 394 295.5 322 c 128,-1,50
 301 250 301 250 307.5 172.5 c 128,-1,51
 314 95 314 95 316 64 c 0,0,1
535 1258 m 0,52,53
 469 1258 469 1258 292 1243 c 1,54,55
 291 1205 291 1205 288 1111.5 c 128,-1,56
 285 1018 285 1018 283 921.5 c 128,-1,57
 281 825 281 825 281 733 c 0,58,59
 281 705 281 705 281 679 c 1,60,61
 356 654 356 654 460 654 c 0,62,63
 517 654 517 654 564.5 662.5 c 128,-1,64
 612 671 612 671 646.5 685 c 128,-1,65
 681 699 681 699 708.5 721 c 128,-1,66
 736 743 736 743 754 764.5 c 128,-1,67
 772 786 772 786 784.5 816 c 128,-1,68
 797 846 797 846 803.5 869.5 c 128,-1,69
 810 893 810 893 813.5 925 c 128,-1,70
 817 957 817 957 818 976.5 c 128,-1,71
 819 996 819 996 819 1024 c 0,72,73
 819 1078 819 1078 799 1120.5 c 128,-1,74
 779 1163 779 1163 748.5 1188 c 128,-1,75
 718 1213 718 1213 678.5 1229.5 c 128,-1,76
 639 1246 639 1246 603.5 1252 c 128,-1,77
 568 1258 568 1258 535 1258 c 0,52,53
EndSplineSet
EndChar

StartChar: Q
Encoding: 81 81 52
Width: 1116
GlyphClass: 2
Flags: W
LayerCount: 2
Fore
SplineSet
1041 -418 m 0,0,1
 1016 -434 1016 -434 987 -434 c 0,2,3
 928 -434 928 -434 884 -380 c 0,4,5
 855 -344 855 -344 788.5 -246 c 128,-1,6
 722 -148 722 -148 656 -43 c 1,7,8
 606 -50 606 -50 546 -50 c 0,9,10
 452 -50 452 -50 372 -20.5 c 128,-1,11
 292 9 292 9 234 61 c 128,-1,12
 176 113 176 113 134.5 183.5 c 128,-1,13
 93 254 93 254 71 336 c 128,-1,14
 49 418 49 418 45 508 c 0,15,16
 43 568 43 568 43 619 c 0,17,18
 43 935 43 935 127 1153 c 0,19,20
 182 1291 182 1291 314.5 1380.5 c 128,-1,21
 447 1470 447 1470 613 1470 c 0,22,23
 700 1470 700 1470 775 1441.5 c 128,-1,24
 850 1413 850 1413 912 1356 c 128,-1,25
 974 1299 974 1299 1015.5 1204.5 c 128,-1,26
 1057 1110 1057 1110 1070 985 c 0,27,28
 1082 870 1082 870 1082 715 c 0,29,30
 1082 467 1082 467 1054 335 c 0,31,32
 1010 121 1010 121 860 24 c 1,33,34
 913 -50 913 -50 997 -156 c 128,-1,35
 1081 -262 1081 -262 1082 -264 c 0,36,37
 1097 -283 1097 -283 1097 -311 c 0,38,39
 1097 -341 1097 -341 1079.5 -372.5 c 128,-1,40
 1062 -404 1062 -404 1041 -418 c 0,0,1
277 543 m 0,41,42
 288 373 288 373 363 264 c 128,-1,43
 438 155 438 155 546 155 c 2,44,-1
 567 155 l 1,45,-1
 553 131 l 1,46,47
 503 223 503 223 482 274 c 0,48,49
 463 323 463 323 463 363 c 0,50,51
 463 423 463 423 507 458 c 0,52,53
 533 478 533 478 562 478 c 0,54,55
 619 478 619 478 644 410 c 0,56,57
 677 321 677 321 741 212 c 1,58,59
 813 268 813 268 837 376 c 0,60,61
 843 403 843 403 850.5 509.5 c 128,-1,62
 858 616 858 616 858 731 c 0,63,64
 858 867 858 867 845 978 c 0,65,66
 829 1115 829 1115 760.5 1193.5 c 128,-1,67
 692 1272 692 1272 589 1272 c 0,68,69
 529 1272 529 1272 480 1248 c 128,-1,70
 431 1224 431 1224 398.5 1182 c 128,-1,71
 366 1140 366 1140 344.5 1093 c 128,-1,72
 323 1046 323 1046 309 990 c 0,73,74
 272 838 272 838 272 661 c 0,75,76
 272 607 272 607 277 543 c 0,41,42
EndSplineSet
EndChar

StartChar: R
Encoding: 82 82 53
Width: 1116
GlyphClass: 2
Flags: W
LayerCount: 2
Fore
SplineSet
307 67 m 0,0,1
 307 65 307 65 307 63 c 0,2,3
 307 15 307 15 268 -12.5 c 128,-1,4
 229 -40 229 -40 181 -40 c 0,5,6
 177 -40 177 -40 175 -39 c 0,7,8
 129 -37 129 -37 96.5 -11.5 c 128,-1,9
 64 14 64 14 64 63 c 0,10,11
 64 68 64 68 65 76 c 0,12,13
 75 205 75 205 75 339 c 0,14,15
 75 440 75 440 72 613 c 0,16,17
 71 627 71 627 71 639 c 0,18,19
 71 674 71 674 74.5 759 c 128,-1,20
 78 844 78 844 78 905 c 0,21,22
 78 957 78 957 76 1012 c 0,23,24
 74 1080 74 1080 65 1197 c 128,-1,25
 56 1314 56 1314 56 1338 c 2,26,-1
 56 1348 l 2,27,28
 56 1352 56 1352 56 1355 c 0,29,30
 56 1396 56 1396 87 1426 c 1,31,32
 118 1463 118 1463 173 1463 c 0,33,34
 215 1463 215 1463 242 1446 c 1,35,36
 412 1437 412 1437 553 1401 c 128,-1,37
 694 1365 694 1365 787 1312 c 128,-1,38
 880 1259 880 1259 944.5 1192 c 128,-1,39
 1009 1125 1009 1125 1037 1055.5 c 128,-1,40
 1065 986 1065 986 1065 915.5 c 128,-1,41
 1065 845 1065 845 1039.5 791 c 128,-1,42
 1014 737 1014 737 971 701.5 c 128,-1,43
 928 666 928 666 860 640.5 c 128,-1,44
 792 615 792 615 718.5 601.5 c 128,-1,45
 645 588 645 588 548 579 c 1,46,47
 740 474 740 474 886 342.5 c 128,-1,48
 1032 211 1032 211 1079 116 c 0,49,50
 1088 99 1088 99 1088 76 c 0,51,52
 1088 48 1088 48 1073.5 23 c 128,-1,53
 1059 -2 1059 -2 1036 -17 c 0,54,55
 1007 -36 1007 -36 978 -36 c 0,56,57
 923 -36 923 -36 879 22 c 0,58,59
 848 62 848 62 790.5 122 c 128,-1,60
 733 182 733 182 652.5 255.5 c 128,-1,61
 572 329 572 329 468.5 401.5 c 128,-1,62
 365 474 365 474 267 521 c 1,63,64
 274 412 274 412 289 261 c 128,-1,65
 304 110 304 110 307 67 c 0,0,1
292 1019 m 0,66,67
 292 976 292 976 271 750 c 1,68,69
 291 748 291 748 318 748 c 0,70,71
 337 748 337 748 382 750 c 0,72,73
 466 754 466 754 526.5 759.5 c 128,-1,74
 587 765 587 765 641.5 773.5 c 128,-1,75
 696 782 696 782 732 793.5 c 128,-1,76
 768 805 768 805 794.5 821.5 c 128,-1,77
 821 838 821 838 833 860 c 128,-1,78
 845 882 845 882 845 911 c 0,79,80
 845 961 845 961 808 1009.5 c 128,-1,81
 771 1058 771 1058 712.5 1096 c 128,-1,82
 654 1134 654 1134 578.5 1167 c 128,-1,83
 503 1200 503 1200 429 1222.5 c 128,-1,84
 355 1245 355 1245 284 1258 c 1,85,86
 287 1126 287 1126 292 1019 c 0,66,67
EndSplineSet
EndChar

StartChar: S
Encoding: 83 83 54
Width: 1116
GlyphClass: 2
Flags: W
LayerCount: 2
Fore
SplineSet
56 144 m 0,0,1
 34 186 34 186 34 221 c 0,2,3
 34 281 34 281 90 309 c 0,4,5
 132 327 132 327 156 327 c 0,6,7
 206 327 206 327 250 261 c 0,8,9
 284 210 284 210 345.5 178 c 128,-1,10
 407 146 407 146 486 146 c 0,11,12
 545 146 545 146 609 166.5 c 128,-1,13
 673 187 673 187 729 223 c 128,-1,14
 785 259 785 259 821.5 315 c 128,-1,15
 858 371 858 371 858 434 c 0,16,17
 858 462 858 462 854.5 485 c 128,-1,18
 851 508 851 508 840 535 c 128,-1,19
 829 562 829 562 809.5 583.5 c 128,-1,20
 790 605 790 605 757 627 c 128,-1,21
 724 649 724 649 678.5 666 c 128,-1,22
 633 683 633 683 567 697.5 c 128,-1,23
 501 712 501 712 419 720 c 0,24,25
 343 728 343 728 280.5 759.5 c 128,-1,26
 218 791 218 791 178.5 835.5 c 128,-1,27
 139 880 139 880 117.5 930.5 c 128,-1,28
 96 981 96 981 96 1031 c 0,29,30
 96 1119 96 1119 136.5 1200 c 128,-1,31
 177 1281 177 1281 251.5 1344.5 c 128,-1,32
 326 1408 326 1408 443.5 1445.5 c 128,-1,33
 561 1483 561 1483 703 1483 c 0,34,35
 761 1483 761 1483 858 1473 c 128,-1,36
 955 1463 955 1463 991 1450 c 0,37,38
 1030 1436 1030 1436 1050.5 1406 c 128,-1,39
 1071 1376 1071 1376 1071 1339 c 0,40,41
 1071 1331 1071 1331 1070 1321 c 0,42,43
 1061 1251 1061 1251 983 1251 c 0,44,45
 958 1251 958 1251 927 1259 c 0,46,47
 924 1260 924 1260 909.5 1263.5 c 128,-1,48
 895 1267 895 1267 892 1268 c 128,-1,49
 889 1269 889 1269 875 1272 c 128,-1,50
 861 1275 861 1275 855.5 1276 c 128,-1,51
 850 1277 850 1277 836 1279.5 c 128,-1,52
 822 1282 822 1282 812.5 1283 c 128,-1,53
 803 1284 803 1284 787.5 1285.5 c 128,-1,54
 772 1287 772 1287 757.5 1287.5 c 128,-1,55
 743 1288 743 1288 724.5 1288.5 c 128,-1,56
 706 1289 706 1289 686 1289 c 0,57,58
 594 1289 594 1289 513.5 1262.5 c 128,-1,59
 433 1236 433 1236 383.5 1186.5 c 128,-1,60
 334 1137 334 1137 334 1076 c 0,61,62
 334 1005 334 1005 398.5 956 c 128,-1,63
 463 907 463 907 584 901 c 0,64,65
 701 895 701 895 792 865.5 c 128,-1,66
 883 836 883 836 939 793.5 c 128,-1,67
 995 751 995 751 1031 693.5 c 128,-1,68
 1067 636 1067 636 1080.5 580.5 c 128,-1,69
 1094 525 1094 525 1094 464 c 0,70,71
 1094 369 1094 369 1061 285 c 128,-1,72
 1028 201 1028 201 969.5 139 c 128,-1,73
 911 77 911 77 833.5 32 c 128,-1,74
 756 -13 756 -13 665 -36 c 128,-1,75
 574 -59 574 -59 478 -59 c 0,76,77
 331 -59 331 -59 215.5 0 c 128,-1,78
 100 59 100 59 56 144 c 0,0,1
EndSplineSet
EndChar

StartChar: T
Encoding: 84 84 55
Width: 1116
GlyphClass: 2
Flags: W
LayerCount: 2
Fore
SplineSet
708 80 m 1,0,1
 703 31 703 31 664 2.5 c 128,-1,2
 625 -26 625 -26 577 -26 c 0,3,4
 576 -26 576 -26 574 -26 c 128,-1,5
 572 -26 572 -26 571 -26 c 0,6,7
 527 -26 527 -26 496 2 c 128,-1,8
 465 30 465 30 465 79 c 0,9,10
 465 85 465 85 466 94 c 0,11,12
 469 127 469 127 469 196 c 0,13,14
 469 197 469 197 456.5 727 c 128,-1,15
 444 1257 444 1257 444 1259 c 1,16,-1
 459 1243 l 1,17,18
 192 1256 192 1256 149 1263 c 0,19,20
 30 1281 30 1281 30 1357 c 0,21,22
 30 1358 30 1358 30 1359.5 c 128,-1,23
 30 1361 30 1361 30 1362 c 0,24,25
 30 1401 30 1401 56 1432 c 128,-1,26
 82 1463 82 1463 129 1463 c 0,27,28
 140 1463 140 1463 152 1461 c 0,29,30
 273 1440 273 1440 982 1435 c 0,31,32
 1036 1435 1036 1435 1062.5 1407 c 128,-1,33
 1089 1379 1089 1379 1092 1338 c 0,34,35
 1092 1296 1092 1296 1065 1261 c 128,-1,36
 1038 1226 1038 1226 985 1226 c 0,37,38
 979 1226 979 1226 976 1226 c 0,39,40
 940 1229 940 1229 682 1237 c 1,41,42
 686 819 686 819 708 82 c 1,43,-1
 708 81 l 1,44,-1
 708 80 l 1,0,1
EndSplineSet
EndChar

StartChar: U
Encoding: 85 85 56
Width: 1116
GlyphClass: 2
Flags: W
LayerCount: 2
Fore
SplineSet
1105 535 m 0,0,1
 1102 442 1102 442 1080.5 361.5 c 128,-1,2
 1059 281 1059 281 1025.5 221.5 c 128,-1,3
 992 162 992 162 947 113.5 c 128,-1,4
 902 65 902 65 852.5 33.5 c 128,-1,5
 803 2 803 2 748 -19.5 c 128,-1,6
 693 -41 693 -41 641.5 -50 c 128,-1,7
 590 -59 590 -59 539 -59 c 0,8,9
 476 -59 476 -59 412.5 -42.5 c 128,-1,10
 349 -26 349 -26 283 15 c 128,-1,11
 217 56 217 56 166 117 c 128,-1,12
 115 178 115 178 81 275 c 128,-1,13
 47 372 47 372 43 492 c 0,14,15
 32 889 32 889 32 1094 c 0,16,17
 32 1232 32 1232 37 1324 c 0,18,19
 38 1383 38 1383 73 1418 c 128,-1,20
 108 1453 108 1453 156 1453 c 0,21,22
 201 1453 201 1453 229 1424.5 c 128,-1,23
 257 1396 257 1396 257 1334 c 0,24,25
 257 658 257 658 268 517 c 0,26,27
 271 462 271 462 281.5 414 c 128,-1,28
 292 366 292 366 313.5 318 c 128,-1,29
 335 270 335 270 366 235.5 c 128,-1,30
 397 201 397 201 445.5 180 c 128,-1,31
 494 159 494 159 554 159 c 0,32,33
 694 159 694 159 781 250 c 128,-1,34
 868 341 868 341 880 529 c 0,35,36
 890 678 890 678 890 918 c 0,37,38
 890 1017 890 1017 888.5 1153.5 c 128,-1,39
 887 1290 887 1290 887 1307 c 0,40,41
 887 1347 887 1347 893.5 1375.5 c 128,-1,42
 900 1404 900 1404 910 1419 c 128,-1,43
 920 1434 920 1434 936 1442.5 c 128,-1,44
 952 1451 952 1451 965 1453 c 128,-1,45
 978 1455 978 1455 997 1455 c 0,46,47
 1043 1455 1043 1455 1073 1420.5 c 128,-1,48
 1103 1386 1103 1386 1105 1328 c 0,49,50
 1112 1184 1112 1184 1112 967 c 256,51,52
 1112 750 1112 750 1105 535 c 0,0,1
EndSplineSet
EndChar

StartChar: V
Encoding: 86 86 57
Width: 1116
GlyphClass: 2
Flags: W
LayerCount: 2
Fore
SplineSet
695 35 m 0,0,1
 683 -11 683 -11 653.5 -34 c 128,-1,2
 624 -57 624 -57 583 -57 c 0,3,4
 580 -57 580 -57 575.5 -56.5 c 128,-1,5
 571 -56 571 -56 569 -56 c 0,6,7
 469 -55 469 -55 436 29 c 0,8,9
 350 249 350 249 196 711.5 c 128,-1,10
 42 1174 42 1174 19 1274 c 0,11,12
 11 1310 11 1310 11 1338 c 0,13,14
 11 1421 11 1421 72 1448 c 0,15,16
 93 1456 93 1456 114 1456 c 0,17,18
 125 1456 125 1456 135.5 1453.5 c 128,-1,19
 146 1451 146 1451 164.5 1442 c 128,-1,20
 183 1433 183 1433 200 1409 c 128,-1,21
 217 1385 217 1385 228 1349 c 0,22,23
 493 494 493 494 559 296 c 1,24,-1
 903 1350 l 2,25,26
 921 1403 921 1403 953 1429.5 c 128,-1,27
 985 1456 985 1456 1022 1456 c 0,28,29
 1045 1456 1045 1456 1065 1448 c 0,30,31
 1094 1435 1094 1435 1113 1406.5 c 128,-1,32
 1132 1378 1132 1378 1132 1340 c 0,33,34
 1132 1307 1132 1307 1117 1271 c 0,35,36
 1071 1167 1071 1167 905 688 c 128,-1,37
 739 209 739 209 695 35 c 0,0,1
EndSplineSet
EndChar

StartChar: W
Encoding: 87 87 58
Width: 1116
GlyphClass: 2
Flags: W
LayerCount: 2
Fore
SplineSet
445 33 m 0,0,1
 438 8 438 8 421.5 -10.5 c 128,-1,2
 405 -29 405 -29 383.5 -38 c 128,-1,3
 362 -47 362 -47 342 -51 c 128,-1,4
 322 -55 322 -55 302 -55 c 0,5,6
 292 -55 292 -55 284 -54 c 0,7,8
 283 -54 283 -54 265 -44 c 128,-1,9
 247 -34 247 -34 211.5 -12 c 128,-1,10
 176 10 176 10 142 34 c 0,11,12
 136 38 136 38 135 45 c 2,13,14
 135 45 135 45 114 171 c 128,-1,15
 93 297 93 297 83 396 c 0,16,17
 56 658 56 658 2 1277 c 0,18,19
 0 1291 0 1291 0 1308 c 0,20,21
 0 1422 0 1422 70 1453 c 0,22,23
 89 1462 89 1462 111 1462 c 0,24,25
 151 1462 151 1462 181 1433.5 c 128,-1,26
 211 1405 211 1405 211 1351 c 0,27,28
 211 1349 211 1349 211 1346 c 0,29,30
 211 1342 211 1342 211 1337 c 0,31,32
 211 1203 211 1203 277 476 c 0,33,34
 283 403 283 403 299 273 c 1,35,36
 304 317 304 317 320.5 456 c 128,-1,37
 337 595 337 595 345.5 664 c 128,-1,38
 354 733 354 733 369.5 857 c 128,-1,39
 385 981 385 981 395 1052 c 128,-1,40
 405 1123 405 1123 417.5 1205 c 128,-1,41
 430 1287 430 1287 439.5 1333 c 128,-1,42
 449 1379 449 1379 456 1397 c 0,43,44
 482 1457 482 1457 585 1457 c 0,45,46
 586 1457 586 1457 588.5 1457 c 128,-1,47
 591 1457 591 1457 592 1457 c 0,48,49
 635 1457 635 1457 664 1439.5 c 128,-1,50
 693 1422 693 1422 701 1390 c 0,51,52
 709 1361 709 1361 717.5 1308.5 c 128,-1,53
 726 1256 726 1256 736 1175 c 128,-1,54
 746 1094 746 1094 755 1020 c 128,-1,55
 764 946 764 946 778 826.5 c 128,-1,56
 792 707 792 707 802 623 c 0,57,58
 817 504 817 504 845 336 c 1,59,60
 871 577 871 577 898 995 c 0,61,62
 911 1206 911 1206 911 1278 c 0,63,64
 911 1294 911 1294 911 1304 c 0,65,66
 910 1310 910 1310 910 1316 c 0,67,68
 910 1381 910 1381 942 1421 c 128,-1,69
 974 1461 974 1461 1020 1461 c 0,70,71
 1022 1461 1022 1461 1024 1461 c 0,72,73
 1114 1458 1114 1458 1114 1294 c 0,74,75
 1114 1187 1114 1187 1094 973 c 0,76,77
 1092 954 1092 954 1089 911 c 0,78,79
 1076 758 1076 758 1067 661.5 c 128,-1,80
 1058 565 1058 565 1042 411.5 c 128,-1,81
 1026 258 1026 258 1009 162 c 128,-1,82
 992 66 992 66 976 34 c 0,83,84
 954 -10 954 -10 911.5 -32 c 128,-1,85
 869 -54 869 -54 827 -54 c 0,86,87
 824 -54 824 -54 820 -54 c 128,-1,88
 816 -54 816 -54 814 -54 c 0,89,90
 710 -53 710 -53 688 32 c 0,91,92
 638 222 638 222 608 559 c 0,93,94
 600 649 600 649 585.5 814.5 c 128,-1,95
 571 980 571 980 568 1019 c 1,96,97
 487 193 487 193 445 33 c 0,0,1
EndSplineSet
EndChar

StartChar: X
Encoding: 88 88 59
Width: 1116
GlyphClass: 2
Flags: W
LayerCount: 2
Fore
SplineSet
221 0 m 1,0,1
 179 -81 179 -81 130 -81 c 0,2,3
 91 -81 91 -81 55 -15 c 1,4,5
 18 18 18 18 18 62 c 0,6,7
 18 102 18 102 48 150 c 0,8,9
 65 179 65 179 215.5 403.5 c 128,-1,10
 366 628 366 628 430 735 c 1,11,-1
 83 1246 l 2,12,13
 47 1298 47 1298 47 1342 c 0,14,15
 47 1387 47 1387 84 1417 c 0,16,17
 119 1445 119 1445 163 1445 c 0,18,19
 224 1445 224 1445 271 1385 c 0,20,21
 334 1304 334 1304 580 899 c 1,22,23
 805 1303 805 1303 870 1391 c 0,24,25
 913 1452 913 1452 972 1452 c 0,26,27
 1008 1452 1008 1452 1037 1430 c 0,28,29
 1078 1399 1078 1399 1078 1348 c 0,30,31
 1078 1312 1078 1312 1054 1274 c 0,32,33
 1041 1253 1041 1253 899 1029.5 c 128,-1,34
 757 806 757 806 706 719 c 1,35,-1
 705 718 l 1,36,-1
 704 716 l 2,37,38
 703 716 703 716 703 716 c 1,39,40
 751 641 751 641 880.5 427 c 128,-1,41
 1010 213 1010 213 1053 156 c 0,42,43
 1100 95 1100 95 1100 51 c 0,44,45
 1100 20 1100 20 1077 -5 c 0,46,47
 1044 -44 1044 -44 997 -44 c 0,48,49
 940 -44 940 -44 884 10 c 0,50,51
 846 51 846 51 794 135 c 128,-1,52
 742 219 742 219 662 364 c 128,-1,53
 582 509 582 509 555 554 c 1,54,55
 490 458 490 458 365 242 c 128,-1,56
 240 26 240 26 221 0 c 1,0,1
EndSplineSet
EndChar

StartChar: Y
Encoding: 89 89 60
Width: 1116
GlyphClass: 2
Flags: W
LayerCount: 2
Fore
SplineSet
444 -15 m 1,0,1
 429 -59 429 -59 401 -86 c 128,-1,2
 373 -113 373 -113 343 -113 c 0,3,4
 309 -113 309 -113 279 -58 c 1,5,6
 228 -19 228 -19 228 37 c 0,7,8
 228 67 228 67 244 97 c 2,9,-1
 455 505 l 1,10,11
 416 577 416 577 350.5 689 c 128,-1,12
 285 801 285 801 262 841 c 0,13,14
 234 892 234 892 180.5 979.5 c 128,-1,15
 127 1067 127 1067 92 1131.5 c 128,-1,16
 57 1196 57 1196 33 1260 c 0,17,18
 18 1300 18 1300 18 1335 c 0,19,20
 18 1378 18 1378 38 1404 c 128,-1,21
 58 1430 58 1430 85 1442 c 0,22,23
 110 1455 110 1455 139 1455 c 0,24,25
 179 1455 179 1455 212 1427 c 128,-1,26
 245 1399 245 1399 263 1343 c 0,27,28
 273 1309 273 1309 285 1277 c 128,-1,29
 297 1245 297 1245 312.5 1211 c 128,-1,30
 328 1177 328 1177 339 1153.5 c 128,-1,31
 350 1130 350 1130 370.5 1093.5 c 128,-1,32
 391 1057 391 1057 399.5 1041 c 128,-1,33
 408 1025 408 1025 432 984 c 128,-1,34
 456 943 456 943 463 932 c 0,35,36
 524 826 524 826 571 723 c 1,37,-1
 594 775 l 2,38,39
 623 838 623 838 694.5 981 c 128,-1,40
 766 1124 766 1124 798 1204 c 0,41,42
 808 1229 808 1229 833.5 1279.5 c 128,-1,43
 859 1330 859 1330 870 1357 c 0,44,45
 891 1411 891 1411 923.5 1438 c 128,-1,46
 956 1465 956 1465 995 1465 c 0,47,48
 1021 1465 1021 1465 1041 1455 c 0,49,50
 1069 1442 1069 1442 1090 1412.5 c 128,-1,51
 1111 1383 1111 1383 1111 1342 c 0,52,53
 1111 1308 1111 1308 1095 1270 c 0,54,55
 1083 1244 1083 1244 1052.5 1187 c 128,-1,56
 1022 1130 1022 1130 1007 1094 c 0,57,58
 988 1050 988 1050 930 945.5 c 128,-1,59
 872 841 872 841 841 772 c 0,60,61
 807 699 807 699 757 598 c 128,-1,62
 707 497 707 497 676.5 437 c 128,-1,63
 646 377 646 377 559 208 c 128,-1,64
 472 39 472 39 444 -15 c 1,0,1
EndSplineSet
EndChar

StartChar: Z
Encoding: 90 90 61
Width: 1116
GlyphClass: 2
Flags: W
LayerCount: 2
Fore
SplineSet
1096 91 m 0,0,1
 1096 88 1096 88 1096 84 c 0,2,3
 1096 41 1096 41 1068 11.5 c 128,-1,4
 1040 -18 1040 -18 973 -18 c 0,5,6
 967 -18 967 -18 738 -12.5 c 128,-1,7
 509 -7 509 -7 358 -7 c 0,8,9
 227 -7 227 -7 143 -11 c 0,10,11
 142 -11 142 -11 140 -11 c 0,12,13
 97 -11 97 -11 67 32.5 c 128,-1,14
 37 76 37 76 37 120 c 0,15,16
 37 173 37 173 124 325 c 0,17,18
 187 435 187 435 406 753.5 c 128,-1,19
 625 1072 625 1072 754 1242 c 1,20,21
 660 1240 660 1240 450.5 1238 c 128,-1,22
 241 1236 241 1236 169 1233 c 0,23,24
 167 1232 167 1232 164 1232 c 0,25,26
 114 1232 114 1232 89.5 1262 c 128,-1,27
 65 1292 65 1292 65 1334 c 2,28,29
 65 1334 65 1334 65 1335 c 128,-1,30
 65 1336 65 1336 65 1337 c 0,31,32
 65 1379 65 1379 105.5 1414.5 c 128,-1,33
 146 1450 146 1450 204 1450 c 0,34,35
 251 1450 251 1450 331.5 1438 c 128,-1,36
 412 1426 412 1426 460 1426 c 0,37,38
 466 1426 466 1426 477.5 1426 c 128,-1,39
 489 1426 489 1426 495 1426 c 0,40,41
 578 1426 578 1426 664.5 1430 c 128,-1,42
 751 1434 751 1434 853 1440.5 c 128,-1,43
 955 1447 955 1447 976 1448 c 0,44,45
 978 1448 978 1448 980 1448 c 0,46,47
 1022 1448 1022 1448 1050.5 1412 c 128,-1,48
 1079 1376 1079 1376 1081 1330 c 0,49,50
 1081 1329 1081 1329 1081 1328 c 0,51,52
 1080 1322 1080 1322 1080 1319 c 0,53,54
 1074 1293 1074 1293 1013.5 1227.5 c 128,-1,55
 953 1162 953 1162 938 1139 c 0,56,57
 876 1040 876 1040 748 860.5 c 128,-1,58
 620 681 620 681 499 503.5 c 128,-1,59
 378 326 378 326 301 187 c 1,60,61
 522 200 522 200 705 200 c 0,62,63
 886 200 886 200 980 187 c 0,64,65
 1043 176 1043 176 1068.5 152 c 128,-1,66
 1094 128 1094 128 1096 91 c 0,0,1
EndSplineSet
EndChar

StartChar: bracketleft
Encoding: 91 91 62
Width: 1116
GlyphClass: 2
Flags: W
LayerCount: 2
Fore
SplineSet
870 -175 m 0,0,1
 812 -167 812 -167 729 -167 c 0,2,3
 662 -167 662 -167 523 -174.5 c 128,-1,4
 384 -182 384 -182 322 -182 c 0,5,6
 263 -182 263 -182 232 -158 c 128,-1,7
 201 -134 201 -134 201 -93 c 0,8,9
 201 -72 201 -72 207 -52 c 1,10,-1
 207 -34 l 1,11,12
 213 35 213 35 218.5 231 c 128,-1,13
 224 427 224 427 224 621 c 0,14,15
 224 779 224 779 221 885 c 0,16,17
 217 979 217 979 217 1095 c 0,18,19
 217 1184 217 1184 225 1579 c 1,20,-1
 225 1589 l 1,21,22
 216 1608 216 1608 216 1631 c 2,23,24
 216 1631 216 1631 216 1633 c 128,-1,25
 216 1635 216 1635 216 1635 c 2,26,27
 216 1676 216 1676 247 1704.5 c 128,-1,28
 278 1733 278 1733 335 1735 c 0,29,30
 479 1739 479 1739 583 1739 c 0,31,32
 773 1739 773 1739 861 1742 c 0,33,34
 863 1742 863 1742 866 1742 c 0,35,36
 918 1742 918 1742 943.5 1713.5 c 128,-1,37
 969 1685 969 1685 971 1645 c 0,38,39
 971 1620 971 1620 962 1595.5 c 128,-1,40
 953 1571 953 1571 929.5 1551 c 128,-1,41
 906 1531 906 1531 872 1531 c 0,42,43
 864 1531 864 1531 854 1532 c 0,44,45
 772 1544 772 1544 626 1544 c 0,46,47
 549 1544 549 1544 454 1541 c 0,48,49
 454 1539 454 1539 447 1284 c 128,-1,50
 440 1029 440 1029 440 892 c 0,51,52
 440 825 440 825 441 769 c 0,53,54
 443 688 443 688 443 577 c 2,55,-1
 439 -4 l 1,56,-1
 423 12 l 1,57,58
 424 12 424 12 647.5 17.5 c 128,-1,59
 871 23 871 23 872 23 c 0,60,61
 970 23 970 23 976 -69 c 0,62,63
 976 -88 976 -88 972 -105.5 c 128,-1,64
 968 -123 968 -123 958.5 -140 c 128,-1,65
 949 -157 949 -157 931.5 -167 c 128,-1,66
 914 -177 914 -177 889 -177 c 0,67,68
 881 -177 881 -177 870 -175 c 0,0,1
EndSplineSet
EndChar

StartChar: backslash
Encoding: 92 92 63
Width: 1116
GlyphClass: 2
Flags: W
LayerCount: 2
Fore
SplineSet
643 340 m 0,0,1
 590 441 590 441 344.5 848.5 c 128,-1,2
 99 1256 99 1256 45 1361 c 0,3,4
 26 1399 26 1399 26 1433 c 0,5,6
 26 1471 26 1471 44.5 1495 c 128,-1,7
 63 1519 63 1519 85 1530 c 0,8,9
 111 1543 111 1543 142 1543 c 0,10,11
 160 1543 160 1543 178.5 1538.5 c 128,-1,12
 197 1534 197 1534 221 1516.5 c 128,-1,13
 245 1499 245 1499 260 1469 c 0,14,15
 425 1150 425 1150 542 948 c 0,16,17
 775 537 775 537 1054 91 c 0,18,19
 1081 47 1081 47 1081 -6 c 0,20,21
 1081 -40 1081 -40 1069.5 -69.5 c 128,-1,22
 1058 -99 1058 -99 1036 -112 c 1,23,24
 1012 -157 1012 -157 985 -157 c 0,25,26
 946 -157 946 -157 907 -130.5 c 128,-1,27
 868 -104 868 -104 843 -59 c 0,28,29
 823 -25 823 -25 749.5 126 c 128,-1,30
 676 277 676 277 643 340 c 0,0,1
EndSplineSet
EndChar

StartChar: bracketright
Encoding: 93 93 64
Width: 1116
GlyphClass: 2
Flags: W
LayerCount: 2
Fore
SplineSet
973 -93 m 0,0,1
 973 -134 973 -134 942 -158 c 128,-1,2
 911 -182 911 -182 852 -182 c 2,3,-1
 303 -175 l 2,4,5
 294 -177 294 -177 285 -177 c 0,6,7
 260 -177 260 -177 242.5 -167 c 128,-1,8
 225 -157 225 -157 216 -140 c 128,-1,9
 207 -123 207 -123 203 -105.5 c 128,-1,10
 199 -88 199 -88 199 -69 c 0,11,12
 204 23 204 23 302 23 c 0,13,14
 303 23 303 23 526.5 17.5 c 128,-1,15
 750 12 750 12 751 12 c 1,16,-1
 735 -4 l 1,17,18
 736 20 736 20 736 50 c 0,19,20
 736 111 736 111 733.5 293.5 c 128,-1,21
 731 476 731 476 731 577 c 0,22,23
 731 688 731 688 733 769 c 0,24,25
 735 825 735 825 735 892 c 0,26,27
 735 1028 735 1028 727.5 1284 c 128,-1,28
 720 1540 720 1540 720 1541 c 0,29,30
 617 1544 617 1544 548 1544 c 0,31,32
 402 1544 402 1544 320 1532 c 0,33,34
 310 1531 310 1531 302 1531 c 0,35,36
 268 1531 268 1531 244.5 1551 c 128,-1,37
 221 1571 221 1571 212 1595.5 c 128,-1,38
 203 1620 203 1620 203 1645 c 0,39,40
 205 1685 205 1685 231 1713.5 c 128,-1,41
 257 1742 257 1742 309 1742 c 0,42,43
 311 1742 311 1742 314 1742 c 0,44,45
 408 1739 408 1739 486 1739 c 0,46,47
 488 1739 488 1739 663 1737 c 128,-1,48
 838 1735 838 1735 840 1735 c 0,49,50
 897 1733 897 1733 927.5 1704.5 c 128,-1,51
 958 1676 958 1676 958 1635 c 2,52,53
 958 1635 958 1635 958 1633 c 128,-1,54
 958 1631 958 1631 958 1631 c 2,55,56
 958 1608 958 1608 949 1589 c 1,57,-1
 949 1579 l 1,58,59
 957 1184 957 1184 957 1095 c 0,60,61
 957 979 957 979 954 885 c 0,62,63
 950 779 950 779 950 621 c 0,64,65
 950 427 950 427 955.5 231 c 128,-1,66
 961 35 961 35 967 -34 c 1,67,-1
 967 -52 l 1,68,69
 973 -72 973 -72 973 -93 c 0,0,1
EndSplineSet
EndChar

StartChar: asciicircum
Encoding: 94 94 65
Width: 1116
GlyphClass: 2
Flags: W
LayerCount: 2
Fore
SplineSet
248 1324 m 0,0,1
 242 1315 242 1315 231.5 1299.5 c 128,-1,2
 221 1284 221 1284 215.5 1276 c 128,-1,3
 210 1268 210 1268 201 1255.5 c 128,-1,4
 192 1243 192 1243 186 1236 c 128,-1,5
 180 1229 180 1229 172.5 1220 c 128,-1,6
 165 1211 165 1211 158.5 1206 c 128,-1,7
 152 1201 152 1201 145 1196 c 128,-1,8
 138 1191 138 1191 131 1189 c 128,-1,9
 124 1187 124 1187 117 1187 c 0,10,11
 101 1187 101 1187 87 1226 c 1,12,13
 60 1239 60 1239 35 1268 c 128,-1,14
 10 1297 10 1297 10 1335 c 256,15,16
 10 1373 10 1373 40 1411 c 0,17,18
 81 1462 81 1462 148.5 1534 c 128,-1,19
 216 1606 216 1606 297 1697 c 128,-1,20
 378 1788 378 1788 458 1893 c 0,21,22
 491 1935 491 1935 558 1935 c 0,23,24
 589 1935 589 1935 616 1923.5 c 128,-1,25
 643 1912 643 1912 657 1890 c 0,26,27
 734 1790 734 1790 791 1722.5 c 128,-1,28
 848 1655 848 1655 878 1624 c 128,-1,29
 908 1593 908 1593 967.5 1533.5 c 128,-1,30
 1027 1474 1027 1474 1077 1422 c 0,31,32
 1109 1388 1109 1388 1109 1351 c 0,33,34
 1109 1313 1109 1313 1080.5 1283 c 128,-1,35
 1052 1253 1052 1253 1021 1239 c 0,36,37
 1003 1231 1003 1231 989 1231 c 0,38,39
 983 1231 983 1231 977 1232 c 128,-1,40
 971 1233 971 1233 965.5 1234.5 c 128,-1,41
 960 1236 960 1236 953.5 1240.5 c 128,-1,42
 947 1245 947 1245 942.5 1248 c 128,-1,43
 938 1251 938 1251 930 1258 c 128,-1,44
 922 1265 922 1265 917 1269.5 c 128,-1,45
 912 1274 912 1274 902 1283.5 c 128,-1,46
 892 1293 892 1293 886 1299.5 c 128,-1,47
 880 1306 880 1306 867.5 1318.5 c 128,-1,48
 855 1331 855 1331 847 1339 c 0,49,50
 730 1459 730 1459 683.5 1511.5 c 128,-1,51
 637 1564 637 1564 563 1667 c 1,52,53
 511 1598 511 1598 469.5 1550 c 128,-1,54
 428 1502 428 1502 402.5 1478.5 c 128,-1,55
 377 1455 377 1455 334.5 1413.5 c 128,-1,56
 292 1372 292 1372 248 1324 c 0,0,1
EndSplineSet
EndChar

StartChar: underscore
Encoding: 95 95 66
Width: 1116
GlyphClass: 2
Flags: W
LayerCount: 2
Fore
SplineSet
136 -31 m 2,0,-1
 981 -28 l 2,1,2
 1080 -28 1080 -28 1085 -110 c 0,3,4
 1085 -159 1085 -159 1055 -179 c 128,-1,5
 1025 -199 1025 -199 981 -199 c 0,6,7
 934 -199 934 -199 603.5 -217.5 c 128,-1,8
 273 -236 273 -236 138 -236 c 0,9,10
 35 -236 35 -236 34 -133 c 0,11,12
 34 -131 34 -131 34 -128 c 128,-1,13
 34 -125 34 -125 34 -124 c 0,14,15
 34 -83 34 -83 57.5 -57 c 128,-1,16
 81 -31 81 -31 136 -31 c 2,0,-1
EndSplineSet
EndChar

StartChar: grave
Encoding: 96 96 67
Width: 1116
GlyphClass: 2
Flags: W
LayerCount: 2
Fore
SplineSet
606 1269 m 0,0,1
 597 1274 597 1274 544 1303 c 128,-1,2
 491 1332 491 1332 462.5 1348.5 c 128,-1,3
 434 1365 434 1365 389.5 1393.5 c 128,-1,4
 345 1422 345 1422 314 1446 c 0,5,6
 288 1467 288 1467 274.5 1497 c 128,-1,7
 261 1527 261 1527 261 1557 c 0,8,9
 261 1588 261 1588 273 1607 c 0,10,11
 288 1630 288 1630 317.5 1644 c 128,-1,12
 347 1658 347 1658 378 1658 c 0,13,14
 419 1658 419 1658 448 1635 c 0,15,16
 463 1624 463 1624 506.5 1589 c 128,-1,17
 550 1554 550 1554 575.5 1534 c 128,-1,18
 601 1514 601 1514 638 1488.5 c 128,-1,19
 675 1463 675 1463 704 1448 c 0,20,21
 740 1429 740 1429 764.5 1396 c 128,-1,22
 789 1363 789 1363 789 1328 c 0,23,24
 789 1308 789 1308 778 1290 c 0,25,26
 751 1246 751 1246 689 1246 c 0,27,28
 647 1246 647 1246 606 1269 c 0,0,1
EndSplineSet
EndChar

StartChar: a
Encoding: 97 97 68
Width: 1116
GlyphClass: 2
Flags: W
LayerCount: 2
Fore
SplineSet
968 -81 m 0,0,1
 958 -82 958 -82 950 -82 c 0,2,3
 856 -82 856 -82 826 32 c 1,4,-1
 825 33 l 1,5,6
 823 47 823 47 820.5 62 c 128,-1,7
 818 77 818 77 815 95.5 c 128,-1,8
 812 114 812 114 810 125 c 1,9,10
 681 -64 681 -64 488 -64 c 0,11,12
 415 -62 415 -62 348.5 -34.5 c 128,-1,13
 282 -7 282 -7 234 38 c 128,-1,14
 186 83 186 83 151 139 c 128,-1,15
 116 195 116 195 98 255 c 128,-1,16
 80 315 80 315 80 372 c 0,17,18
 80 484 80 484 97.5 578.5 c 128,-1,19
 115 673 115 673 145.5 743.5 c 128,-1,20
 176 814 176 814 220 869 c 128,-1,21
 264 924 264 924 315 960.5 c 128,-1,22
 366 997 366 997 427 1021 c 128,-1,23
 488 1045 488 1045 549.5 1055 c 128,-1,24
 611 1065 611 1065 679 1065 c 0,25,26
 793 1065 793 1065 873 1025.5 c 128,-1,27
 953 986 953 986 1037 893 c 1,28,-1
 1042 888 l 1,29,-1
 1041 881 l 2,30,31
 1009 634 1009 634 1009 491 c 0,32,33
 1009 304 1009 304 1065 57 c 0,34,35
 1071 33 1071 33 1071 16 c 0,36,37
 1071 -27 1071 -27 1044 -52 c 128,-1,38
 1017 -77 1017 -77 968 -81 c 0,0,1
325 437 m 0,39,40
 325 370 325 370 343.5 306 c 128,-1,41
 362 242 362 242 403 196 c 128,-1,42
 444 150 444 150 497 150 c 0,43,44
 556 150 556 150 614 192.5 c 128,-1,45
 672 235 672 235 713.5 294.5 c 128,-1,46
 755 354 755 354 781 423 c 1,47,48
 782 599 782 599 803 792 c 1,49,50
 762 823 762 823 727 836 c 128,-1,51
 692 849 692 849 633 849 c 0,52,53
 599 849 599 849 560.5 837 c 128,-1,54
 522 825 522 825 479.5 795 c 128,-1,55
 437 765 437 765 403 720.5 c 128,-1,56
 369 676 369 676 347 602 c 128,-1,57
 325 528 325 528 325 437 c 0,39,40
EndSplineSet
EndChar

StartChar: b
Encoding: 98 98 69
Width: 1116
GlyphClass: 2
Flags: W
LayerCount: 2
Fore
SplineSet
1079 564 m 128,-1,1
 1079 562 1079 562 1079 554.5 c 128,-1,2
 1079 547 1079 547 1079 543 c 0,3,4
 1079 435 1079 435 1053 341.5 c 128,-1,5
 1027 248 1027 248 982.5 181 c 128,-1,6
 938 114 938 114 879 66 c 128,-1,7
 820 18 820 18 753.5 -5 c 128,-1,8
 687 -28 687 -28 618 -28 c 0,9,10
 445 -28 445 -28 318 56 c 1,11,12
 300 -18 300 -18 218 -22 c 0,13,14
 214 -22 214 -22 209 -22 c 0,15,16
 191 -22 191 -22 175 -17.5 c 128,-1,17
 159 -13 159 -13 140.5 -1.5 c 128,-1,18
 122 10 122 10 111 37 c 128,-1,19
 100 64 100 64 100 103 c 0,20,21
 99 484 99 484 99 551 c 0,22,23
 99 1218 99 1218 107 1443 c 0,24,25
 107 1515 107 1515 135.5 1543 c 128,-1,26
 164 1571 164 1571 209 1573 c 0,27,28
 220 1574 220 1574 223 1574 c 0,29,30
 269 1574 269 1574 301.5 1544.5 c 128,-1,31
 334 1515 334 1515 334 1448 c 2,32,33
 334 1448 334 1448 334 1446 c 128,-1,34
 334 1444 334 1444 334 1443 c 0,35,36
 334 1424 334 1424 333 1267 c 128,-1,37
 332 1110 332 1110 332 988 c 1,38,39
 461 1067 461 1067 633 1067 c 0,40,41
 770 1065 770 1065 872 1001 c 128,-1,42
 974 937 974 937 1026.5 827 c 128,-1,43
 1079 717 1079 717 1079 575 c 0,44,45
 1079 574 1079 574 1079 570 c 128,-1,0
 1079 566 1079 566 1079 564 c 128,-1,1
587 866 m 0,46,47
 580 866 580 866 574 866 c 0,48,49
 447 866 447 866 329 772 c 1,50,51
 329 528 329 528 325 253 c 1,52,53
 369 212 369 212 426.5 195.5 c 128,-1,54
 484 179 484 179 561 179 c 0,55,56
 699 179 699 179 774 276 c 128,-1,57
 849 373 849 373 849 540 c 0,58,59
 849 545 849 545 849 546 c 0,60,61
 847 632 847 632 817 702.5 c 128,-1,62
 787 773 787 773 727 818 c 128,-1,63
 667 863 667 863 587 866 c 0,46,47
EndSplineSet
EndChar

StartChar: c
Encoding: 99 99 70
Width: 1116
GlyphClass: 2
Flags: W
LayerCount: 2
Fore
SplineSet
1004 803 m 0,0,1
 1012 770 1012 770 1012 744 c 0,2,3
 1012 661 1012 661 930 629 c 0,4,5
 903 618 903 618 876 618 c 0,6,7
 798 618 798 618 767 711 c 0,8,9
 763 722 763 722 756.5 744 c 128,-1,10
 750 766 750 766 746.5 776.5 c 128,-1,11
 743 787 743 787 736 803.5 c 128,-1,12
 729 820 729 820 721 828 c 128,-1,13
 713 836 713 836 700.5 845.5 c 128,-1,14
 688 855 688 855 671.5 858.5 c 128,-1,15
 655 862 655 862 633 862 c 0,16,17
 600 862 600 862 564 851 c 128,-1,18
 528 840 528 840 487.5 810 c 128,-1,19
 447 780 447 780 414.5 735.5 c 128,-1,20
 382 691 382 691 358.5 617 c 128,-1,21
 335 543 335 543 329 451 c 0,22,23
 328 432 328 432 328 413 c 0,24,25
 328 163 328 163 548 152 c 0,26,27
 559 152 559 152 572 152 c 0,28,29
 669 152 669 152 728.5 180.5 c 128,-1,30
 788 209 788 209 800 239 c 0,31,32
 840 337 840 337 915 337 c 0,33,34
 940 337 940 337 968 324 c 0,35,36
 1035 295 1035 295 1035 233 c 0,37,38
 1035 198 1035 198 1013 154 c 0,39,40
 995 115 995 115 958 79 c 128,-1,41
 921 43 921 43 864.5 10 c 128,-1,42
 808 -23 808 -23 723 -43.5 c 128,-1,43
 638 -64 638 -64 538 -64 c 0,44,45
 531 -64 531 -64 523 -64 c 0,46,47
 422 -62 422 -62 338.5 -24.5 c 128,-1,48
 255 13 255 13 201 74.5 c 128,-1,49
 147 136 147 136 118 213.5 c 128,-1,50
 89 291 89 291 89 375 c 0,51,52
 89 378 89 378 89 385 c 0,53,54
 91 523 91 523 124 638.5 c 128,-1,55
 157 754 157 754 212 834.5 c 128,-1,56
 267 915 267 915 342 971 c 128,-1,57
 417 1027 417 1027 501.5 1053.5 c 128,-1,58
 586 1080 586 1080 679 1080 c 0,59,60
 737 1080 737 1080 792 1056.5 c 128,-1,61
 847 1033 847 1033 888.5 994 c 128,-1,62
 930 955 930 955 960 905.5 c 128,-1,63
 990 856 990 856 1004 803 c 0,0,1
EndSplineSet
EndChar

StartChar: d
Encoding: 100 100 71
Width: 1116
GlyphClass: 2
Flags: W
LayerCount: 2
Fore
SplineSet
985 -17 m 0,0,1
 970 -20 970 -20 956 -20 c 0,2,3
 863 -20 863 -20 840 106 c 1,4,5
 732 -28 732 -28 546 -28 c 0,6,7
 476 -28 476 -28 408 -5.5 c 128,-1,8
 340 17 340 17 279 63.5 c 128,-1,9
 218 110 218 110 171 176 c 128,-1,10
 124 242 124 242 96.5 335.5 c 128,-1,11
 69 429 69 429 69 538 c 0,12,13
 69 541 69 541 69 548 c 128,-1,14
 69 555 69 555 69 557 c 128,-1,15
 69 559 69 559 69 562.5 c 128,-1,16
 69 566 69 566 69 567 c 0,17,18
 69 703 69 703 125.5 811 c 128,-1,19
 182 919 182 919 287.5 982 c 128,-1,20
 393 1045 393 1045 530 1047 c 0,21,22
 703 1047 703 1047 830 972 c 1,23,24
 834 1326 834 1326 843 1433 c 0,25,26
 855 1575 855 1575 969 1575 c 0,27,28
 989 1574 989 1574 1004.5 1569 c 128,-1,29
 1020 1564 1020 1564 1036 1552 c 128,-1,30
 1052 1540 1052 1540 1061 1514.5 c 128,-1,31
 1070 1489 1070 1489 1070 1452 c 0,32,33
 1070 1443 1070 1443 1070 1431 c 0,34,35
 1063 1312 1063 1312 1053 990 c 128,-1,36
 1043 668 1043 668 1043 502 c 0,37,38
 1046 397 1046 397 1053.5 317 c 128,-1,39
 1061 237 1061 237 1069 202.5 c 128,-1,40
 1077 168 1077 168 1084 139.5 c 128,-1,41
 1091 111 1091 111 1091 95 c 0,42,43
 1091 87 1091 87 1089 79 c 0,44,45
 1077 1 1077 1 985 -17 c 0,0,1
565 185 m 0,46,47
 568 185 568 185 570 185 c 0,48,49
 613 185 613 185 649 196 c 128,-1,50
 685 207 685 207 708 220.5 c 128,-1,51
 731 234 731 234 754.5 260.5 c 128,-1,52
 778 287 778 287 789 303.5 c 128,-1,53
 800 320 800 320 819 350 c 0,54,55
 822 355 822 355 823 358 c 2,56,-1
 823 501 l 1,57,-1
 823 552 l 2,58,59
 823 574 823 574 824 616.5 c 128,-1,60
 825 659 825 659 825 679 c 1,61,62
 781 747 781 747 713 791.5 c 128,-1,63
 645 836 645 836 570 836 c 0,64,65
 565 836 565 836 561 836 c 0,66,67
 481 833 481 833 421 790.5 c 128,-1,68
 361 748 361 748 331 683 c 128,-1,69
 301 618 301 618 299 539 c 0,70,71
 299 538 299 538 299 532 c 0,72,73
 299 368 299 368 367.5 276.5 c 128,-1,74
 436 185 436 185 561 185 c 0,75,76
 563 185 563 185 565 185 c 0,46,47
EndSplineSet
EndChar

StartChar: e
Encoding: 101 101 72
Width: 1116
GlyphClass: 2
Flags: W
LayerCount: 2
Fore
SplineSet
1018 129 m 0,0,1
 987 86 987 86 952 55 c 128,-1,2
 917 24 917 24 864 -3 c 128,-1,3
 811 -30 811 -30 735 -43.5 c 128,-1,4
 659 -57 659 -57 559 -57 c 0,5,6
 548 -57 548 -57 536 -57 c 0,7,8
 328 -54 328 -54 210.5 87 c 128,-1,9
 93 228 93 228 93 474 c 0,10,11
 93 482 93 482 94 487 c 0,12,13
 96 623 96 623 138 733.5 c 128,-1,14
 180 844 180 844 253 916.5 c 128,-1,15
 326 989 326 989 423.5 1028 c 128,-1,16
 521 1067 521 1067 635 1067 c 0,17,18
 703 1067 703 1067 781.5 1031.5 c 128,-1,19
 860 996 860 996 928 931 c 128,-1,20
 996 866 996 866 1023 790 c 1,21,-1
 1023 789 l 1,22,-1
 1023 788 l 2,23,24
 1026 776 1026 776 1026 764 c 0,25,26
 1026 713 1026 713 988 659.5 c 128,-1,27
 950 606 950 606 910 577 c 0,28,29
 872 550 872 550 818.5 523 c 128,-1,30
 765 496 765 496 688.5 466.5 c 128,-1,31
 612 437 612 437 570 421.5 c 128,-1,32
 528 406 528 406 435 374.5 c 128,-1,33
 342 343 342 343 333 340 c 1,34,35
 351 247 351 247 402.5 196 c 128,-1,36
 454 145 454 145 548 142 c 0,37,38
 555 141 555 141 562 141 c 0,39,40
 612 141 612 141 661 156.5 c 128,-1,41
 710 172 710 172 743.5 193 c 128,-1,42
 777 214 777 214 797.5 230.5 c 128,-1,43
 818 247 818 247 824 256 c 0,44,45
 882 333 882 333 941 333 c 0,46,47
 973 333 973 333 1004 312 c 0,48,49
 1056 276 1056 276 1056 224 c 0,50,51
 1056 181 1056 181 1018 129 c 0,0,1
592 875 m 0,52,53
 560 875 560 875 527.5 864.5 c 128,-1,54
 495 854 495 854 461.5 829 c 128,-1,55
 428 804 428 804 400.5 767.5 c 128,-1,56
 373 731 373 731 353 675 c 128,-1,57
 333 619 333 619 327 550 c 1,58,59
 678 639 678 639 786 728 c 1,60,61
 743 810 743 810 696.5 842.5 c 128,-1,62
 650 875 650 875 592 875 c 0,52,53
EndSplineSet
EndChar

StartChar: f
Encoding: 102 102 73
Width: 1116
GlyphClass: 2
Flags: W
LayerCount: 2
Fore
SplineSet
813 -33 m 0,0,1
 799 -33 799 -33 688.5 -34.5 c 128,-1,2
 578 -36 578 -36 501 -36 c 0,3,4
 319 -36 319 -36 227 -28 c 1,5,6
 167 -27 167 -27 139 4 c 128,-1,7
 111 35 111 35 111 78 c 0,8,9
 111 79 111 79 111 81 c 128,-1,10
 111 83 111 83 111 84 c 0,11,12
 111 130 111 130 139 159 c 128,-1,13
 167 188 167 188 224 188 c 0,14,15
 229 188 229 188 231 188 c 0,16,17
 252 187 252 187 292 186 c 128,-1,18
 332 185 332 185 348 184 c 1,19,20
 349 189 349 189 349 193 c 0,21,22
 349 207 349 207 344 237.5 c 128,-1,23
 339 268 339 268 339 312 c 0,24,25
 339 347 339 347 335.5 417 c 128,-1,26
 332 487 332 487 324.5 609 c 128,-1,27
 317 731 317 731 313 795 c 1,28,29
 282 794 282 794 228 794 c 0,30,31
 124 794 124 794 124 897 c 0,32,33
 124 899 124 899 124 902 c 128,-1,34
 124 905 124 905 124 906 c 0,35,36
 124 959 124 959 153 981 c 128,-1,37
 182 1003 182 1003 226 1003 c 2,38,-1
 307 1003 l 1,39,40
 306 1031 306 1031 306 1082 c 0,41,42
 306 1183 306 1183 338 1265.5 c 128,-1,43
 370 1348 370 1348 424.5 1403 c 128,-1,44
 479 1458 479 1458 555 1495.5 c 128,-1,45
 631 1533 631 1533 716 1549.5 c 128,-1,46
 801 1566 801 1566 896 1566 c 0,47,48
 946 1566 946 1566 978.5 1541 c 128,-1,49
 1011 1516 1011 1516 1011 1469.5 c 128,-1,50
 1011 1423 1011 1423 985 1390 c 128,-1,51
 959 1357 959 1357 918 1357 c 0,52,53
 743 1357 743 1357 637 1276 c 128,-1,54
 531 1195 531 1195 531 1062 c 0,55,56
 531 1027 531 1027 532 1006 c 1,57,58
 839 1010 839 1010 883 1010 c 0,59,60
 981 1010 981 1010 987 918 c 0,61,62
 987 860 987 860 957 835.5 c 128,-1,63
 927 811 927 811 883 811 c 0,64,65
 861 811 861 811 810.5 809.5 c 128,-1,66
 760 808 760 808 678 805.5 c 128,-1,67
 596 803 596 803 540 801 c 1,68,69
 542 757 542 757 551 556.5 c 128,-1,70
 560 356 560 356 564 251 c 0,71,72
 566 176 566 176 567 171 c 1,73,74
 734 165 734 165 817 165 c 0,75,76
 877 165 877 165 905.5 139 c 128,-1,77
 934 113 934 113 934 73 c 0,78,79
 934 30 934 30 904 -1.5 c 128,-1,80
 874 -33 874 -33 813 -33 c 0,0,1
EndSplineSet
EndChar

StartChar: g
Encoding: 103 103 74
Width: 1116
GlyphClass: 2
Flags: W
LayerCount: 2
Fore
SplineSet
1011 -71 m 0,0,1
 1001 -175 1001 -175 964 -262.5 c 128,-1,2
 927 -350 927 -350 871 -411 c 128,-1,3
 815 -472 815 -472 743 -515 c 128,-1,4
 671 -558 671 -558 592 -578 c 128,-1,5
 513 -598 513 -598 429 -598 c 0,6,7
 364 -598 364 -598 298 -580 c 128,-1,8
 232 -562 232 -562 190 -539 c 0,9,10
 187 -538 187 -538 182 -535 c 0,11,12
 159 -523 159 -523 149 -516.5 c 128,-1,13
 139 -510 139 -510 127 -498.5 c 128,-1,14
 115 -487 115 -487 111 -472 c 128,-1,15
 107 -457 107 -457 107 -435 c 0,16,17
 107 -393 107 -393 134 -362 c 128,-1,18
 161 -331 161 -331 199 -331 c 0,19,20
 205 -331 205 -331 213 -332 c 0,21,22
 230 -335 230 -335 259.5 -351 c 128,-1,23
 289 -367 289 -367 323 -381 c 128,-1,24
 357 -395 357 -395 390 -395 c 0,25,26
 545 -395 545 -395 662 -300 c 128,-1,27
 779 -205 779 -205 801 -56 c 0,28,29
 808 -14 808 -14 810 47 c 1,30,31
 704 -64 704 -64 499 -64 c 0,32,33
 405 -62 405 -62 333 -32.5 c 128,-1,34
 261 -3 261 -3 217.5 44.5 c 128,-1,35
 174 92 174 92 147 161.5 c 128,-1,36
 120 231 120 231 110 302.5 c 128,-1,37
 100 374 100 374 100 461 c 0,38,39
 102 583 102 583 135 682 c 128,-1,40
 168 781 168 781 223 847 c 128,-1,41
 278 913 278 913 354 958 c 128,-1,42
 430 1003 430 1003 514 1023 c 128,-1,43
 598 1043 598 1043 692 1043 c 0,44,45
 802 1043 802 1043 851 1034 c 128,-1,46
 900 1025 900 1025 950 998 c 0,47,48
 992 976 992 976 992 921 c 0,49,50
 992 895 992 895 980 875 c 0,51,52
 979 872 979 872 975.5 868 c 128,-1,53
 972 864 972 864 972 863 c 1,54,-1
 961 885 l 1,55,56
 1024 870 1024 870 1024 793 c 0,57,58
 1024 785 1024 785 1017.5 361.5 c 128,-1,59
 1011 -62 1011 -62 1011 -70 c 2,60,61
 1011 -70 1011 -70 1011 -71 c 0,0,1
327 523 m 0,62,63
 325 489 325 489 325 456 c 0,64,65
 325 389 325 389 334.5 335.5 c 128,-1,66
 344 282 344 282 365.5 238.5 c 128,-1,67
 387 195 387 195 425 171.5 c 128,-1,68
 463 148 463 148 515 148 c 0,69,70
 518 148 518 148 523 148 c 0,71,72
 580 150 580 150 628 166.5 c 128,-1,73
 676 183 676 183 707.5 207.5 c 128,-1,74
 739 232 739 232 763 265 c 128,-1,75
 787 298 787 298 799 330 c 128,-1,76
 811 362 811 362 817 396 c 1,77,78
 818 456 818 456 819 589.5 c 128,-1,79
 820 723 820 723 821 778 c 0,80,81
 821 806 821 806 836 831 c 1,82,-1
 847 809 l 1,83,-1
 833 811 l 1,84,-1
 832 811 l 1,85,86
 736 838 736 838 650 838 c 0,87,88
 642 838 642 838 638 838 c 0,89,90
 598 836 598 836 558.5 825 c 128,-1,91
 519 814 519 814 478.5 789.5 c 128,-1,92
 438 765 438 765 406.5 730.5 c 128,-1,93
 375 696 375 696 353 642.5 c 128,-1,94
 331 589 331 589 327 523 c 0,62,63
EndSplineSet
EndChar

StartChar: h
Encoding: 104 104 75
Width: 1116
GlyphClass: 2
Flags: W
LayerCount: 2
Fore
SplineSet
1033 95 m 0,0,1
 1033 29 1033 29 997.5 -8.5 c 128,-1,2
 962 -46 962 -46 913 -46 c 0,3,4
 911 -46 911 -46 908 -46 c 0,5,6
 863 -44 863 -44 825.5 -9.5 c 128,-1,7
 788 25 788 25 788 77 c 0,8,9
 788 138 788 138 791.5 275.5 c 128,-1,10
 795 413 795 413 795 494 c 0,11,12
 795 524 795 524 795 552 c 0,13,14
 794 602 794 602 789 644.5 c 128,-1,15
 784 687 784 687 772.5 728 c 128,-1,16
 761 769 761 769 738 792.5 c 128,-1,17
 715 816 715 816 684 816 c 0,18,19
 625 815 625 815 575.5 796.5 c 128,-1,20
 526 778 526 778 493.5 749.5 c 128,-1,21
 461 721 461 721 435.5 684.5 c 128,-1,22
 410 648 410 648 395.5 613.5 c 128,-1,23
 381 579 381 579 372 545 c 128,-1,24
 363 511 363 511 360.5 491 c 128,-1,25
 358 471 358 471 358 462 c 1,26,-1
 326 462 l 1,27,-1
 326 464 l 1,28,-1
 358 464 l 1,29,30
 358 451 358 451 357 424.5 c 128,-1,31
 356 398 356 398 356 385 c 0,32,33
 355 351 355 351 355 292.5 c 128,-1,34
 355 234 355 234 354.5 205 c 128,-1,35
 354 176 354 176 351.5 135.5 c 128,-1,36
 349 95 349 95 345 61 c 0,37,38
 339 13 339 13 300 -15.5 c 128,-1,39
 261 -44 261 -44 213 -44 c 0,40,41
 212 -44 212 -44 210.5 -44 c 128,-1,42
 209 -44 209 -44 208 -44 c 0,43,44
 163 -44 163 -44 132.5 -16 c 128,-1,45
 102 12 102 12 102 61 c 0,46,47
 102 66 102 66 102 75 c 0,48,49
 107 140 107 140 116 325 c 128,-1,50
 125 510 125 510 125 607 c 0,51,52
 125 632 125 632 124 644 c 0,53,54
 116 824 116 824 116 1093 c 0,55,56
 116 1303 116 1303 120 1446 c 0,57,58
 121 1508 121 1508 155 1540.5 c 128,-1,59
 189 1573 189 1573 236 1573 c 0,60,61
 237 1573 237 1573 239 1573 c 128,-1,62
 241 1573 241 1573 242 1573 c 0,63,64
 293 1573 293 1573 325.5 1542 c 128,-1,65
 358 1511 358 1511 358 1452 c 0,66,67
 358 1272 358 1272 362 870 c 1,68,69
 418 946 418 946 514.5 993.5 c 128,-1,70
 611 1041 611 1041 751 1041 c 0,71,72
 809 1041 809 1041 854 1020 c 128,-1,73
 899 999 899 999 928.5 963.5 c 128,-1,74
 958 928 958 928 977.5 878.5 c 128,-1,75
 997 829 997 829 1005 774.5 c 128,-1,76
 1013 720 1013 720 1013 657 c 0,77,78
 1013 652 1013 652 1013 646 c 0,79,80
 1013 631 1013 631 1013 616 c 0,81,82
 1013 508 1013 508 1023 336 c 128,-1,83
 1033 164 1033 164 1033 95 c 0,0,1
EndSplineSet
EndChar

StartChar: i
Encoding: 105 105 76
Width: 1116
GlyphClass: 2
Flags: W
LayerCount: 2
Fore
SplineSet
574 1110 m 0,0,1
 564 1108 564 1108 554 1108 c 0,2,3
 479 1108 479 1108 432 1162 c 128,-1,4
 385 1216 385 1216 385 1285.5 c 128,-1,5
 385 1355 385 1355 442 1404 c 128,-1,6
 499 1453 499 1453 571 1457 c 0,7,8
 575 1457 575 1457 580 1457 c 0,9,10
 655 1457 655 1457 702.5 1407.5 c 128,-1,11
 750 1358 750 1358 750 1287.5 c 128,-1,12
 750 1217 750 1217 701.5 1167.5 c 128,-1,13
 653 1118 653 1118 574 1110 c 0,0,1
957 -24 m 0,14,15
 922 -24 922 -24 602.5 -29.5 c 128,-1,16
 283 -35 283 -35 186 -35 c 0,17,18
 133 -35 133 -35 109 -6.5 c 128,-1,19
 85 22 85 22 85 65 c 0,20,21
 85 66 85 66 85 69 c 128,-1,22
 85 72 85 72 85 73 c 0,23,24
 85 174 85 174 188 174 c 2,25,-1
 490 174 l 1,26,27
 490 253 490 253 488 312 c 0,28,29
 486 378 486 378 486 443 c 0,30,31
 486 537 486 537 496 805 c 1,32,33
 477 807 477 807 454 807 c 0,34,35
 447 807 447 807 363 805.5 c 128,-1,36
 279 804 279 804 256 804 c 0,37,38
 211 804 211 804 185 830.5 c 128,-1,39
 159 857 159 857 159 893 c 0,40,41
 159 894 159 894 159 896 c 128,-1,42
 159 898 159 898 159 899 c 0,43,44
 159 940 159 940 183.5 967.5 c 128,-1,45
 208 995 208 995 253 995 c 0,46,47
 403 1007 403 1007 523 1007 c 0,48,49
 559 1007 559 1007 600 1006 c 0,50,51
 601 1006 601 1006 602 1006 c 128,-1,52
 603 1006 603 1006 603 1006 c 2,53,54
 636 1006 636 1006 661 991 c 128,-1,55
 686 976 686 976 698 953.5 c 128,-1,56
 710 931 710 931 715.5 911.5 c 128,-1,57
 721 892 721 892 721 876 c 0,58,59
 708 715 708 715 708 556 c 0,60,61
 708 422 708 422 721 174 c 1,62,-1
 962 174 l 2,63,64
 1061 174 1061 174 1061 77 c 0,65,66
 1059 47 1059 47 1049 26 c 128,-1,67
 1039 5 1039 5 1023 -5.5 c 128,-1,68
 1007 -16 1007 -16 991 -20 c 128,-1,69
 975 -24 975 -24 957 -24 c 0,14,15
EndSplineSet
EndChar

StartChar: j
Encoding: 106 106 77
Width: 1116
GlyphClass: 2
Flags: W
LayerCount: 2
Fore
SplineSet
762 1101 m 0,0,1
 705 1101 705 1101 663 1130.5 c 128,-1,2
 621 1160 621 1160 601.5 1203 c 128,-1,3
 582 1246 582 1246 582 1294 c 0,4,5
 582 1361 582 1361 634 1402.5 c 128,-1,6
 686 1444 686 1444 762 1448 c 0,7,8
 766 1448 766 1448 771 1448 c 0,9,10
 846 1448 846 1448 893.5 1398.5 c 128,-1,11
 941 1349 941 1349 941 1279 c 0,12,13
 941 1206 941 1206 891 1153.5 c 128,-1,14
 841 1101 841 1101 762 1101 c 0,0,1
670 -13 m 2,15,-1
 659 787 l 1,16,17
 626 786 626 786 556 786 c 0,18,19
 498 786 498 786 388 787 c 128,-1,20
 278 788 278 788 254 788 c 0,21,22
 202 788 202 788 168.5 821 c 128,-1,23
 135 854 135 854 135 897 c 0,24,25
 135 898 135 898 135 899.5 c 128,-1,26
 135 901 135 901 135 901 c 2,27,28
 135 938 135 938 168 963.5 c 128,-1,29
 201 989 201 989 251 991 c 0,30,31
 443 1002 443 1002 697 1002 c 0,32,33
 741 1002 741 1002 776 1001 c 2,34,35
 776 1001 776 1001 777 1001 c 128,-1,36
 778 1001 778 1001 779 1001 c 0,37,38
 812 1001 812 1001 836.5 986.5 c 128,-1,39
 861 972 861 972 873.5 949.5 c 128,-1,40
 886 927 886 927 891.5 907 c 128,-1,41
 897 887 897 887 897 871 c 2,42,-1
 897 870 l 1,43,-1
 897 869 l 2,44,45
 894 848 894 848 888.5 814.5 c 128,-1,46
 883 781 883 781 881 760 c 128,-1,47
 879 739 879 739 879 712 c 0,48,49
 879 663 879 663 885.5 388.5 c 128,-1,50
 892 114 892 114 892 -39 c 0,51,52
 892 -129 892 -129 870.5 -205 c 128,-1,53
 849 -281 849 -281 811.5 -336.5 c 128,-1,54
 774 -392 774 -392 721 -436 c 128,-1,55
 668 -480 668 -480 608.5 -508 c 128,-1,56
 549 -536 549 -536 480 -554 c 128,-1,57
 411 -572 411 -572 345 -579.5 c 128,-1,58
 279 -587 279 -587 210 -587 c 0,59,60
 161 -587 161 -587 128.5 -562 c 128,-1,61
 96 -537 96 -537 96 -490 c 0,62,63
 96 -444 96 -444 127 -407.5 c 128,-1,64
 158 -371 158 -371 199 -371 c 0,65,66
 273 -371 273 -371 340.5 -358.5 c 128,-1,67
 408 -346 408 -346 468.5 -318 c 128,-1,68
 529 -290 529 -290 573.5 -249 c 128,-1,69
 618 -208 618 -208 644 -147.5 c 128,-1,70
 670 -87 670 -87 670 -13 c 2,15,-1
EndSplineSet
EndChar

StartChar: k
Encoding: 107 107 78
Width: 1116
GlyphClass: 2
Flags: W
LayerCount: 2
Fore
SplineSet
356 81 m 0,0,1
 354 34 354 34 342 0.5 c 128,-1,2
 330 -33 330 -33 311 -49 c 128,-1,3
 292 -65 292 -65 274 -71.5 c 128,-1,4
 256 -78 256 -78 236 -78 c 0,5,6
 232 -78 232 -78 222 -78 c 0,7,8
 179 -76 179 -76 145 -48.5 c 128,-1,9
 111 -21 111 -21 111 34 c 0,10,11
 111 40 111 40 111 47 c 0,12,13
 125 213 125 213 125 737 c 0,14,15
 125 894 125 894 123.5 1144.5 c 128,-1,16
 122 1395 122 1395 122 1454 c 128,-1,17
 122 1513 122 1513 159 1543 c 128,-1,18
 196 1573 196 1573 248 1573 c 0,19,20
 297 1573 297 1573 329.5 1544 c 128,-1,21
 362 1515 362 1515 362 1456 c 0,22,23
 362 1207 362 1207 350 658 c 1,24,25
 434 733 434 733 538 821 c 128,-1,26
 642 909 642 909 712.5 968 c 128,-1,27
 783 1027 783 1027 802 1045 c 0,28,29
 850 1091 850 1091 896 1091 c 0,30,31
 934 1091 934 1091 962 1062 c 0,32,33
 989 1035 989 1035 989 999 c 0,34,35
 989 954 989 954 945 903 c 0,36,37
 905 858 905 858 658 648 c 1,38,39
 703 573 703 573 805.5 444 c 128,-1,40
 908 315 908 315 987 216 c 128,-1,41
 1066 117 1066 117 1071 95 c 0,42,43
 1072 93 1072 93 1072 90 c 0,44,45
 1073 82 1073 82 1073 76 c 0,46,47
 1073 11 1073 11 1019 -24 c 1,48,49
 987 -77 987 -77 957 -77 c 0,50,51
 903 -77 903 -77 861 16 c 0,52,53
 852 28 852 28 771 126 c 128,-1,54
 690 224 690 224 610 334 c 128,-1,55
 530 444 530 444 494 522 c 1,56,-1
 344 390 l 2,57,58
 337 383 337 383 329 383 c 1,59,-1
 345 399 l 1,60,61
 344 387 344 387 344 374 c 0,62,63
 344 311 344 311 350 223.5 c 128,-1,64
 356 136 356 136 356 108 c 0,65,66
 356 96 356 96 356 81 c 0,0,1
EndSplineSet
EndChar

StartChar: l
Encoding: 108 108 79
Width: 1116
GlyphClass: 2
Flags: W
LayerCount: 2
Fore
SplineSet
1085 91 m 0,0,1
 1085 88 1085 88 1085 84 c 0,2,3
 1085 41 1085 41 1057 11.5 c 128,-1,4
 1029 -18 1029 -18 962 -18 c 0,5,6
 936 -18 936 -18 598.5 -14.5 c 128,-1,7
 261 -11 261 -11 160 -11 c 0,8,9
 108 -11 108 -11 82 18.5 c 128,-1,10
 56 48 56 48 56 92 c 0,11,12
 56 93 56 93 56 95.5 c 128,-1,13
 56 98 56 98 56 99 c 0,14,15
 56 145 56 145 82.5 175 c 128,-1,16
 109 205 109 205 162 205 c 0,17,18
 254 205 254 205 462 201 c 1,19,20
 462 258 462 258 459 315 c 0,21,22
 457 376 457 376 457 514 c 0,23,24
 457 899 457 899 470 1341 c 1,25,26
 409 1337 409 1337 245 1337 c 0,27,28
 197 1337 197 1337 168 1368.5 c 128,-1,29
 139 1400 139 1400 139 1445 c 0,30,31
 139 1446 139 1446 139.5 1447.5 c 128,-1,32
 140 1449 140 1449 140 1450 c 0,33,34
 140 1490 140 1490 166 1518.5 c 128,-1,35
 192 1547 192 1547 243 1547 c 0,36,37
 377 1547 377 1547 463 1550.5 c 128,-1,38
 549 1554 549 1554 571 1554 c 0,39,40
 581 1554 581 1554 601.5 1553.5 c 128,-1,41
 622 1553 622 1553 629 1553 c 0,42,43
 664 1553 664 1553 679 1519 c 0,44,45
 684 1516 684 1516 690 1512 c 0,46,47
 708 1497 708 1497 708 1474 c 2,48,-1
 708 1472 l 1,49,-1
 708 1471 l 1,50,51
 697 1410 697 1410 690.5 1138.5 c 128,-1,52
 684 867 684 867 684 725 c 0,53,54
 684 526 684 526 686 391 c 0,55,56
 686 309 686 309 690 189 c 1,57,58
 746 188 746 188 809.5 186.5 c 128,-1,59
 873 185 873 185 912.5 184 c 128,-1,60
 952 183 952 183 966 183 c 0,61,62
 1080 183 1080 183 1085 91 c 0,0,1
EndSplineSet
EndChar

StartChar: m
Encoding: 109 109 80
Width: 1116
GlyphClass: 2
Flags: W
LayerCount: 2
Fore
SplineSet
266 73 m 0,0,1
 266 -48 266 -48 151 -48 c 0,2,3
 131 -47 131 -47 116 -42.5 c 128,-1,4
 101 -38 101 -38 84 -26.5 c 128,-1,5
 67 -15 67 -15 57.5 10.5 c 128,-1,6
 48 36 48 36 48 74 c 0,7,8
 48 90 48 90 46 125.5 c 128,-1,9
 44 161 44 161 41 214.5 c 128,-1,10
 38 268 38 268 37 308 c 0,11,12
 32 431 32 431 32 591 c 0,13,14
 32 719 32 719 37 931 c 0,15,16
 38 1003 38 1003 75.5 1039.5 c 128,-1,17
 113 1076 113 1076 162 1076 c 0,18,19
 163 1076 163 1076 164.5 1076 c 128,-1,20
 166 1076 166 1076 167 1076 c 0,21,22
 209 1076 209 1076 237.5 1048 c 128,-1,23
 266 1020 266 1020 266 960 c 0,24,25
 266 945 266 945 263 926 c 0,26,27
 262 914 262 914 261 907 c 1,28,29
 357 1045 357 1045 504 1045 c 0,30,31
 587 1045 587 1045 635 865 c 1,32,33
 750 1045 750 1045 940 1045 c 0,34,35
 964 1045 964 1045 984 1034 c 128,-1,36
 1004 1023 1004 1023 1017.5 1000.5 c 128,-1,37
 1031 978 1031 978 1041.5 952 c 128,-1,38
 1052 926 1052 926 1058.5 887 c 128,-1,39
 1065 848 1065 848 1069 814 c 128,-1,40
 1073 780 1073 780 1075 732 c 128,-1,41
 1077 684 1077 684 1077.5 649 c 128,-1,42
 1078 614 1078 614 1078 564 c 0,43,44
 1078 516 1078 516 1077 414 c 128,-1,45
 1076 312 1076 312 1076 261 c 0,46,47
 1076 167 1076 167 1079 98 c 0,48,49
 1079 89 1079 89 1079 81 c 0,50,51
 1079 41 1079 41 1070.5 14.5 c 128,-1,52
 1062 -12 1062 -12 1047 -24.5 c 128,-1,53
 1032 -37 1032 -37 1017 -41.5 c 128,-1,54
 1002 -46 1002 -46 982 -46 c 0,55,56
 980 -46 980 -46 977.5 -46 c 128,-1,57
 975 -46 975 -46 973 -46 c 0,58,59
 862 -46 862 -46 854 95 c 0,60,61
 851 143 851 143 851 213 c 0,62,63
 851 214 851 214 844.5 365.5 c 128,-1,64
 838 517 838 517 831 672.5 c 128,-1,65
 824 828 824 828 823 835 c 1,66,67
 823 835 823 835 827 831.5 c 128,-1,68
 831 828 831 828 835 824 c 2,69,-1
 839 820 l 1,70,71
 838 820 838 820 836 820 c 0,72,73
 809 820 809 820 782.5 801.5 c 128,-1,74
 756 783 756 783 738.5 760 c 128,-1,75
 721 737 721 737 704.5 704.5 c 128,-1,76
 688 672 688 672 681.5 655.5 c 128,-1,77
 675 639 675 639 669 622 c 1,78,79
 672 571 672 571 672 515 c 0,80,81
 672 442 672 442 666 318.5 c 128,-1,82
 660 195 660 195 660 147 c 0,83,84
 660 111 660 111 662 82 c 0,85,86
 663 73 663 73 663 65 c 0,87,88
 663 31 663 31 653.5 7.5 c 128,-1,89
 644 -16 644 -16 627.5 -27 c 128,-1,90
 611 -38 611 -38 595.5 -42 c 128,-1,91
 580 -46 580 -46 562 -46 c 0,92,93
 561 -46 561 -46 558.5 -46 c 128,-1,94
 556 -46 556 -46 554 -46 c 0,95,96
 510 -46 510 -46 481.5 -20 c 128,-1,97
 453 6 453 6 446 80 c 0,98,99
 444 101 444 101 444 135 c 0,100,101
 444 186 444 186 454 323.5 c 128,-1,102
 464 461 464 461 464 548 c 0,103,104
 464 564 464 564 464 592.5 c 128,-1,105
 464 621 464 621 464 634 c 0,106,107
 464 720 464 720 461 760 c 128,-1,108
 458 800 458 800 448 814 c 0,109,110
 444 820 444 820 436 820 c 1,111,-1
 438 820 l 1,112,-1
 434 820 l 2,113,114
 394 820 394 820 344 761.5 c 128,-1,115
 294 703 294 703 255 613 c 1,116,117
 254 588 254 588 254 556 c 0,118,119
 254 500 254 500 257 384 c 0,120,121
 257 314 257 314 261.5 206 c 128,-1,122
 266 98 266 98 266 73 c 0,0,1
EndSplineSet
EndChar

StartChar: n
Encoding: 110 110 81
Width: 1116
GlyphClass: 2
Flags: W
LayerCount: 2
Fore
SplineSet
344 73 m 0,0,1
 344 13 344 13 311.5 -16.5 c 128,-1,2
 279 -46 279 -46 228 -46 c 0,3,4
 225 -46 225 -46 215 -46 c 0,5,6
 173 -44 173 -44 143.5 -15.5 c 128,-1,7
 114 13 114 13 110 73 c 0,8,9
 110 86 110 86 100.5 167.5 c 128,-1,10
 91 249 91 249 89 307 c 0,11,12
 87 344 87 344 87 390 c 0,13,14
 87 500 87 500 100 683 c 128,-1,15
 113 866 113 866 115 922 c 0,16,17
 116 987 116 987 154.5 1020.5 c 128,-1,18
 193 1054 193 1054 244 1054 c 0,19,20
 245 1054 245 1054 247 1054 c 128,-1,21
 249 1054 249 1054 249 1054 c 2,22,23
 296 1054 296 1054 326 1026.5 c 128,-1,24
 356 999 356 999 356 940 c 0,25,26
 356 930 356 930 355 918 c 2,27,-1
 354 906 l 1,28,29
 409 968 409 968 491.5 1006.5 c 128,-1,30
 574 1045 574 1045 683 1045 c 0,31,32
 832 1045 832 1045 908.5 939.5 c 128,-1,33
 985 834 985 834 990 647 c 0,34,35
 994 527 994 527 1021 339 c 128,-1,36
 1048 151 1048 151 1052 90 c 0,37,38
 1052 84 1052 84 1052 77 c 0,39,40
 1052 13 1052 13 1022.5 -16.5 c 128,-1,41
 993 -46 993 -46 948 -46 c 0,42,43
 947 -46 947 -46 945.5 -46 c 128,-1,44
 944 -46 944 -46 943 -46 c 0,45,46
 894 -46 894 -46 857.5 -13.5 c 128,-1,47
 821 19 821 19 816 87 c 0,48,49
 814 104 814 104 794.5 274 c 128,-1,50
 775 444 775 444 770 552 c 0,51,52
 766 621 766 621 761.5 665 c 128,-1,53
 757 709 757 709 749 742 c 128,-1,54
 741 775 741 775 728 791.5 c 128,-1,55
 715 808 715 808 698 815 c 128,-1,56
 681 822 681 822 654 822 c 0,57,58
 595 822 595 822 541 800.5 c 128,-1,59
 487 779 487 779 446 742.5 c 128,-1,60
 405 706 405 706 376 668.5 c 128,-1,61
 347 631 347 631 324 589 c 1,62,63
 319 510 319 510 319 441 c 0,64,65
 319 431 319 431 319.5 412 c 128,-1,66
 320 393 320 393 320 384 c 0,67,68
 320 316 320 316 332 210 c 128,-1,69
 344 104 344 104 344 73 c 0,0,1
289 506 m 1024,70,-1
EndSplineSet
EndChar

StartChar: o
Encoding: 111 111 82
Width: 1116
GlyphClass: 2
Flags: W
LayerCount: 2
Fore
SplineSet
515 -55 m 0,0,1
 412 -53 412 -53 326 -8 c 128,-1,2
 240 37 240 37 183.5 111.5 c 128,-1,3
 127 186 127 186 96 281.5 c 128,-1,4
 65 377 65 377 65 481 c 0,5,6
 65 482 65 482 65 486 c 128,-1,7
 65 490 65 490 65 491 c 0,8,9
 65 614 65 614 98.5 719 c 128,-1,10
 132 824 132 824 195 903 c 128,-1,11
 258 982 258 982 356 1026.5 c 128,-1,12
 454 1071 454 1071 576 1071 c 0,13,14
 649 1071 649 1071 714.5 1052.5 c 128,-1,15
 780 1034 780 1034 840 992.5 c 128,-1,16
 900 951 900 951 943.5 888.5 c 128,-1,17
 987 826 987 826 1013 733 c 128,-1,18
 1039 640 1039 640 1039 525 c 0,19,20
 1039 491 1039 491 1037 458 c 0,21,22
 1029 335 1029 335 996.5 242 c 128,-1,23
 964 149 964 149 903.5 81.5 c 128,-1,24
 843 14 843 14 748.5 -20.5 c 128,-1,25
 654 -55 654 -55 526 -55 c 0,26,27
 519 -55 519 -55 515 -55 c 0,0,1
559 150 m 0,28,29
 566 150 566 150 571 150 c 0,30,31
 643 150 643 150 694 195 c 128,-1,32
 745 240 745 240 770 316 c 128,-1,33
 795 392 795 392 799 494 c 0,34,35
 800 512 800 512 800 532 c 0,36,37
 800 879 800 879 548 879 c 0,38,39
 501 879 501 879 463.5 861.5 c 128,-1,40
 426 844 426 844 401.5 812.5 c 128,-1,41
 377 781 377 781 359 744 c 128,-1,42
 341 707 341 707 330.5 661 c 128,-1,43
 320 615 320 615 315 576.5 c 128,-1,44
 310 538 310 538 307 495 c 0,45,46
 307 485 307 485 307 462 c 0,47,48
 307 406 307 406 313.5 362.5 c 128,-1,49
 320 319 320 319 337 279 c 128,-1,50
 354 239 354 239 382 212.5 c 128,-1,51
 410 186 410 186 455 169.5 c 128,-1,52
 500 153 500 153 559 150 c 0,28,29
EndSplineSet
EndChar

StartChar: p
Encoding: 112 112 83
Width: 1116
GlyphClass: 2
Flags: W
LayerCount: 2
Fore
SplineSet
345 -488 m 0,0,1
 345 -490 345 -490 345 -493 c 0,2,3
 345 -549 345 -549 313 -579 c 128,-1,4
 281 -609 281 -609 236 -609 c 0,5,6
 181 -606 181 -606 150.5 -574.5 c 128,-1,7
 120 -543 120 -543 118 -486 c 0,8,9
 110 -327 110 -327 105 37.5 c 128,-1,10
 100 402 100 402 100 700 c 0,11,12
 100 729 100 729 100 775 c 128,-1,13
 100 821 100 821 100 834 c 0,14,15
 100 1010 100 1010 122 1052 c 0,16,17
 138 1084 138 1084 169.5 1103.5 c 128,-1,18
 201 1123 201 1123 236 1123 c 0,19,20
 240 1123 240 1123 252 1122 c 0,21,22
 286 1118 286 1118 313 1092.5 c 128,-1,23
 340 1067 340 1067 340 1034 c 0,24,25
 340 1025 340 1025 338 1016 c 0,26,27
 331 991 331 991 328 958 c 1,28,29
 463 1043 463 1043 602 1043 c 0,30,31
 685 1043 685 1043 748.5 1026.5 c 128,-1,32
 812 1010 812 1010 867 969 c 128,-1,33
 922 928 922 928 958.5 861 c 128,-1,34
 995 794 995 794 1016 690.5 c 128,-1,35
 1037 587 1037 587 1039 448 c 0,36,37
 1039 442 1039 442 1039 439 c 0,38,39
 1039 372 1039 372 1021 302.5 c 128,-1,40
 1003 233 1003 233 966.5 168 c 128,-1,41
 930 103 930 103 879 52 c 128,-1,42
 828 1 828 1 756 -30.5 c 128,-1,43
 684 -62 684 -62 603 -64 c 0,44,45
 578 -64 578 -64 557 -64 c 0,46,47
 414 -64 414 -64 338 -45 c 1,48,49
 339 -133 339 -133 342 -289 c 128,-1,50
 345 -445 345 -445 345 -488 c 0,0,1
323 715 m 2,51,52
 323 680 323 680 325.5 575.5 c 128,-1,53
 328 471 328 471 330.5 359 c 128,-1,54
 333 247 333 247 334 147 c 1,55,56
 373 135 373 135 447 135 c 0,57,58
 466 135 466 135 578 139 c 0,59,60
 633 141 633 141 676 171.5 c 128,-1,61
 719 202 719 202 744.5 251.5 c 128,-1,62
 770 301 770 301 782.5 360.5 c 128,-1,63
 795 420 795 420 795 486 c 0,64,65
 795 501 795 501 795 511 c 0,66,67
 791 591 791 591 778.5 650 c 128,-1,68
 766 709 766 709 748.5 744.5 c 128,-1,69
 731 780 731 780 705 801.5 c 128,-1,70
 679 823 679 823 653 830.5 c 128,-1,71
 627 838 627 838 594 838 c 0,72,73
 530 838 530 838 455.5 807.5 c 128,-1,74
 381 777 381 777 323 731 c 1,75,-1
 323 715 l 2,51,52
EndSplineSet
EndChar

StartChar: q
Encoding: 113 113 84
Width: 1116
GlyphClass: 2
Flags: W
LayerCount: 2
Fore
SplineSet
980 -476 m 0,0,1
 973 -539 973 -539 935.5 -573 c 128,-1,2
 898 -607 898 -607 852 -607 c 0,3,4
 810 -607 810 -607 779 -576.5 c 128,-1,5
 748 -546 748 -546 748 -489 c 0,6,7
 748 -482 748 -482 749 -473 c 0,8,9
 760 -330 760 -330 770 -34 c 1,10,11
 684 -64 684 -64 549 -64 c 0,12,13
 538 -64 538 -64 523 -64 c 0,14,15
 442 -62 442 -62 370.5 -32 c 128,-1,16
 299 -2 299 -2 248 47 c 128,-1,17
 197 96 197 96 160 158 c 128,-1,18
 123 220 123 220 105 287 c 128,-1,19
 87 354 87 354 87 418 c 0,20,21
 87 421 87 421 87 427 c 0,22,23
 89 566 89 566 122.5 676.5 c 128,-1,24
 156 787 156 787 211 858.5 c 128,-1,25
 266 930 266 930 342.5 977.5 c 128,-1,26
 419 1025 419 1025 502 1045 c 128,-1,27
 585 1065 585 1065 679 1065 c 0,28,29
 791 1065 791 1065 884 1030 c 128,-1,30
 977 995 977 995 1024 939 c 0,31,32
 1063 894 1063 894 1063 846 c 0,33,34
 1063 815 1063 815 1046 796 c 0,35,36
 1030 778 1030 778 1008 768 c 1,37,38
 1008 755 1008 755 1007.5 531 c 128,-1,39
 1007 307 1007 307 1006 227.5 c 128,-1,40
 1005 148 1005 148 1002 -21.5 c 128,-1,41
 999 -191 999 -191 993.5 -296 c 128,-1,42
 988 -401 988 -401 980 -476 c 0,0,1
548 139 m 0,43,44
 568 139 568 139 580 139 c 0,45,46
 699 139 699 139 777 175 c 1,47,48
 781 300 781 300 792 824 c 1,49,50
 760 840 760 840 729 844.5 c 128,-1,51
 698 849 698 849 633 849 c 0,52,53
 599 849 599 849 562.5 838.5 c 128,-1,54
 526 828 526 828 485.5 802 c 128,-1,55
 445 776 445 776 413 737 c 128,-1,56
 381 698 381 698 358 634 c 128,-1,57
 335 570 335 570 331 490 c 0,58,59
 331 480 331 480 331 467 c 0,60,61
 331 405 331 405 343.5 349 c 128,-1,62
 356 293 356 293 381 246 c 128,-1,63
 406 199 406 199 449.5 170 c 128,-1,64
 493 141 493 141 548 139 c 0,43,44
EndSplineSet
EndChar

StartChar: r
Encoding: 114 114 85
Width: 1116
GlyphClass: 2
Flags: W
LayerCount: 2
Fore
SplineSet
384 59 m 0,0,1
 384 57 384 57 384 54 c 0,2,3
 384 11 384 11 359 -18.5 c 128,-1,4
 334 -48 334 -48 274 -48 c 0,5,6
 269 -48 269 -48 264 -48 c 0,7,8
 216 -46 216 -46 188 -22 c 128,-1,9
 160 2 160 2 155 58 c 0,10,11
 155 61 155 61 143 154.5 c 128,-1,12
 131 248 131 248 129 307 c 0,13,14
 127 340 127 340 127 381 c 0,15,16
 127 489 127 489 141.5 673.5 c 128,-1,17
 156 858 156 858 157 924 c 0,18,19
 160 990 160 990 198 1022 c 128,-1,20
 236 1054 236 1054 289 1054 c 0,21,22
 336 1054 336 1054 366.5 1025.5 c 128,-1,23
 397 997 397 997 397 933 c 0,24,25
 397 927 397 927 397 920 c 2,26,-1
 390 851 l 1,27,28
 462 928 462 928 596.5 982.5 c 128,-1,29
 731 1037 731 1037 899 1037 c 0,30,31
 913 1037 913 1037 927 1036 c 2,32,-1
 929 1036 l 1,33,-1
 930 1036 l 1,34,35
 955 1030 955 1030 973 1000.5 c 128,-1,36
 991 971 991 971 1000 930 c 128,-1,37
 1009 889 1009 889 1012.5 853.5 c 128,-1,38
 1016 818 1016 818 1016 789 c 0,39,40
 1016 738 1016 738 1008 707 c 0,41,42
 993 633 993 633 911 612 c 0,43,44
 902 610 902 610 891 610 c 0,45,46
 853 610 853 610 823 636.5 c 128,-1,47
 793 663 793 663 788 699 c 0,48,49
 785 720 785 720 784 750 c 128,-1,50
 783 780 783 780 780 800 c 128,-1,51
 777 820 777 820 766 835 c 1,52,53
 704 833 704 833 643 809 c 128,-1,54
 582 785 582 785 537 750.5 c 128,-1,55
 492 716 492 716 454 674.5 c 128,-1,56
 416 633 416 633 393.5 599 c 128,-1,57
 371 565 371 565 362 541 c 1,58,59
 359 471 359 471 359 433 c 0,60,61
 359 425 359 425 359.5 409.5 c 128,-1,62
 360 394 360 394 360 387 c 0,63,64
 360 314 360 314 371.5 194 c 128,-1,65
 383 74 383 74 384 59 c 0,0,1
EndSplineSet
EndChar

StartChar: s
Encoding: 115 115 86
Width: 1116
GlyphClass: 2
Flags: W
LayerCount: 2
Fore
SplineSet
98 148 m 0,0,1
 89 183 89 183 89 212 c 0,2,3
 89 288 89 288 151 317 c 0,4,5
 177 330 177 330 209 330 c 0,6,7
 248 330 248 330 282 308 c 128,-1,8
 316 286 316 286 335 241 c 0,9,10
 346 214 346 214 352 202.5 c 128,-1,11
 358 191 358 191 369.5 175.5 c 128,-1,12
 381 160 381 160 395 154 c 128,-1,13
 409 148 409 148 431.5 143.5 c 128,-1,14
 454 139 454 139 486 139 c 0,15,16
 540 139 540 139 615.5 165 c 128,-1,17
 691 191 691 191 751.5 235 c 128,-1,18
 812 279 812 279 817 322 c 0,19,20
 817 324 817 324 817 325 c 0,21,22
 817 346 817 346 789 363.5 c 128,-1,23
 761 381 761 381 710 395 c 128,-1,24
 659 409 659 409 605 421.5 c 128,-1,25
 551 434 551 434 479 451 c 128,-1,26
 407 468 407 468 356 484 c 0,27,28
 233 524 233 524 188.5 571.5 c 128,-1,29
 144 619 144 619 144 708 c 0,30,31
 144 875 144 875 333 969 c 128,-1,32
 522 1063 522 1063 885 1063 c 0,33,34
 901 1061 901 1061 912 1052 c 0,35,36
 935 1032 935 1032 953.5 969 c 128,-1,37
 972 906 972 906 978.5 865.5 c 128,-1,38
 985 825 985 825 986.5 807 c 128,-1,39
 988 789 988 789 988 778 c 0,40,41
 988 694 988 694 921 674 c 0,42,43
 902 668 902 668 885 668 c 0,44,45
 849 668 849 668 820 689.5 c 128,-1,46
 791 711 791 711 781 736 c 0,47,48
 753 798 753 798 737 856 c 1,49,50
 652 855 652 855 572 837.5 c 128,-1,51
 492 820 492 820 436.5 787 c 128,-1,52
 381 754 381 754 381 715 c 0,53,54
 381 710 381 710 382 708 c 0,55,56
 382 706 382 706 383 704 c 0,57,58
 401 669 401 669 584 634 c 0,59,60
 648 621 648 621 700 608.5 c 128,-1,61
 752 596 752 596 808.5 577.5 c 128,-1,62
 865 559 865 559 907 536 c 128,-1,63
 949 513 949 513 983.5 485 c 128,-1,64
 1018 457 1018 457 1036 420 c 128,-1,65
 1054 383 1054 383 1054 340 c 0,66,67
 1054 327 1054 327 1052 312 c 0,68,69
 1037 193 1037 193 952 104.5 c 128,-1,70
 867 16 867 16 739.5 -28 c 128,-1,71
 612 -72 612 -72 460 -72 c 0,72,73
 400 -72 400 -72 343.5 -59 c 128,-1,74
 287 -46 287 -46 236.5 -20.5 c 128,-1,75
 186 5 186 5 149.5 48.5 c 128,-1,76
 113 92 113 92 98 148 c 0,0,1
EndSplineSet
EndChar

StartChar: t
Encoding: 116 116 87
Width: 1116
GlyphClass: 2
Flags: W
LayerCount: 2
Fore
SplineSet
910 -16 m 0,0,1
 803 -57 803 -57 656 -57 c 0,2,3
 641 -57 641 -57 630 -57 c 0,4,5
 550 -54 550 -54 480 -29.5 c 128,-1,6
 410 -5 410 -5 356.5 40.5 c 128,-1,7
 303 86 303 86 270.5 156 c 128,-1,8
 238 226 238 226 236 313 c 0,9,10
 234 367 234 367 234 410 c 0,11,12
 234 535 234 535 254 796 c 1,13,-1
 171 796 l 2,14,15
 127 796 127 796 98 818 c 128,-1,16
 69 840 69 840 69 893 c 0,17,18
 69 895 69 895 69 897.5 c 128,-1,19
 69 900 69 900 69 902 c 0,20,21
 70 1006 70 1006 173 1006 c 0,22,23
 239 1006 239 1006 281 1003 c 1,24,-1
 264 988 l 1,25,26
 267 1033 267 1033 267 1079 c 0,27,28
 267 1181 267 1181 256 1295 c 0,29,30
 255 1301 255 1301 255 1305 c 0,31,32
 255 1340 255 1340 279 1372 c 128,-1,33
 303 1404 303 1404 344 1404 c 256,34,35
 385 1404 385 1404 433 1375 c 128,-1,36
 481 1346 481 1346 487 1309 c 0,37,38
 491 1268 491 1268 491 1190 c 0,39,40
 491 1130 491 1130 487 1004 c 1,41,42
 550 1003 550 1003 642.5 1000 c 128,-1,43
 735 997 735 997 792 995.5 c 128,-1,44
 849 994 849 994 872 994 c 0,45,46
 916 994 916 994 946 970.5 c 128,-1,47
 976 947 976 947 976 891 c 0,48,49
 970 802 970 802 872 802 c 0,50,51
 817 802 817 802 480 806 c 1,52,53
 464 449 464 449 464 383 c 0,54,55
 464 355 464 355 465 338 c 0,56,57
 470 255 470 255 521.5 204 c 128,-1,58
 573 153 573 153 662 150 c 0,59,60
 670 150 670 150 679 150 c 0,61,62
 795 150 795 150 899 195 c 0,63,64
 914 202 914 202 930 202 c 0,65,66
 957 202 957 202 979.5 182 c 128,-1,67
 1002 162 1002 162 1010 122 c 0,68,69
 1012 113 1012 113 1012 103 c 0,70,71
 1012 63 1012 63 981.5 31 c 128,-1,72
 951 -1 951 -1 910 -16 c 0,0,1
EndSplineSet
EndChar

StartChar: u
Encoding: 117 117 88
Width: 1116
GlyphClass: 2
Flags: W
LayerCount: 2
Fore
SplineSet
930 -48 m 0,0,1
 919 -49 919 -49 916 -49 c 0,2,3
 867 -49 867 -49 833 -18.5 c 128,-1,4
 799 12 799 12 799 80 c 2,5,-1
 799 103 l 1,6,7
 722 45 722 45 625 5 c 128,-1,8
 528 -35 528 -35 428 -35 c 0,9,10
 408 -35 408 -35 389 -33 c 0,11,12
 314 -26 314 -26 249 21.5 c 128,-1,13
 184 69 184 69 147 135.5 c 128,-1,14
 110 202 110 202 107 269 c 0,15,16
 96 408 96 408 96 589 c 0,17,18
 96 590 96 590 100 755 c 128,-1,19
 104 920 104 920 104 921 c 0,20,21
 104 975 104 975 136 1003.5 c 128,-1,22
 168 1032 168 1032 215 1032 c 0,23,24
 265 1032 265 1032 301.5 1004 c 128,-1,25
 338 976 338 976 338 921 c 2,26,27
 338 921 338 921 333.5 762 c 128,-1,28
 329 603 329 603 329 603 c 1,29,30
 329 400 329 400 344 295 c 0,31,32
 354 228 354 228 380.5 208 c 128,-1,33
 407 188 407 188 467 188 c 256,34,35
 527 188 527 188 597.5 211.5 c 128,-1,36
 668 235 668 235 713.5 260.5 c 128,-1,37
 759 286 759 286 801 315 c 1,38,39
 803 378 803 378 803 444 c 0,40,41
 803 515 803 515 801 600 c 0,42,43
 801 819 801 819 792 923 c 1,44,45
 792 971 792 971 823.5 1000.5 c 128,-1,46
 855 1030 855 1030 898 1032 c 0,47,48
 945 1032 945 1032 983 1003 c 128,-1,49
 1021 974 1021 974 1022 924 c 1,50,51
 1027 891 1027 891 1029.5 792.5 c 128,-1,52
 1032 694 1032 694 1033 677 c 0,53,54
 1033 675 1033 675 1036 378 c 128,-1,55
 1039 81 1039 81 1039 78 c 0,56,57
 1039 42 1039 42 1029 16.5 c 128,-1,58
 1019 -9 1019 -9 1001.5 -22.5 c 128,-1,59
 984 -36 984 -36 966.5 -41.5 c 128,-1,60
 949 -47 949 -47 930 -48 c 0,0,1
EndSplineSet
EndChar

StartChar: v
Encoding: 118 118 89
Width: 1116
GlyphClass: 2
Flags: W
LayerCount: 2
Fore
SplineSet
672 -6 m 0,0,1
 664 -32 664 -32 651 -50 c 128,-1,2
 638 -68 638 -68 622.5 -75 c 128,-1,3
 607 -82 607 -82 597 -84.5 c 128,-1,4
 587 -87 587 -87 578 -87 c 0,5,6
 545 -87 545 -87 515 -65.5 c 128,-1,7
 485 -44 485 -44 470 -5 c 1,8,9
 218 447 218 447 70 830 c 0,10,11
 56 866 56 866 56 900 c 0,12,13
 56 977 56 977 129 1011 c 0,14,15
 154 1022 154 1022 178 1022 c 0,16,17
 218 1022 218 1022 253.5 993 c 128,-1,18
 289 964 289 964 307 904 c 0,19,20
 342 788 342 788 393.5 653.5 c 128,-1,21
 445 519 445 519 474.5 451.5 c 128,-1,22
 504 384 504 384 566 245 c 1,23,24
 764 630 764 630 854 920 c 0,25,26
 872 977 872 977 904.5 1005 c 128,-1,27
 937 1033 937 1033 976 1033 c 0,28,29
 1000 1033 1000 1033 1019 1024 c 0,30,31
 1046 1011 1046 1011 1064 983 c 128,-1,32
 1082 955 1082 955 1082 914 c 0,33,34
 1082 881 1082 881 1069 841 c 0,35,36
 1049 779 1049 779 1013 697.5 c 128,-1,37
 977 616 977 616 938 538 c 128,-1,38
 899 460 899 460 820.5 301 c 128,-1,39
 742 142 742 142 672 -6 c 0,0,1
EndSplineSet
EndChar

StartChar: w
Encoding: 119 119 90
Width: 1116
GlyphClass: 2
Flags: W
LayerCount: 2
Fore
SplineSet
416 4 m 1,0,1
 404 -49 404 -49 372.5 -77.5 c 128,-1,2
 341 -106 341 -106 309 -106 c 0,3,4
 272 -106 272 -106 238.5 -84 c 128,-1,5
 205 -62 205 -62 191 -14 c 0,6,7
 33 501 33 501 2 887 c 0,8,9
 0 903 0 903 0 908 c 0,10,11
 0 955 0 955 26 981.5 c 128,-1,12
 52 1008 52 1008 94 1014 c 0,13,14
 104 1016 104 1016 114 1016 c 0,15,16
 155 1016 155 1016 187 990 c 128,-1,17
 219 964 219 964 226 910 c 0,18,19
 250 669 250 669 323 238 c 1,20,21
 332 285 332 285 356 419 c 128,-1,22
 380 553 380 553 394 627.5 c 128,-1,23
 408 702 408 702 427 793 c 128,-1,24
 446 884 446 884 460 930 c 0,25,26
 485 1021 485 1021 575 1021 c 0,27,28
 580 1021 580 1021 584 1021 c 0,29,30
 667 1016 667 1016 697 928 c 0,31,32
 699 918 699 918 718.5 798.5 c 128,-1,33
 738 679 738 679 768 509.5 c 128,-1,34
 798 340 798 340 824 221 c 1,35,36
 863 443 863 443 915 910 c 0,37,38
 921 966 921 966 949.5 990 c 128,-1,39
 978 1014 978 1014 1016 1014 c 0,40,41
 1029 1014 1029 1014 1042 1012 c 0,42,43
 1124 995 1124 995 1124 900 c 0,44,45
 1124 886 1124 886 1122 874 c 0,46,47
 1098 673 1098 673 1048.5 416 c 128,-1,48
 999 159 999 159 953 28 c 0,49,50
 925 -55 925 -55 818 -55 c 0,51,52
 817 -55 817 -55 813.5 -55 c 128,-1,53
 810 -55 810 -55 808 -55 c 0,54,55
 711 -54 711 -54 677 28 c 0,56,57
 659 76 659 76 644 132 c 128,-1,58
 629 188 629 188 615.5 271.5 c 128,-1,59
 602 355 602 355 596.5 390.5 c 128,-1,60
 591 426 591 426 577.5 536 c 128,-1,61
 564 646 564 646 563 651 c 1,62,63
 553 603 553 603 527.5 466 c 128,-1,64
 502 329 502 329 476.5 219 c 128,-1,65
 451 109 451 109 416 4 c 1,0,1
EndSplineSet
EndChar

StartChar: x
Encoding: 120 120 91
Width: 1116
GlyphClass: 2
Flags: W
LayerCount: 2
Fore
SplineSet
245 0 m 1,0,1
 204 -81 204 -81 154 -81 c 0,2,3
 115 -81 115 -81 79 -15 c 1,4,5
 42 18 42 18 42 62 c 0,6,7
 42 101 42 101 72 148 c 0,8,9
 95 186 95 186 156.5 247.5 c 128,-1,10
 218 309 218 309 293.5 385 c 128,-1,11
 369 461 369 461 416 523 c 1,12,13
 357 596 357 596 254.5 696 c 128,-1,14
 152 796 152 796 123 833 c 0,15,16
 85 881 85 881 85 926 c 0,17,18
 85 972 85 972 123 1003 c 0,19,20
 156 1029 156 1029 197 1029 c 0,21,22
 256 1029 256 1029 310 972 c 0,23,24
 354 926 354 926 432 832.5 c 128,-1,25
 510 739 510 739 574 657 c 1,26,27
 592 682 592 682 641.5 748.5 c 128,-1,28
 691 815 691 815 713.5 845 c 128,-1,29
 736 875 736 875 768.5 915.5 c 128,-1,30
 801 956 801 956 823 979 c 0,31,32
 878 1036 878 1036 931 1036 c 0,33,34
 963 1036 963 1036 989 1019 c 0,35,36
 1033 985 1033 985 1033 933 c 0,37,38
 1033 895 1033 895 1005 862 c 2,39,-1
 700 497 l 1,40,-1
 693 490 l 1,41,-1
 694 511 l 1,42,43
 746 443 746 443 810.5 376 c 128,-1,44
 875 309 875 309 931 252.5 c 128,-1,45
 987 196 987 196 1018 155 c 0,46,47
 1064 95 1064 95 1064 51 c 0,48,49
 1064 20 1064 20 1042 -5 c 1,50,51
 1009 -76 1009 -76 962 -76 c 0,52,53
 905 -76 905 -76 849 10 c 1,54,55
 680 191 680 191 548 358 c 1,56,57
 489 286 489 286 377 156.5 c 128,-1,58
 265 27 265 27 245 0 c 1,0,1
EndSplineSet
EndChar

StartChar: y
Encoding: 121 121 92
Width: 1116
GlyphClass: 2
Flags: W
LayerCount: 2
Fore
SplineSet
376 -585 m 1,0,1
 361 -629 361 -629 333 -656 c 128,-1,2
 305 -683 305 -683 275 -683 c 0,3,4
 241 -683 241 -683 211 -628 c 1,5,6
 160 -587 160 -587 160 -530 c 0,7,8
 160 -500 160 -500 176 -469 c 2,9,-1
 438 31 l 1,10,11
 187 494 187 494 55 841 c 0,12,13
 40 881 40 881 40 917 c 0,14,15
 40 960 40 960 60 986 c 128,-1,16
 80 1012 80 1012 107 1024 c 0,17,18
 132 1037 132 1037 161 1037 c 0,19,20
 201 1037 201 1037 234.5 1009 c 128,-1,21
 268 981 268 981 285 924 c 0,22,23
 317 819 317 819 369 690 c 128,-1,24
 421 561 421 561 462 473 c 128,-1,25
 503 385 503 385 563 259 c 1,26,27
 769 675 769 675 870 938 c 0,28,29
 891 992 891 992 923.5 1019.5 c 128,-1,30
 956 1047 956 1047 995 1047 c 0,31,32
 1021 1047 1021 1047 1041 1037 c 0,33,34
 1069 1024 1069 1024 1090 994.5 c 128,-1,35
 1111 965 1111 965 1111 924 c 0,36,37
 1111 889 1111 889 1095 851 c 0,38,39
 1076 808 1076 808 1054 759 c 128,-1,40
 1032 710 1032 710 999.5 643.5 c 128,-1,41
 967 577 967 577 941.5 525 c 128,-1,42
 916 473 916 473 869 379 c 128,-1,43
 822 285 822 285 793 227.5 c 128,-1,44
 764 170 764 170 701 47 c 128,-1,45
 638 -76 638 -76 605 -139.5 c 128,-1,46
 572 -203 572 -203 493 -356.5 c 128,-1,47
 414 -510 414 -510 376 -585 c 1,0,1
EndSplineSet
EndChar

StartChar: z
Encoding: 122 122 93
Width: 1116
GlyphClass: 2
Flags: W
LayerCount: 2
Fore
SplineSet
1030 94 m 0,0,1
 1031 90 1031 90 1031 86 c 0,2,3
 1031 42 1031 42 1002.5 12 c 128,-1,4
 974 -18 974 -18 907 -18 c 0,5,6
 898 -18 898 -18 708 -12.5 c 128,-1,7
 518 -7 518 -7 386 -7 c 0,8,9
 271 -7 271 -7 187 -11 c 0,10,11
 186 -11 186 -11 184 -11 c 0,12,13
 140 -11 140 -11 110 32 c 128,-1,14
 80 75 80 75 80 118 c 0,15,16
 80 144 80 144 102 179 c 128,-1,17
 124 214 124 214 197 285 c 0,18,19
 211 299 211 299 436 508 c 128,-1,20
 661 717 661 717 739 801 c 1,21,22
 589 796 589 796 484 796 c 0,23,24
 306 796 306 796 210 812 c 0,25,26
 109 829 109 829 109 915 c 0,27,28
 109 916 109 916 109 918 c 128,-1,29
 109 920 109 920 109 922 c 0,30,31
 109 965 109 965 132.5 996.5 c 128,-1,32
 156 1028 156 1028 204 1028 c 0,33,34
 210 1028 210 1028 216 1027 c 0,35,36
 450 1003 450 1003 677 1003 c 0,37,38
 797 1003 797 1003 911 1010 c 0,39,40
 912 1010 912 1010 914 1010 c 0,41,42
 957 1010 957 1010 985 974.5 c 128,-1,43
 1013 939 1013 939 1015 894 c 0,44,45
 1015 893 1015 893 1015 891 c 0,46,47
 1015 869 1015 869 999 836 c 128,-1,48
 983 803 983 803 944 746 c 0,49,50
 887 663 887 663 812 584 c 128,-1,51
 737 505 737 505 676 452.5 c 128,-1,52
 615 400 615 400 526.5 324 c 128,-1,53
 438 248 438 248 381 194 c 1,54,55
 564 205 564 205 685 205 c 0,56,57
 820 205 820 205 914 192 c 0,58,59
 977 180 977 180 1002.5 155.5 c 128,-1,60
 1028 131 1028 131 1030 94 c 0,0,1
EndSplineSet
EndChar

StartChar: braceleft
Encoding: 123 123 94
Width: 1116
GlyphClass: 2
Flags: W
LayerCount: 2
Fore
SplineSet
1030 -96 m 0,0,1
 1030 -137 1030 -137 1002.5 -170.5 c 128,-1,2
 975 -204 975 -204 918 -204 c 0,3,4
 839 -204 839 -204 765.5 -192.5 c 128,-1,5
 692 -181 692 -181 625.5 -156.5 c 128,-1,6
 559 -132 559 -132 510 -96 c 128,-1,7
 461 -60 461 -60 431.5 -8 c 128,-1,8
 402 44 402 44 402 107 c 0,9,10
 402 163 402 163 414.5 216.5 c 128,-1,11
 427 270 427 270 445 312 c 128,-1,12
 463 354 463 354 480.5 393.5 c 128,-1,13
 498 433 498 433 510.5 476.5 c 128,-1,14
 523 520 523 520 523 562 c 1,15,-1
 523 560 l 1,16,17
 520 566 520 566 507 574.5 c 128,-1,18
 494 583 494 583 467.5 594.5 c 128,-1,19
 441 606 441 606 407 615.5 c 128,-1,20
 373 625 373 625 322 632 c 128,-1,21
 271 639 271 639 215 639 c 0,22,23
 165 639 165 639 130.5 678 c 128,-1,24
 96 717 96 717 96 765 c 256,25,26
 96 813 96 813 122.5 845 c 128,-1,27
 149 877 149 877 199 877 c 0,28,29
 349 877 349 877 429.5 898 c 128,-1,30
 510 919 510 919 510 971 c 0,31,32
 510 983 510 983 493 1013 c 128,-1,33
 476 1043 476 1043 456 1078 c 128,-1,34
 436 1113 436 1113 419 1177 c 128,-1,35
 402 1241 402 1241 402 1313 c 0,36,37
 402 1509 402 1509 539.5 1625.5 c 128,-1,38
 677 1742 677 1742 918 1742 c 0,39,40
 964 1742 964 1742 998.5 1716 c 128,-1,41
 1033 1690 1033 1690 1033 1651 c 0,42,43
 1033 1610 1033 1610 991 1573.5 c 128,-1,44
 949 1537 949 1537 909 1537 c 0,45,46
 775 1537 775 1537 701 1480.5 c 128,-1,47
 627 1424 627 1424 627 1331 c 0,48,49
 627 1283 627 1283 645.5 1224.5 c 128,-1,50
 664 1166 664 1166 686.5 1122.5 c 128,-1,51
 709 1079 709 1079 727.5 1036.5 c 128,-1,52
 746 994 746 994 746 975 c 0,53,54
 746 937 746 937 725.5 902.5 c 128,-1,55
 705 868 705 868 670 842 c 128,-1,56
 635 816 635 816 596.5 797.5 c 128,-1,57
 558 779 558 779 513 765 c 1,58,59
 612 730 612 730 679 679.5 c 128,-1,60
 746 629 746 629 746 580 c 0,61,62
 746 534 746 534 734 487.5 c 128,-1,63
 722 441 722 441 704.5 401 c 128,-1,64
 687 361 687 361 670 320 c 128,-1,65
 653 279 653 279 641 228.5 c 128,-1,66
 629 178 629 178 629 125 c 0,67,68
 629 89 629 89 670.5 60.5 c 128,-1,69
 712 32 712 32 775.5 16.5 c 128,-1,70
 839 1 839 1 909 1 c 0,71,72
 958 1 958 1 994 -26 c 128,-1,73
 1030 -53 1030 -53 1030 -96 c 0,0,1
EndSplineSet
EndChar

StartChar: bar
Encoding: 124 124 95
Width: 1116
GlyphClass: 2
Flags: W
LayerCount: 2
Fore
SplineSet
691 1594 m 2,0,-1
 678 -306 l 1,1,2
 672 -356 672 -356 638.5 -385.5 c 128,-1,3
 605 -415 605 -415 559 -415 c 0,4,5
 558 -415 558 -415 556.5 -415 c 128,-1,6
 555 -415 555 -415 554 -415 c 0,7,8
 517 -415 517 -415 491 -391 c 128,-1,9
 465 -367 465 -367 465 -313 c 0,10,11
 465 -305 465 -305 466 -293 c 0,12,13
 473 -213 473 -213 476 186.5 c 128,-1,14
 479 586 479 586 480.5 1041 c 128,-1,15
 482 1496 482 1496 484 1588 c 0,16,17
 487 1715 487 1715 582 1715 c 0,18,19
 583 1715 583 1715 585.5 1715.5 c 128,-1,20
 588 1716 588 1716 588 1716 c 1,21,22
 635 1716 635 1716 663 1686.5 c 128,-1,23
 691 1657 691 1657 691 1594 c 2,0,-1
EndSplineSet
EndChar

StartChar: braceright
Encoding: 125 125 96
Width: 1116
GlyphClass: 2
Flags: W
LayerCount: 2
Fore
SplineSet
726 225 m 0,0,1
 726 29 726 29 588.5 -87.5 c 128,-1,2
 451 -204 451 -204 210 -204 c 0,3,4
 164 -204 164 -204 130 -177.5 c 128,-1,5
 96 -151 96 -151 96 -113 c 0,6,7
 96 -72 96 -72 137.5 -35.5 c 128,-1,8
 179 1 179 1 219 1 c 0,9,10
 353 1 353 1 427 57.5 c 128,-1,11
 501 114 501 114 501 207 c 0,12,13
 501 255 501 255 482.5 317 c 128,-1,14
 464 379 464 379 442 426.5 c 128,-1,15
 420 474 420 474 401.5 519.5 c 128,-1,16
 383 565 383 565 383 584 c 0,17,18
 383 623 383 623 403 657.5 c 128,-1,19
 423 692 423 692 458 717.5 c 128,-1,20
 493 743 493 743 532 761.5 c 128,-1,21
 571 780 571 780 615 794 c 1,22,23
 517 830 517 830 450 880 c 128,-1,24
 383 930 383 930 383 979 c 0,25,26
 383 1026 383 1026 395 1070.5 c 128,-1,27
 407 1115 407 1115 424 1151.5 c 128,-1,28
 441 1188 441 1188 458 1225.5 c 128,-1,29
 475 1263 475 1263 487 1311.5 c 128,-1,30
 499 1360 499 1360 499 1413 c 0,31,32
 499 1449 499 1449 458 1477.5 c 128,-1,33
 417 1506 417 1506 353 1521.5 c 128,-1,34
 289 1537 289 1537 219 1537 c 0,35,36
 170 1537 170 1537 134 1564 c 128,-1,37
 98 1591 98 1591 98 1634 c 0,38,39
 98 1675 98 1675 125.5 1708.5 c 128,-1,40
 153 1742 153 1742 210 1742 c 0,41,42
 289 1742 289 1742 362.5 1730.5 c 128,-1,43
 436 1719 436 1719 502.5 1694.5 c 128,-1,44
 569 1670 569 1670 618.5 1634 c 128,-1,45
 668 1598 668 1598 697 1546 c 128,-1,46
 726 1494 726 1494 726 1432 c 0,47,48
 726 1375 726 1375 713.5 1323.5 c 128,-1,49
 701 1272 701 1272 683.5 1233.5 c 128,-1,50
 666 1195 666 1195 648 1158.5 c 128,-1,51
 630 1122 630 1122 617.5 1080.5 c 128,-1,52
 605 1039 605 1039 605 998 c 1,53,-1
 605 999 l 1,54,55
 608 994 608 994 621 985.5 c 128,-1,56
 634 977 634 977 660.5 965.5 c 128,-1,57
 687 954 687 954 721 944 c 128,-1,58
 755 934 755 934 806 927.5 c 128,-1,59
 857 921 857 921 914 921 c 0,60,61
 963 921 963 921 998 882 c 128,-1,62
 1033 843 1033 843 1033 795 c 0,63,64
 1033 746 1033 746 1006 714.5 c 128,-1,65
 979 683 979 683 929 683 c 0,66,67
 779 683 779 683 698.5 661.5 c 128,-1,68
 618 640 618 640 618 589 c 0,69,70
 618 576 618 576 635 543 c 128,-1,71
 652 510 652 510 672 471 c 128,-1,72
 692 432 692 432 709 364.5 c 128,-1,73
 726 297 726 297 726 225 c 0,0,1
EndSplineSet
EndChar

StartChar: asciitilde
Encoding: 126 126 97
Width: 1116
GlyphClass: 2
Flags: W
LayerCount: 2
Fore
SplineSet
1049 1078 m 0,0,1
 1091 1059 1091 1059 1091 1002 c 0,2,3
 1091 954 1091 954 1058 865 c 0,4,5
 927 541 927 541 740 541 c 0,6,7
 694 541 694 541 655 554.5 c 128,-1,8
 616 568 616 568 584.5 595 c 128,-1,9
 553 622 553 622 529 652 c 128,-1,10
 505 682 505 682 477 726 c 0,11,12
 471 736 471 736 459.5 753.5 c 128,-1,13
 448 771 448 771 443.5 777.5 c 128,-1,14
 439 784 439 784 430.5 796 c 128,-1,15
 422 808 422 808 418 812 c 128,-1,16
 414 816 414 816 406.5 823 c 128,-1,17
 399 830 399 830 392.5 832 c 128,-1,18
 386 834 386 834 377.5 836 c 128,-1,19
 369 838 369 838 359 838 c 0,20,21
 323 838 323 838 299.5 801.5 c 128,-1,22
 276 765 276 765 232 650 c 0,23,24
 217 615 217 615 176 584 c 128,-1,25
 135 553 135 553 95 553 c 0,26,27
 87 553 87 553 79 555 c 0,28,29
 55 561 55 561 37.5 588 c 128,-1,30
 20 615 20 615 20 647 c 0,31,32
 20 663 20 663 24 679 c 0,33,34
 76 866 76 866 167.5 976.5 c 128,-1,35
 259 1087 259 1087 353 1087 c 0,36,37
 399 1087 399 1087 429.5 1081.5 c 128,-1,38
 460 1076 460 1076 492.5 1059 c 128,-1,39
 525 1042 525 1042 553.5 1009.5 c 128,-1,40
 582 977 582 977 612 925 c 0,41,42
 619 913 619 913 631 891.5 c 128,-1,43
 643 870 643 870 648.5 861 c 128,-1,44
 654 852 654 852 663.5 836.5 c 128,-1,45
 673 821 673 821 679.5 815 c 128,-1,46
 686 809 686 809 695 801 c 128,-1,47
 704 793 704 793 712.5 790.5 c 128,-1,48
 721 788 721 788 732 788 c 0,49,50
 735 788 735 788 740.5 788 c 128,-1,51
 746 788 746 788 749 788 c 0,52,53
 769 788 769 788 779.5 791 c 128,-1,54
 790 794 790 794 806 807.5 c 128,-1,55
 822 821 822 821 838.5 851.5 c 128,-1,56
 855 882 855 882 877 936 c 0,57,58
 885 955 885 955 896.5 976 c 128,-1,59
 908 997 908 997 926.5 1023.5 c 128,-1,60
 945 1050 945 1050 969.5 1067 c 128,-1,61
 994 1084 994 1084 1020 1084 c 0,62,63
 1035 1084 1035 1084 1049 1078 c 0,0,1
EndSplineSet
EndChar

StartChar: endash
Encoding: 8211 8211 98
Width: 1116
GlyphClass: 2
Flags: W
LayerCount: 2
Fore
SplineSet
245 688 m 0,0,1
 399 688 399 688 615 684.5 c 128,-1,2
 831 681 831 681 859 681 c 0,3,4
 957 681 957 681 962 604 c 0,5,6
 962 555 962 555 932.5 535 c 128,-1,7
 903 515 903 515 859 515 c 0,8,9
 824 515 824 515 584.5 496.5 c 128,-1,10
 345 478 345 478 248 478 c 0,11,12
 144 478 144 478 144 582 c 0,13,14
 144 583 144 583 144 586 c 128,-1,15
 144 589 144 589 144 591 c 0,16,17
 144 644 144 644 173 666 c 128,-1,18
 202 688 202 688 245 688 c 0,0,1
EndSplineSet
EndChar

StartChar: emdash
Encoding: 8212 8212 99
Width: 1116
GlyphClass: 2
Flags: W
LayerCount: 2
Fore
SplineSet
136 684 m 2,0,-1
 990 686 l 2,1,2
 1089 686 1089 686 1094 604 c 0,3,4
 1094 556 1094 556 1064 535.5 c 128,-1,5
 1034 515 1034 515 990 515 c 0,6,7
 942 515 942 515 607.5 496.5 c 128,-1,8
 273 478 273 478 138 478 c 0,9,10
 35 478 35 478 34 582 c 0,11,12
 34 584 34 584 34 586.5 c 128,-1,13
 34 589 34 589 34 590 c 0,14,15
 34 631 34 631 57.5 657.5 c 128,-1,16
 81 684 81 684 136 684 c 2,0,-1
EndSplineSet
EndChar

StartChar: quoteleft
Encoding: 8216 8216 100
Width: 1116
GlyphClass: 2
Flags: W
LayerCount: 2
Fore
SplineSet
501 1017 m 0,0,1
 466 1081 466 1081 416 1188.5 c 128,-1,2
 366 1296 366 1296 340 1370 c 0,3,4
 333 1388 333 1388 333 1408 c 0,5,6
 333 1442 333 1442 352.5 1468 c 128,-1,7
 372 1494 372 1494 399 1506 c 0,8,9
 430 1520 430 1520 461 1520 c 0,10,11
 529 1520 529 1520 554 1460 c 0,12,13
 593 1354 593 1354 728 1120 c 0,14,15
 741 1097 741 1097 741 1075 c 0,16,17
 741 1016 741 1016 656 973 c 0,18,19
 624 957 624 957 594 957 c 0,20,21
 534 957 534 957 501 1017 c 0,0,1
EndSplineSet
EndChar

StartChar: quoteright
Encoding: 8217 8217 101
Width: 1116
GlyphClass: 2
Flags: W
LayerCount: 2
Fore
SplineSet
742 1348 m 0,0,1
 647 1082 647 1082 592 982 c 0,2,3
 570 943 570 943 538 922 c 128,-1,4
 506 901 506 901 473 901 c 0,5,6
 451 901 451 901 433 942 c 1,7,8
 404 956 404 956 377.5 989 c 128,-1,9
 351 1022 351 1022 351 1060 c 0,10,11
 351 1085 351 1085 365 1108 c 0,12,13
 400 1164 400 1164 452 1270.5 c 128,-1,14
 504 1377 504 1377 528 1441 c 0,15,16
 553 1498 553 1498 621 1498 c 0,17,18
 652 1498 652 1498 683 1484 c 0,19,20
 711 1472 711 1472 730 1446 c 128,-1,21
 749 1420 749 1420 749 1386 c 0,22,23
 749 1366 749 1366 742 1348 c 0,0,1
EndSplineSet
EndChar

StartChar: quotesinglbase
Encoding: 8218 8218 102
Width: 1116
GlyphClass: 2
Flags: W
LayerCount: 2
Fore
SplineSet
585 1446 m 0,0,1
 611 1375 611 1375 644.5 1269.5 c 128,-1,2
 678 1164 678 1164 693 1094 c 0,3,4
 695 1085 695 1085 695 1074 c 0,5,6
 695 1036 695 1036 670.5 1010.5 c 128,-1,7
 646 985 646 985 614 976 c 1,8,9
 594 938 594 938 572 938 c 0,10,11
 536 938 536 938 506.5 956 c 128,-1,12
 477 974 477 974 469 1013 c 0,13,14
 449 1106 449 1106 344 1374 c 0,15,16
 337 1392 337 1392 337 1409 c 0,17,18
 337 1431 337 1431 348 1449 c 128,-1,19
 359 1467 359 1467 376 1478.5 c 128,-1,20
 393 1490 393 1490 408 1496.5 c 128,-1,21
 423 1503 423 1503 438 1507 c 0,22,23
 462 1515 462 1515 486 1515 c 0,24,25
 557 1515 557 1515 585 1446 c 0,0,1
EndSplineSet
EndChar

StartChar: quotedblleft
Encoding: 8220 8220 103
Width: 1116
GlyphClass: 2
Flags: W
LayerCount: 2
Fore
SplineSet
672 1105 m 0,0,1
 637 1169 637 1169 587 1276.5 c 128,-1,2
 537 1384 537 1384 511 1457 c 0,3,4
 504 1476 504 1476 504 1495 c 0,5,6
 504 1529 504 1529 523 1555.5 c 128,-1,7
 542 1582 542 1582 570 1594 c 0,8,9
 601 1607 601 1607 632 1607 c 0,10,11
 700 1607 700 1607 725 1547 c 0,12,13
 763 1442 763 1442 899 1208 c 0,14,15
 912 1185 912 1185 912 1162 c 0,16,17
 912 1104 912 1104 827 1061 c 0,18,19
 794 1045 794 1045 764 1045 c 0,20,21
 704 1045 704 1045 672 1105 c 0,0,1
365 1027 m 0,22,23
 330 1091 330 1091 280 1198.5 c 128,-1,24
 230 1306 230 1306 204 1380 c 0,25,26
 197 1398 197 1398 197 1418 c 0,27,28
 197 1452 197 1452 216.5 1478 c 128,-1,29
 236 1504 236 1504 263 1516 c 0,30,31
 294 1530 294 1530 326 1530 c 0,32,33
 394 1530 394 1530 418 1470 c 0,34,35
 457 1364 457 1364 592 1130 c 0,36,37
 606 1107 606 1107 606 1085 c 0,38,39
 606 1026 606 1026 520 983 c 0,40,41
 488 967 488 967 458 967 c 0,42,43
 398 967 398 967 365 1027 c 0,22,23
EndSplineSet
EndChar

StartChar: quotedblright
Encoding: 8221 8221 104
Width: 1116
GlyphClass: 2
Flags: W
LayerCount: 2
Fore
SplineSet
611 1457 m 0,0,1
 515 1191 515 1191 461 1091 c 0,2,3
 440 1055 440 1055 408.5 1036 c 128,-1,4
 377 1017 377 1017 344 1017 c 0,5,6
 318 1017 318 1017 297 1028 c 0,7,8
 212 1071 212 1071 212 1129 c 0,9,10
 212 1152 212 1152 225 1175 c 0,11,12
 260 1235 260 1235 316 1357 c 128,-1,13
 372 1479 372 1479 397 1547 c 0,14,15
 421 1607 421 1607 489 1607 c 0,16,17
 521 1607 521 1607 552 1594 c 0,18,19
 579 1582 579 1582 598.5 1555.5 c 128,-1,20
 618 1529 618 1529 618 1495 c 0,21,22
 618 1476 618 1476 611 1457 c 0,0,1
918 1380 m 0,23,24
 822 1114 822 1114 768 1014 c 0,25,26
 745 975 745 975 713 954 c 128,-1,27
 681 933 681 933 648 933 c 0,28,29
 626 933 626 933 608 942 c 0,30,31
 579 956 579 956 552.5 991 c 128,-1,32
 526 1026 526 1026 526 1066 c 0,33,34
 526 1093 526 1093 540 1117 c 0,35,36
 575 1177 575 1177 627 1289.5 c 128,-1,37
 679 1402 679 1402 704 1470 c 0,38,39
 728 1530 728 1530 796 1530 c 0,40,41
 827 1530 827 1530 859 1516 c 0,42,43
 886 1504 886 1504 905 1478 c 128,-1,44
 924 1452 924 1452 924 1418 c 0,45,46
 924 1398 924 1398 918 1380 c 0,23,24
EndSplineSet
EndChar

StartChar: bullet
Encoding: 8226 8226 105
Width: 1116
GlyphClass: 2
Flags: W
LayerCount: 2
Fore
SplineSet
567 656 m 0,0,1
 556 655 556 655 543 655 c 0,2,3
 456 655 456 655 400.5 717.5 c 128,-1,4
 345 780 345 780 345 863 c 0,5,6
 345 943 345 943 413 1001 c 128,-1,7
 481 1059 481 1059 565 1063 c 0,8,9
 569 1063 569 1063 574 1063 c 0,10,11
 663 1063 663 1063 719.5 1005 c 128,-1,12
 776 947 776 947 776 865 c 0,13,14
 776 781 776 781 718.5 724 c 128,-1,15
 661 667 661 667 567 656 c 0,0,1
EndSplineSet
EndChar
